<svg width="26" height="33" viewBox="0 0 26 33" fill="none" xmlns="http://www.w3.org/2000/svg">
<path d="M12.9988 22.0007C12.7456 22.0014 12.5003 21.8895 12.3054 21.6845L5.80542 14.8095C5.58418 14.5761 5.44506 14.2407 5.41865 13.8771C5.39224 13.5136 5.4807 13.1515 5.66459 12.8707C5.84847 12.5899 6.11271 12.4134 6.39917 12.3798C6.68563 12.3463 6.97085 12.4586 7.19209 12.692L12.9988 18.852L18.8054 12.912C18.9162 12.7978 19.0437 12.7125 19.1806 12.661C19.3175 12.6095 19.461 12.5929 19.603 12.6121C19.7449 12.6313 19.8825 12.6858 20.0077 12.7727C20.133 12.8596 20.2435 12.977 20.3329 13.1182C20.4321 13.2596 20.5073 13.4255 20.5536 13.6054C20.6 13.7854 20.6166 13.9756 20.6023 14.164C20.5881 14.3525 20.5433 14.5352 20.4709 14.7007C20.3984 14.8662 20.2998 15.0109 20.1813 15.1257L13.6813 21.767C13.4807 21.9396 13.2404 22.0219 12.9988 22.0007Z" fill="#1A2A3A"/>
</svg>
