<svg width="40" height="40" viewBox="0 0 40 40" fill="none" xmlns="http://www.w3.org/2000/svg">
<path d="M13.4645 33.3323C15.929 33.4148 18.385 33.0024 20.6874 32.1195C22.9898 31.2366 25.0919 29.9012 26.8694 28.192C28.6469 26.4829 30.0637 24.4348 31.0362 22.1688C32.0086 19.9028 32.517 17.4648 32.5312 14.999C33.6606 13.6014 34.4993 11.9921 34.9979 10.2657C35.0351 10.1293 35.0321 9.98504 34.9892 9.85031C34.9464 9.71558 34.8655 9.59611 34.7563 9.50629C34.6471 9.41647 34.5143 9.36014 34.3738 9.34406C34.2333 9.32798 34.0912 9.35286 33.9645 9.41568C33.3737 9.70011 32.7085 9.79198 32.0626 9.67836C31.4168 9.56474 30.8229 9.25135 30.3645 8.78235C29.7795 8.14165 29.0717 7.6249 28.2833 7.26273C27.4948 6.90056 26.6417 6.70033 25.7745 6.67391C24.9072 6.64748 24.0435 6.79541 23.2344 7.10891C22.4254 7.42241 21.6875 7.89512 21.0645 8.49902C20.2115 9.32511 19.5867 10.3578 19.2509 11.4968C18.915 12.6358 18.8795 13.8423 19.1479 14.999C13.5645 15.3323 9.7312 12.6823 6.66454 9.04902C6.57241 8.94468 6.4519 8.86944 6.31771 8.83246C6.18352 8.79549 6.04148 8.79839 5.90891 8.84081C5.77635 8.88323 5.65901 8.96334 5.57122 9.07134C5.48342 9.17935 5.42898 9.31058 5.41454 9.44902C4.83032 12.6897 5.25175 16.0316 6.62224 19.0258C7.99272 22.02 10.2466 24.5231 13.0812 26.199C11.1806 28.3787 8.51155 29.7401 5.63121 29.999C5.47689 30.0246 5.33444 30.0978 5.22379 30.2084C5.11314 30.3189 5.03983 30.4613 5.01411 30.6156C4.9884 30.7699 5.01157 30.9284 5.08038 31.0688C5.14919 31.2093 5.2602 31.3248 5.39787 31.399C7.90374 32.6513 10.6633 33.3127 13.4645 33.3323Z" fill="#07182A"/>
</svg>
