<svg width="30" height="32" viewBox="0 0 30 32" fill="none" xmlns="http://www.w3.org/2000/svg">
<g clip-path="url(#clip0_236_142)">
<path d="M12.1875 14C12.6848 14 13.1617 13.7893 13.5133 13.4142C13.865 13.0391 14.0625 12.5304 14.0625 12C14.0625 11.4696 13.865 10.9609 13.5133 10.5858C13.1617 10.2107 12.6848 10 12.1875 10C11.6902 10 11.2133 10.2107 10.8617 10.5858C10.51 10.9609 10.3125 11.4696 10.3125 12C10.3125 12.5304 10.51 13.0391 10.8617 13.4142C11.2133 13.7893 11.6902 14 12.1875 14ZM17.8125 14C18.3098 14 18.7867 13.7893 19.1383 13.4142C19.49 13.0391 19.6875 12.5304 19.6875 12C19.6875 11.4696 19.49 10.9609 19.1383 10.5858C18.7867 10.2107 18.3098 10 17.8125 10C17.3152 10 16.8383 10.2107 16.4867 10.5858C16.135 10.9609 15.9375 11.4696 15.9375 12C15.9375 12.5304 16.135 13.0391 16.4867 13.4142C16.8383 13.7893 17.3152 14 17.8125 14ZM23.4375 14C23.9348 14 24.4117 13.7893 24.7633 13.4142C25.115 13.0391 25.3125 12.5304 25.3125 12C25.3125 11.4696 25.115 10.9609 24.7633 10.5858C24.4117 10.2107 23.9348 10 23.4375 10C22.9402 10 22.4633 10.2107 22.1117 10.5858C21.76 10.9609 21.5625 11.4696 21.5625 12C21.5625 12.5304 21.76 13.0391 22.1117 13.4142C22.4633 13.7893 22.9402 14 23.4375 14ZM6.5625 20C7.05978 20 7.53669 19.7893 7.88832 19.4142C8.23996 19.0391 8.4375 18.5304 8.4375 18C8.4375 17.4696 8.23996 16.9609 7.88832 16.5858C7.53669 16.2107 7.05978 16 6.5625 16C6.06522 16 5.58831 16.2107 5.23667 16.5858C4.88504 16.9609 4.6875 17.4696 4.6875 18C4.6875 18.5304 4.88504 19.0391 5.23667 19.4142C5.58831 19.7893 6.06522 20 6.5625 20ZM12.1875 20C12.6848 20 13.1617 19.7893 13.5133 19.4142C13.865 19.0391 14.0625 18.5304 14.0625 18C14.0625 17.4696 13.865 16.9609 13.5133 16.5858C13.1617 16.2107 12.6848 16 12.1875 16C11.6902 16 11.2133 16.2107 10.8617 16.5858C10.51 16.9609 10.3125 17.4696 10.3125 18C10.3125 18.5304 10.51 19.0391 10.8617 19.4142C11.2133 19.7893 11.6902 20 12.1875 20ZM17.8125 20C18.3098 20 18.7867 19.7893 19.1383 19.4142C19.49 19.0391 19.6875 18.5304 19.6875 18C19.6875 17.4696 19.49 16.9609 19.1383 16.5858C18.7867 16.2107 18.3098 16 17.8125 16C17.3152 16 16.8383 16.2107 16.4867 16.5858C16.135 16.9609 15.9375 17.4696 15.9375 18C15.9375 18.5304 16.135 19.0391 16.4867 19.4142C16.8383 19.7893 17.3152 20 17.8125 20ZM23.4375 20C23.9348 20 24.4117 19.7893 24.7633 19.4142C25.115 19.0391 25.3125 18.5304 25.3125 18C25.3125 17.4696 25.115 16.9609 24.7633 16.5858C24.4117 16.2107 23.9348 16 23.4375 16C22.9402 16 22.4633 16.2107 22.1117 16.5858C21.76 16.9609 21.5625 17.4696 21.5625 18C21.5625 18.5304 21.76 19.0391 22.1117 19.4142C22.4633 19.7893 22.9402 20 23.4375 20ZM6.5625 26C7.05978 26 7.53669 25.7893 7.88832 25.4142C8.23996 25.0391 8.4375 24.5304 8.4375 24C8.4375 23.4696 8.23996 22.9609 7.88832 22.5858C7.53669 22.2107 7.05978 22 6.5625 22C6.06522 22 5.58831 22.2107 5.23667 22.5858C4.88504 22.9609 4.6875 23.4696 4.6875 24C4.6875 24.5304 4.88504 25.0391 5.23667 25.4142C5.58831 25.7893 6.06522 26 6.5625 26ZM12.1875 26C12.6848 26 13.1617 25.7893 13.5133 25.4142C13.865 25.0391 14.0625 24.5304 14.0625 24C14.0625 23.4696 13.865 22.9609 13.5133 22.5858C13.1617 22.2107 12.6848 22 12.1875 22C11.6902 22 11.2133 22.2107 10.8617 22.5858C10.51 22.9609 10.3125 23.4696 10.3125 24C10.3125 24.5304 10.51 25.0391 10.8617 25.4142C11.2133 25.7893 11.6902 26 12.1875 26ZM17.8125 26C18.3098 26 18.7867 25.7893 19.1383 25.4142C19.49 25.0391 19.6875 24.5304 19.6875 24C19.6875 23.4696 19.49 22.9609 19.1383 22.5858C18.7867 22.2107 18.3098 22 17.8125 22C17.3152 22 16.8383 22.2107 16.4867 22.5858C16.135 22.9609 15.9375 23.4696 15.9375 24C15.9375 24.5304 16.135 25.0391 16.4867 25.4142C16.8383 25.7893 17.3152 26 17.8125 26Z" fill="black"/>
<path d="M26.25 0H3.75C2.75544 0 1.80161 0.421427 1.09835 1.17157C0.395088 1.92172 0 2.93913 0 4L0 28C0 29.0609 0.395088 30.0783 1.09835 30.8284C1.80161 31.5786 2.75544 32 3.75 32H26.25C27.2446 32 28.1984 31.5786 28.9016 30.8284C29.6049 30.0783 30 29.0609 30 28V4C30 2.93913 29.6049 1.92172 28.9016 1.17157C28.1984 0.421427 27.2446 0 26.25 0V0ZM1.875 7.714C1.875 6.768 2.715 6 3.75 6H26.25C27.285 6 28.125 6.768 28.125 7.714V28.286C28.125 29.232 27.285 30 26.25 30H3.75C2.715 30 1.875 29.232 1.875 28.286V7.714Z" fill="black"/>
</g>
<defs>
<clipPath id="clip0_236_142">
<rect width="30" height="32" fill="white"/>
</clipPath>
</defs>
</svg>
