<svg width="41" height="42" viewBox="0 0 41 42" fill="none" xmlns="http://www.w3.org/2000/svg">
<ellipse cx="20.5" cy="20.8333" rx="20.5" ry="20.8333" fill="white"/>
<path d="M20.9988 27.0007C20.7456 27.0014 20.5003 26.8895 20.3054 26.6845L13.8054 19.8095C13.5842 19.5761 13.4451 19.2407 13.4186 18.8771C13.3922 18.5136 13.4807 18.1515 13.6646 17.8707C13.8485 17.5899 14.1127 17.4134 14.3992 17.3798C14.6856 17.3463 14.9709 17.4586 15.1921 17.692L20.9988 23.852L26.8054 17.912C26.9162 17.7978 27.0437 17.7125 27.1806 17.661C27.3175 17.6095 27.461 17.5929 27.603 17.6121C27.7449 17.6313 27.8825 17.6858 28.0077 17.7727C28.133 17.8596 28.2435 17.977 28.3329 18.1182C28.4321 18.2596 28.5073 18.4255 28.5536 18.6054C28.6 18.7854 28.6166 18.9756 28.6023 19.164C28.5881 19.3525 28.5433 19.5352 28.4709 19.7007C28.3984 19.8662 28.2998 20.0109 28.1813 20.1257L21.6813 26.767C21.4807 26.9396 21.2404 27.0219 20.9988 27.0007Z" fill="#1A2A3A"/>
</svg>
