<svg width="91" height="91" viewBox="0 0 91 91" fill="none" xmlns="http://www.w3.org/2000/svg">
<circle cx="45.5" cy="45.8574" r="45" fill="white"/>
<path d="M46.0091 35.6823C48.1023 35.6823 50.1485 35.0304 51.8889 33.809C53.6293 32.5876 54.9858 30.8516 55.7868 28.8205C56.5879 26.7894 56.7975 24.5544 56.3891 22.3982C55.9807 20.242 54.9728 18.2614 53.4927 16.7068C52.0126 15.1523 50.1268 14.0937 48.0738 13.6648C46.0209 13.2359 43.8929 13.456 41.959 14.2973C40.0252 15.1386 38.3723 16.5633 37.2094 18.3913C36.0465 20.2192 35.4258 22.3683 35.4258 24.5667C35.4258 27.5148 36.5408 30.3421 38.5256 32.4266C40.5103 34.5112 43.2022 35.6823 46.0091 35.6823ZM46.0091 19.009C47.0557 19.009 48.0788 19.3349 48.949 19.9456C49.8192 20.5563 50.4975 21.4243 50.898 22.4399C51.2985 23.4554 51.4033 24.5729 51.1991 25.651C50.9949 26.7291 50.4909 27.7194 49.7509 28.4967C49.0108 29.2739 48.0679 29.8033 47.0415 30.0177C46.015 30.2322 44.951 30.1221 43.9841 29.7015C43.0172 29.2808 42.1907 28.5684 41.6093 27.6545C41.0278 26.7405 40.7174 25.666 40.7174 24.5667C40.7174 23.0927 41.275 21.6791 42.2673 20.6368C43.2597 19.5945 44.6057 19.009 46.0091 19.009Z" fill="#231F20"/>
<path d="M46.0091 41.2402C41.0971 41.2402 36.3862 43.2897 32.9129 46.9377C29.4396 50.5857 27.4883 55.5334 27.4883 60.6925C27.4883 61.4295 27.767 62.1363 28.2632 62.6574C28.7594 63.1786 29.4324 63.4714 30.1341 63.4714C30.8358 63.4714 31.5088 63.1786 32.005 62.6574C32.5012 62.1363 32.7799 61.4295 32.7799 60.6925C32.7799 57.0074 34.1737 53.4733 36.6547 50.8676C39.1356 48.2619 42.5005 46.798 46.0091 46.798C49.5177 46.798 52.8826 48.2619 55.3635 50.8676C57.8445 53.4733 59.2383 57.0074 59.2383 60.6925C59.2383 61.4295 59.517 62.1363 60.0132 62.6574C60.5094 63.1786 61.1824 63.4714 61.8841 63.4714C62.5858 63.4714 63.2588 63.1786 63.755 62.6574C64.2512 62.1363 64.5299 61.4295 64.5299 60.6925C64.5299 55.5334 62.5786 50.5857 59.1053 46.9377C55.632 43.2897 50.9211 41.2402 46.0091 41.2402Z" fill="#231F20"/>
</svg>
