<svg width="228" height="80" viewBox="0 0 228 80" fill="none" xmlns="http://www.w3.org/2000/svg">
<g filter="url(#filter0_d_418_664)">
<rect width="7" height="62" transform="matrix(1 0 0 -1 10 72)" fill="white"/>
<rect x="0.5" y="-0.5" width="6" height="61" transform="matrix(1 0 0 -1 10 71)" stroke="black"/>
</g>
<g filter="url(#filter1_d_418_664)">
<ellipse cx="14" cy="10.5" rx="10" ry="10.5" fill="white"/>
<path d="M23.5 10.5C23.5 16.0461 19.224 20.5 14 20.5C8.776 20.5 4.5 16.0461 4.5 10.5C4.5 4.95388 8.776 0.5 14 0.5C19.224 0.5 23.5 4.95388 23.5 10.5Z" stroke="black"/>
</g>
<g filter="url(#filter2_d_418_664)">
<rect width="7" height="62" transform="matrix(1 0 0 -1 210 72)" fill="white"/>
<rect x="0.5" y="-0.5" width="6" height="61" transform="matrix(1 0 0 -1 210 71)" stroke="black"/>
</g>
<g filter="url(#filter3_d_418_664)">
<ellipse cx="214" cy="10.5" rx="10" ry="10.5" fill="white"/>
<path d="M223.5 10.5C223.5 16.0461 219.224 20.5 214 20.5C208.776 20.5 204.5 16.0461 204.5 10.5C204.5 4.95388 208.776 0.5 214 0.5C219.224 0.5 223.5 4.95388 223.5 10.5Z" stroke="black"/>
</g>
<defs>
<filter id="filter0_d_418_664" x="6" y="10" width="15" height="70" filterUnits="userSpaceOnUse" color-interpolation-filters="sRGB">
<feFlood flood-opacity="0" result="BackgroundImageFix"/>
<feColorMatrix in="SourceAlpha" type="matrix" values="0 0 0 0 0 0 0 0 0 0 0 0 0 0 0 0 0 0 127 0" result="hardAlpha"/>
<feOffset dy="4"/>
<feGaussianBlur stdDeviation="2"/>
<feComposite in2="hardAlpha" operator="out"/>
<feColorMatrix type="matrix" values="0 0 0 0 0 0 0 0 0 0 0 0 0 0 0 0 0 0 0.25 0"/>
<feBlend mode="normal" in2="BackgroundImageFix" result="effect1_dropShadow_418_664"/>
<feBlend mode="normal" in="SourceGraphic" in2="effect1_dropShadow_418_664" result="shape"/>
</filter>
<filter id="filter1_d_418_664" x="0" y="0" width="28" height="29" filterUnits="userSpaceOnUse" color-interpolation-filters="sRGB">
<feFlood flood-opacity="0" result="BackgroundImageFix"/>
<feColorMatrix in="SourceAlpha" type="matrix" values="0 0 0 0 0 0 0 0 0 0 0 0 0 0 0 0 0 0 127 0" result="hardAlpha"/>
<feOffset dy="4"/>
<feGaussianBlur stdDeviation="2"/>
<feComposite in2="hardAlpha" operator="out"/>
<feColorMatrix type="matrix" values="0 0 0 0 0 0 0 0 0 0 0 0 0 0 0 0 0 0 0.25 0"/>
<feBlend mode="normal" in2="BackgroundImageFix" result="effect1_dropShadow_418_664"/>
<feBlend mode="normal" in="SourceGraphic" in2="effect1_dropShadow_418_664" result="shape"/>
</filter>
<filter id="filter2_d_418_664" x="206" y="10" width="15" height="70" filterUnits="userSpaceOnUse" color-interpolation-filters="sRGB">
<feFlood flood-opacity="0" result="BackgroundImageFix"/>
<feColorMatrix in="SourceAlpha" type="matrix" values="0 0 0 0 0 0 0 0 0 0 0 0 0 0 0 0 0 0 127 0" result="hardAlpha"/>
<feOffset dy="4"/>
<feGaussianBlur stdDeviation="2"/>
<feComposite in2="hardAlpha" operator="out"/>
<feColorMatrix type="matrix" values="0 0 0 0 0 0 0 0 0 0 0 0 0 0 0 0 0 0 0.25 0"/>
<feBlend mode="normal" in2="BackgroundImageFix" result="effect1_dropShadow_418_664"/>
<feBlend mode="normal" in="SourceGraphic" in2="effect1_dropShadow_418_664" result="shape"/>
</filter>
<filter id="filter3_d_418_664" x="200" y="0" width="28" height="29" filterUnits="userSpaceOnUse" color-interpolation-filters="sRGB">
<feFlood flood-opacity="0" result="BackgroundImageFix"/>
<feColorMatrix in="SourceAlpha" type="matrix" values="0 0 0 0 0 0 0 0 0 0 0 0 0 0 0 0 0 0 127 0" result="hardAlpha"/>
<feOffset dy="4"/>
<feGaussianBlur stdDeviation="2"/>
<feComposite in2="hardAlpha" operator="out"/>
<feColorMatrix type="matrix" values="0 0 0 0 0 0 0 0 0 0 0 0 0 0 0 0 0 0 0.25 0"/>
<feBlend mode="normal" in2="BackgroundImageFix" result="effect1_dropShadow_418_664"/>
<feBlend mode="normal" in="SourceGraphic" in2="effect1_dropShadow_418_664" result="shape"/>
</filter>
</defs>
</svg>
