<svg width="228" height="95" viewBox="0 0 228 95" fill="none" xmlns="http://www.w3.org/2000/svg">
<g filter="url(#filter0_d_581_1165)">
<rect x="10" width="7" height="74.9167" fill="white"/>
<rect x="10.5" y="0.5" width="6" height="73.9167" stroke="black"/>
</g>
<g filter="url(#filter1_d_581_1165)">
<ellipse rx="10" ry="12.6875" transform="matrix(1 0 0 -1 14 74.3125)" fill="white"/>
<path d="M23.5 74.3125C23.5 67.4641 19.1423 62.125 14 62.125C8.85766 62.125 4.5 67.4641 4.5 74.3125C4.5 81.1609 8.85766 86.5 14 86.5C19.1423 86.5 23.5 81.1609 23.5 74.3125Z" stroke="black"/>
</g>
<g filter="url(#filter2_d_581_1165)">
<rect x="210" width="7" height="74.9167" fill="white"/>
<rect x="210.5" y="0.5" width="6" height="73.9167" stroke="black"/>
</g>
<g filter="url(#filter3_d_581_1165)">
<ellipse rx="10" ry="12.6875" transform="matrix(1 0 0 -1 214 74.3125)" fill="white"/>
<path d="M223.5 74.3125C223.5 67.4641 219.142 62.125 214 62.125C208.858 62.125 204.5 67.4641 204.5 74.3125C204.5 81.1609 208.858 86.5 214 86.5C219.142 86.5 223.5 81.1609 223.5 74.3125Z" stroke="black"/>
</g>
<defs>
<filter id="filter0_d_581_1165" x="6" y="0" width="15" height="82.917" filterUnits="userSpaceOnUse" color-interpolation-filters="sRGB">
<feFlood flood-opacity="0" result="BackgroundImageFix"/>
<feColorMatrix in="SourceAlpha" type="matrix" values="0 0 0 0 0 0 0 0 0 0 0 0 0 0 0 0 0 0 127 0" result="hardAlpha"/>
<feOffset dy="4"/>
<feGaussianBlur stdDeviation="2"/>
<feComposite in2="hardAlpha" operator="out"/>
<feColorMatrix type="matrix" values="0 0 0 0 0 0 0 0 0 0 0 0 0 0 0 0 0 0 0.25 0"/>
<feBlend mode="normal" in2="BackgroundImageFix" result="effect1_dropShadow_581_1165"/>
<feBlend mode="normal" in="SourceGraphic" in2="effect1_dropShadow_581_1165" result="shape"/>
</filter>
<filter id="filter1_d_581_1165" x="0" y="61.625" width="28" height="33.375" filterUnits="userSpaceOnUse" color-interpolation-filters="sRGB">
<feFlood flood-opacity="0" result="BackgroundImageFix"/>
<feColorMatrix in="SourceAlpha" type="matrix" values="0 0 0 0 0 0 0 0 0 0 0 0 0 0 0 0 0 0 127 0" result="hardAlpha"/>
<feOffset dy="4"/>
<feGaussianBlur stdDeviation="2"/>
<feComposite in2="hardAlpha" operator="out"/>
<feColorMatrix type="matrix" values="0 0 0 0 0 0 0 0 0 0 0 0 0 0 0 0 0 0 0.25 0"/>
<feBlend mode="normal" in2="BackgroundImageFix" result="effect1_dropShadow_581_1165"/>
<feBlend mode="normal" in="SourceGraphic" in2="effect1_dropShadow_581_1165" result="shape"/>
</filter>
<filter id="filter2_d_581_1165" x="206" y="0" width="15" height="82.917" filterUnits="userSpaceOnUse" color-interpolation-filters="sRGB">
<feFlood flood-opacity="0" result="BackgroundImageFix"/>
<feColorMatrix in="SourceAlpha" type="matrix" values="0 0 0 0 0 0 0 0 0 0 0 0 0 0 0 0 0 0 127 0" result="hardAlpha"/>
<feOffset dy="4"/>
<feGaussianBlur stdDeviation="2"/>
<feComposite in2="hardAlpha" operator="out"/>
<feColorMatrix type="matrix" values="0 0 0 0 0 0 0 0 0 0 0 0 0 0 0 0 0 0 0.25 0"/>
<feBlend mode="normal" in2="BackgroundImageFix" result="effect1_dropShadow_581_1165"/>
<feBlend mode="normal" in="SourceGraphic" in2="effect1_dropShadow_581_1165" result="shape"/>
</filter>
<filter id="filter3_d_581_1165" x="200" y="61.625" width="28" height="33.375" filterUnits="userSpaceOnUse" color-interpolation-filters="sRGB">
<feFlood flood-opacity="0" result="BackgroundImageFix"/>
<feColorMatrix in="SourceAlpha" type="matrix" values="0 0 0 0 0 0 0 0 0 0 0 0 0 0 0 0 0 0 127 0" result="hardAlpha"/>
<feOffset dy="4"/>
<feGaussianBlur stdDeviation="2"/>
<feComposite in2="hardAlpha" operator="out"/>
<feColorMatrix type="matrix" values="0 0 0 0 0 0 0 0 0 0 0 0 0 0 0 0 0 0 0.25 0"/>
<feBlend mode="normal" in2="BackgroundImageFix" result="effect1_dropShadow_581_1165"/>
<feBlend mode="normal" in="SourceGraphic" in2="effect1_dropShadow_581_1165" result="shape"/>
</filter>
</defs>
</svg>
