<svg width="344" height="300" viewBox="0 0 344 300" fill="none" xmlns="http://www.w3.org/2000/svg">
<path d="M344 263.635H0V263.836H344V263.635Z" fill="#EBEBEB"/>
<path d="M309.529 276.592H286.742V276.793H309.529V276.592Z" fill="#EBEBEB"/>
<path d="M227.877 278.781H221.898V278.983H227.877V278.781Z" fill="#EBEBEB"/>
<path d="M286.054 269.119H272.852V269.32H286.054V269.119Z" fill="#EBEBEB"/>
<path d="M65.8085 270.472H36.0938V270.673H65.8085V270.472Z" fill="#EBEBEB"/>
<path d="M76.2886 270.472H71.9336V270.673H76.2886V270.472Z" fill="#EBEBEB"/>
<path d="M154.905 273.87H90.4531V274.071H154.905V273.87Z" fill="#EBEBEB"/>
<path d="M163.061 227.722H30.2146C29.1739 227.72 28.1764 227.234 27.4412 226.372C26.7059 225.51 26.293 224.342 26.293 223.124V4.55766C26.302 3.3466 26.719 2.18862 27.4532 1.33526C28.1875 0.481902 29.1798 0.00207461 30.2146 0H163.061C164.102 0 165.102 0.484422 165.838 1.3467C166.575 2.20898 166.989 3.37847 166.989 4.59792V223.124C166.989 224.343 166.575 225.513 165.838 226.375C165.102 227.237 164.102 227.722 163.061 227.722ZM30.2146 0.161049C29.2195 0.163182 28.2658 0.627334 27.5628 1.45163C26.8598 2.27592 26.465 3.393 26.465 4.55766V223.124C26.465 224.288 26.8598 225.406 27.5628 226.23C28.2658 227.054 29.2195 227.518 30.2146 227.52H163.061C164.056 227.518 165.011 227.054 165.715 226.23C166.419 225.406 166.815 224.289 166.817 223.124V4.55766C166.815 3.39226 166.419 2.2752 165.715 1.45114C165.011 0.627072 164.056 0.163177 163.061 0.161049H30.2146Z" fill="#EBEBEB"/>
<path d="M311.879 227.722H179.026C177.985 227.72 176.987 227.234 176.25 226.373C175.514 225.511 175.099 224.343 175.098 223.124V4.55766C175.109 3.34586 175.527 2.1879 176.262 1.33476C176.998 0.481621 177.991 0.00205198 179.026 0H311.879C312.913 0.00419087 313.903 0.484955 314.636 1.33809C315.369 2.19122 315.785 3.34799 315.794 4.55766V223.124C315.794 224.34 315.382 225.508 314.648 226.369C313.914 227.231 312.918 227.717 311.879 227.722ZM179.026 0.161049C178.03 0.163177 177.076 0.627072 176.372 1.45114C175.668 2.2752 175.271 3.39226 175.27 4.55766V223.124C175.271 224.289 175.668 225.406 176.372 226.23C177.076 227.054 178.03 227.518 179.026 227.52H311.879C312.875 227.518 313.829 227.054 314.533 226.23C315.237 225.406 315.634 224.289 315.635 223.124V4.55766C315.634 3.39226 315.237 2.2752 314.533 1.45114C313.829 0.627072 312.875 0.163177 311.879 0.161049H179.026Z" fill="#EBEBEB"/>
<path d="M131.836 36.4297H66.7031V208.163H131.836V36.4297Z" fill="#F5F5F5"/>
<path d="M129.375 204.941V39.6494L69.1544 39.6494V204.941H129.375Z" fill="#FAFAFA"/>
<path d="M99.961 38.8203H98.5781V206.552H99.961V38.8203Z" fill="#F5F5F5"/>
<path d="M133.335 34.1904H65.1953V42.275H133.335V34.1904Z" fill="#F5F5F5"/>
<path d="M133.335 43.1689H65.1953V44.1272H133.335V43.1689Z" fill="#F5F5F5"/>
<path d="M133.335 45.3428H65.1953V46.301H133.335V45.3428Z" fill="#F5F5F5"/>
<path d="M133.335 47.5176H65.1953V48.4758H133.335V47.5176Z" fill="#F5F5F5"/>
<path d="M133.335 49.6914H65.1953V50.6496H133.335V49.6914Z" fill="#F5F5F5"/>
<path d="M133.335 51.8652H65.1953V52.8235H133.335V51.8652Z" fill="#F5F5F5"/>
<path d="M133.335 54.0391H65.1953V54.9973H133.335V54.0391Z" fill="#F5F5F5"/>
<path d="M133.335 56.2139H65.1953V57.1721H133.335V56.2139Z" fill="#F5F5F5"/>
<path d="M133.335 58.3877H65.1953V59.3459H133.335V58.3877Z" fill="#F5F5F5"/>
<path d="M133.335 60.5615H65.1953V61.5197H133.335V60.5615Z" fill="#F5F5F5"/>
<path d="M133.335 62.7363H65.1953V63.6946H133.335V62.7363Z" fill="#F5F5F5"/>
<path d="M133.335 64.9102H65.1953V65.8684H133.335V64.9102Z" fill="#F5F5F5"/>
<path d="M133.335 67.085H65.1953V68.0432H133.335V67.085Z" fill="#F5F5F5"/>
<path d="M133.335 69.2588H65.1953V70.217H133.335V69.2588Z" fill="#F5F5F5"/>
<path d="M133.335 71.4336H65.1953V72.3918H133.335V71.4336Z" fill="#F5F5F5"/>
<path d="M133.335 73.6074H65.1953V74.5657H133.335V73.6074Z" fill="#F5F5F5"/>
<path d="M133.335 75.7891H65.1953V76.7473H133.335V75.7891Z" fill="#F5F5F5"/>
<path d="M133.335 77.9629H65.1953V78.9211H133.335V77.9629Z" fill="#F5F5F5"/>
<path d="M133.335 80.1367H65.1953V81.095H133.335V80.1367Z" fill="#F5F5F5"/>
<path d="M208.949 36.4297H143.816V208.163H208.949V36.4297Z" fill="#F5F5F5"/>
<path d="M206.492 204.941V39.6494L146.272 39.6494V204.941H206.492Z" fill="#FAFAFA"/>
<path d="M177.074 38.8203H175.691V206.552H177.074V38.8203Z" fill="#F5F5F5"/>
<path d="M210.452 34.1904H142.312V42.275H210.452V34.1904Z" fill="#F5F5F5"/>
<path d="M210.452 43.1689H142.312V44.1272H210.452V43.1689Z" fill="#F5F5F5"/>
<path d="M210.452 45.3428H142.312V46.301H210.452V45.3428Z" fill="#F5F5F5"/>
<path d="M210.452 47.5176H142.312V48.4758H210.452V47.5176Z" fill="#F5F5F5"/>
<path d="M210.452 49.6914H142.312V50.6496H210.452V49.6914Z" fill="#F5F5F5"/>
<path d="M210.452 51.8652H142.312V52.8235H210.452V51.8652Z" fill="#F5F5F5"/>
<path d="M210.452 54.0391H142.312V54.9973H210.452V54.0391Z" fill="#F5F5F5"/>
<path d="M210.452 56.2139H142.312V57.1721H210.452V56.2139Z" fill="#F5F5F5"/>
<path d="M210.452 58.3877H142.312V59.3459H210.452V58.3877Z" fill="#F5F5F5"/>
<path d="M210.452 60.5615H142.312V61.5197H210.452V60.5615Z" fill="#F5F5F5"/>
<path d="M210.452 62.7363H142.312V63.6946H210.452V62.7363Z" fill="#F5F5F5"/>
<path d="M210.452 64.9102H142.312V65.8684H210.452V64.9102Z" fill="#F5F5F5"/>
<path d="M210.452 67.085H142.312V68.0432H210.452V67.085Z" fill="#F5F5F5"/>
<path d="M210.452 69.2588H142.312V70.217H210.452V69.2588Z" fill="#F5F5F5"/>
<path d="M210.452 71.4336H142.312V72.3918H210.452V71.4336Z" fill="#F5F5F5"/>
<path d="M210.452 73.6074H142.312V74.5657H210.452V73.6074Z" fill="#F5F5F5"/>
<path d="M210.452 75.7891H142.312V76.7473H210.452V75.7891Z" fill="#F5F5F5"/>
<path d="M210.452 77.9629H142.312V78.9211H210.452V77.9629Z" fill="#F5F5F5"/>
<path d="M210.452 80.1367H142.312V81.095H210.452V80.1367Z" fill="#F5F5F5"/>
<path d="M286.063 36.4297H220.93V208.163H286.063V36.4297Z" fill="#F5F5F5"/>
<path d="M283.602 204.941V39.6494L223.381 39.6494V204.941H283.602Z" fill="#FAFAFA"/>
<path d="M254.188 38.8203H252.805V206.552H254.188V38.8203Z" fill="#F5F5F5"/>
<path d="M287.565 34.1904H219.426V42.275H287.565V34.1904Z" fill="#F5F5F5"/>
<path d="M287.565 43.1689H219.426V44.1272H287.565V43.1689Z" fill="#F5F5F5"/>
<path d="M287.565 45.3428H219.426V46.301H287.565V45.3428Z" fill="#F5F5F5"/>
<path d="M287.565 47.5176H219.426V48.4758H287.565V47.5176Z" fill="#F5F5F5"/>
<path d="M287.565 49.6914H219.426V50.6496H287.565V49.6914Z" fill="#F5F5F5"/>
<path d="M287.565 51.8652H219.426V52.8235H287.565V51.8652Z" fill="#F5F5F5"/>
<path d="M287.565 54.0391H219.426V54.9973H287.565V54.0391Z" fill="#F5F5F5"/>
<path d="M287.565 56.2139H219.426V57.1721H287.565V56.2139Z" fill="#F5F5F5"/>
<path d="M287.565 58.3877H219.426V59.3459H287.565V58.3877Z" fill="#F5F5F5"/>
<path d="M287.565 60.5615H219.426V61.5197H287.565V60.5615Z" fill="#F5F5F5"/>
<path d="M287.565 62.7363H219.426V63.6946H287.565V62.7363Z" fill="#F5F5F5"/>
<path d="M287.565 64.9102H219.426V65.8684H287.565V64.9102Z" fill="#F5F5F5"/>
<path d="M287.565 67.085H219.426V68.0432H287.565V67.085Z" fill="#F5F5F5"/>
<path d="M287.565 69.2588H219.426V70.217H287.565V69.2588Z" fill="#F5F5F5"/>
<path d="M287.565 71.4336H219.426V72.3918H287.565V71.4336Z" fill="#F5F5F5"/>
<path d="M287.565 73.6074H219.426V74.5657H287.565V73.6074Z" fill="#F5F5F5"/>
<path d="M287.565 75.7891H219.426V76.7473H287.565V75.7891Z" fill="#F5F5F5"/>
<path d="M287.565 77.9629H219.426V78.9211H287.565V77.9629Z" fill="#F5F5F5"/>
<path d="M287.565 80.1367H219.426V81.095H287.565V80.1367Z" fill="#F5F5F5"/>
<path d="M283.354 242.434C283.354 242.434 286.835 233.536 282.859 224.767C278.882 215.998 277.719 213.936 280.258 212.133C282.797 210.329 283.96 219.154 283.96 219.154C285.217 215.172 285.348 210.821 284.331 206.746C282.57 200.4 281.462 190.061 283.87 188.958C286.278 187.855 284.331 201.842 286.43 206.625C287.501 203.274 288.195 199.774 288.494 196.213C288.783 191.116 288.328 182.975 290.234 180.914C292.14 178.852 293.358 180.269 291.486 191.519C290.362 198.239 289.74 205.061 289.629 211.907C289.629 211.907 293.757 197.155 296.543 196.72C299.33 196.286 299.295 201.069 296.935 205.216C294.575 209.363 289.98 216.779 289.23 220.604C289.23 220.604 293.771 209.5 297.85 212.906C301.93 216.312 294.293 223.011 290.895 225.435C287.496 227.859 285.129 243.046 285.129 243.046L283.354 242.434Z" fill="#E0E0E0"/>
<path d="M286.107 246.081C286.107 246.081 282.716 237.126 286.795 228.43C290.875 219.733 292.045 217.68 289.547 215.844C287.05 214.008 285.777 222.793 285.777 222.793C285.777 222.793 283.713 216.689 285.53 210.376C287.346 204.063 288.577 193.748 286.176 192.597C283.775 191.445 285.585 205.48 283.424 210.215C282.392 206.839 281.74 203.32 281.484 199.747C281.25 194.65 281.787 186.517 279.902 184.399C278.017 182.281 276.785 183.699 278.526 194.98C279.58 201.718 280.133 208.551 280.177 215.401C280.177 215.401 276.193 200.576 273.421 200.101C270.648 199.626 270.607 204.401 272.939 208.589C275.271 212.776 279.778 220.281 280.507 224.114C280.507 224.114 276.083 212.929 271.969 216.263C267.855 219.596 275.409 226.433 278.794 228.913C282.179 231.393 284.381 246.628 284.381 246.628L286.107 246.081Z" fill="#EBEBEB"/>
<path d="M270.453 239.703H298.482L296.212 263.168H272.724L270.453 239.703Z" fill="#EBEBEB"/>
<path d="M60.3754 238.028C60.2722 237.223 57.9536 218.469 62.6045 211.987C63.0691 211.305 63.6565 210.752 64.3249 210.366C64.9932 209.981 65.7261 209.772 66.4711 209.757C75.8692 209.499 77.1557 218.34 77.1695 218.429L76.0549 218.63C76.0137 218.308 74.8991 210.836 66.4986 211.069C65.9124 211.079 65.3356 211.242 64.8105 211.548C64.2854 211.853 63.8255 212.292 63.4645 212.833C59.1301 218.864 61.4624 237.642 61.4831 237.835L60.3754 238.028Z" fill="#EBEBEB"/>
<path d="M59.8172 237.176L58.6957 237.135C58.6957 236.958 59.0673 219.839 51.857 216.304C44.7981 212.841 41.6196 219.96 41.4889 220.266L40.4844 219.678C40.5257 219.589 44.2477 211.15 52.2905 215.096C60.2093 218.977 59.8585 236.435 59.8172 237.176Z" fill="#EBEBEB"/>
<path d="M59.8566 238.519C59.8566 238.245 59.7878 211.141 55.2814 203.25C50.9539 195.648 43.9638 199.224 43.668 199.385L43.207 198.193C43.2896 198.145 51.3461 193.982 56.2171 202.525C60.9093 210.771 60.9781 237.384 60.9781 238.519H59.8566Z" fill="#EBEBEB"/>
<path d="M67.8239 210.409C67.8239 210.409 63.6959 212.18 64.9412 216.359C66.1864 220.539 79.1208 227.415 79.1208 227.415C79.1208 227.415 84.5492 221.585 79.5612 212.116C74.5732 202.646 67.934 207.421 67.8239 210.409Z" fill="#E0E0E0"/>
<path d="M55.0407 201.826C55.0407 201.826 57.9579 201.463 57.7239 199.41C57.49 197.357 46.3995 191.986 39.8359 200.634C39.8359 200.634 44.0259 209.057 50.0803 209.161C56.1347 209.266 55.0407 201.826 55.0407 201.826Z" fill="#E0E0E0"/>
<path d="M52.074 215.699C52.074 215.699 54.083 213.799 51.9158 212.872C49.7486 211.946 39.0984 212.212 38.9883 224.548C38.9883 224.548 51.3723 226.964 52.9203 222.262C54.4683 217.559 52.074 215.699 52.074 215.699Z" fill="#E0E0E0"/>
<path d="M70.0252 263.168H50.7818L48.7109 238.52H72.1029L70.0252 263.168Z" fill="#EBEBEB"/>
<path d="M73.1249 235.798H47.6758V241.241H73.1249V235.798Z" fill="#E0E0E0"/>
<path d="M171.998 300C245.671 300 305.394 295.919 305.394 290.885C305.394 285.851 245.671 281.77 171.998 281.77C98.3251 281.77 38.6016 285.851 38.6016 290.885C38.6016 295.919 98.3251 300 171.998 300Z" fill="#F5F5F5"/>
<path d="M219.406 114.119C219.406 114.119 219.406 121.833 217.342 124.829C215.278 127.824 204.463 134.065 204.463 134.065C204.463 134.065 198.023 134.065 197.431 134.065C196.84 134.065 195.195 137.503 195.195 137.503L197.947 141.304C197.947 141.304 205.935 139.492 205.206 136.779C205.206 136.779 215.822 131.947 218.814 129.491C221.807 127.035 224.078 116.156 224.078 116.156L219.406 114.119Z" fill="#E4897B"/>
<path d="M222.92 92.1283C219.714 90.7675 217.891 116.479 217.891 116.479L226.147 119.853C226.147 119.853 229.112 94.7776 222.92 92.1283Z" fill="#407BFF"/>
<path opacity="0.4" d="M226.587 114.41C226.381 117.631 226.119 119.853 226.119 119.853L217.863 116.479C217.863 116.479 219.68 90.76 222.886 92.1289C225.046 93.055 226.092 96.6946 226.539 101.051C226.909 105.493 226.925 109.965 226.587 114.41Z" fill="white"/>
<path opacity="0.2" d="M226.585 114.41C222.753 109.135 225.209 99.8105 225.209 99.8105C225.708 100.133 226.157 100.553 226.537 101.051C226.907 105.492 226.923 109.964 226.585 114.41Z" fill="black"/>
<path d="M258.145 283.445H265.121C265.234 283.446 265.344 283.493 265.433 283.576C265.521 283.659 265.583 283.774 265.609 283.904L266.738 289.886C266.761 290.014 266.762 290.145 266.742 290.274C266.722 290.402 266.68 290.524 266.619 290.633C266.559 290.742 266.48 290.836 266.388 290.91C266.296 290.984 266.193 291.035 266.084 291.062H265.898C263.642 291.062 261.997 290.853 259.17 290.853C257.422 290.853 252.159 291.07 249.751 291.07C247.343 291.07 246.999 288.284 248.01 288.026C252.434 286.899 255.764 285.337 257.181 283.847C257.446 283.573 257.791 283.429 258.145 283.445Z" fill="#263238"/>
<path d="M228.569 283.211H235.538C235.653 283.21 235.764 283.255 235.853 283.339C235.942 283.423 236.003 283.54 236.027 283.67L237.162 289.653C237.191 289.799 237.19 289.95 237.161 290.095C237.132 290.24 237.074 290.376 236.993 290.491C236.912 290.606 236.809 290.698 236.693 290.759C236.577 290.821 236.45 290.85 236.323 290.845C234.066 290.805 232.422 290.644 229.587 290.644C227.847 290.644 222.583 290.853 220.169 290.853C217.754 290.853 217.417 288.067 218.435 287.817C222.859 286.69 226.189 285.12 227.606 283.638C227.868 283.355 228.213 283.202 228.569 283.211Z" fill="#263238"/>
<path opacity="0.1" d="M258.145 283.445H265.121C265.234 283.446 265.344 283.493 265.433 283.576C265.521 283.659 265.583 283.774 265.609 283.904L266.738 289.886C266.761 290.014 266.762 290.145 266.742 290.274C266.722 290.402 266.68 290.524 266.619 290.633C266.559 290.742 266.48 290.836 266.388 290.91C266.296 290.984 266.193 291.035 266.084 291.062H265.898C263.642 291.062 261.997 290.853 259.17 290.853C257.422 290.853 252.159 291.07 249.751 291.07C247.343 291.07 246.999 288.284 248.01 288.026C252.434 286.899 255.764 285.337 257.181 283.847C257.446 283.573 257.791 283.429 258.145 283.445Z" fill="white"/>
<path opacity="0.1" d="M228.569 283.211H235.538C235.653 283.21 235.764 283.255 235.853 283.339C235.942 283.423 236.003 283.54 236.027 283.67L237.162 289.653C237.191 289.799 237.19 289.95 237.161 290.095C237.132 290.24 237.074 290.376 236.993 290.491C236.912 290.606 236.809 290.698 236.693 290.759C236.577 290.821 236.45 290.85 236.323 290.845C234.066 290.805 232.422 290.644 229.587 290.644C227.847 290.644 222.583 290.853 220.169 290.853C217.754 290.853 217.417 288.067 218.435 287.817C222.859 286.69 226.189 285.12 227.606 283.638C227.868 283.355 228.213 283.202 228.569 283.211Z" fill="white"/>
<path d="M261.846 132.133H231.374C228.478 150.653 219.41 225.822 225.918 284.194H236.238C236.238 284.194 235.309 195.545 244.384 166.895C245.43 182.195 256.08 284.138 256.08 284.138H266.579C266.579 284.138 265.01 245.8 263.435 209.589C262.451 186.817 261.887 136.819 261.846 132.133Z" fill="#407BFF"/>
<path opacity="0.2" d="M261.846 132.133H231.374C228.478 150.653 219.41 225.822 225.918 284.194H236.238C236.238 284.194 235.309 195.545 244.384 166.895C245.43 182.195 256.08 284.138 256.08 284.138H266.579C266.579 284.138 265.01 245.8 263.435 209.589C262.451 186.817 261.887 136.819 261.846 132.133Z" fill="white"/>
<path opacity="0.2" d="M244.375 166.902C242.878 171.923 241.741 177.081 240.976 182.323C240.123 168.682 243.563 154.212 243.563 154.212L244.375 166.902Z" fill="black"/>
<path d="M261.923 133.252L230.722 134.211C231.589 113.274 223.154 100.06 222.081 93.6346C222.003 93.1897 222.078 92.7268 222.289 92.3457C222.5 91.9646 222.83 91.6959 223.209 91.5974C224.757 91.2028 226.346 90.8646 227.956 90.5747C235.212 89.3704 242.534 88.7945 249.862 88.8515C253.11 88.8515 252.394 88.9642 252.394 88.9642C257.898 94.0211 262.239 121.673 261.923 133.252Z" fill="#407BFF"/>
<path opacity="0.4" d="M261.923 133.252L230.722 134.211C231.589 113.274 223.154 100.06 222.081 93.6346C222.003 93.1897 222.078 92.7268 222.289 92.3457C222.5 91.9646 222.83 91.6959 223.209 91.5974C224.757 91.2028 226.346 90.8646 227.956 90.5747C235.212 89.3704 242.534 88.7945 249.862 88.8515C253.11 88.8515 252.394 88.9642 252.394 88.9642C257.898 94.0211 262.239 121.673 261.923 133.252Z" fill="white"/>
<path d="M242.755 90.0752C242.067 94.8664 235.621 99.6656 235.621 99.6656C235.621 99.6656 232.311 95.3898 232.043 92.1285C232.455 91.6563 232.803 91.1132 233.075 90.5181C233.281 90.0847 233.387 89.5965 233.385 89.1008C233.308 88.1683 233.046 87.2696 232.621 86.4758C232.396 86.0064 232.146 85.5545 231.871 85.123L236.364 78.6005L237.396 77.0947C237.444 77.5457 237.506 78.0449 237.581 78.5683C237.761 79.738 237.99 80.8964 238.269 82.0389C239.054 85.4048 240.45 88.8673 242.755 90.0752Z" fill="#E4897B"/>
<path opacity="0.2" d="M238.242 82.0458C238.015 85.2668 236.983 89.7197 233.075 90.525C233.281 90.0916 233.387 89.6035 233.385 89.1078C233.308 88.1752 233.046 87.2765 232.621 86.4827C232.396 86.0133 232.146 85.5614 231.871 85.1299L236.364 78.6074C236.756 78.6074 237.169 78.6074 237.581 78.6074C237.752 79.7657 237.973 80.9133 238.242 82.0458Z" fill="black"/>
<path d="M220.067 65.2815C220.067 65.2815 219.963 74.3807 224.408 77.1587C228.852 79.9368 226.898 63.3408 226.898 63.3408L220.067 65.2815Z" fill="#263238"/>
<path d="M224.055 82.4815C224.199 82.7591 224.355 83.0279 224.523 83.2867C225.106 84.1945 225.832 84.9627 226.662 85.5494C227.504 86.1585 228.439 86.5714 229.414 86.7653C231.167 87.1338 232.975 86.7263 234.485 85.6219C235.558 84.8175 236.422 83.6839 236.982 82.3446C238.799 78.2137 237.753 74.5982 236.398 68.3254C236.101 66.8548 235.487 65.4977 234.615 64.383C233.744 63.2684 232.643 62.4333 231.417 61.9571C230.192 61.481 228.883 61.3796 227.615 61.6627C226.347 61.9458 225.161 62.6039 224.172 63.5744C219.672 67.9388 221.427 77.3601 224.055 82.4815Z" fill="#E4897B"/>
<path d="M228.867 73.0115C229.026 73.4947 228.867 74.002 228.599 74.1066C228.331 74.2113 227.987 73.8812 227.842 73.3819C227.698 72.8827 227.842 72.3915 228.111 72.2868C228.379 72.1821 228.723 72.472 228.867 73.0115Z" fill="#263238"/>
<path d="M224.018 74.8076C224.062 74.9001 224.09 75.0019 224.1 75.107C224.11 75.2121 224.102 75.3186 224.078 75.4203C224.053 75.522 224.011 75.6169 223.955 75.6997C223.898 75.7825 223.829 75.8515 223.749 75.9027C223.474 76.0074 223.137 75.6773 223 75.178C222.862 74.6788 223 74.1876 223.261 74.0829C223.522 73.9782 223.887 74.3325 224.018 74.8076Z" fill="#263238"/>
<path d="M225.618 74.4854C225.523 76.2083 225.224 77.9074 224.73 79.5342C225.092 79.6742 225.476 79.7187 225.854 79.6644C226.233 79.6101 226.596 79.4584 226.918 79.2202L225.618 74.4854Z" fill="#DE5753"/>
<path d="M221.547 73.0442C221.594 73.0554 221.642 73.0525 221.688 73.0355C221.734 73.0186 221.775 72.9884 221.808 72.9476C222.017 72.6468 222.284 72.4072 222.586 72.2479C222.888 72.0885 223.218 72.0138 223.549 72.0296C223.618 72.0403 223.688 72.0183 223.744 71.9684C223.799 71.9186 223.835 71.845 223.844 71.7639C223.854 71.6827 223.835 71.6006 223.792 71.5357C223.75 71.4708 223.687 71.4283 223.617 71.4176C223.199 71.3858 222.78 71.4715 222.396 71.6676C222.012 71.8637 221.674 72.1645 221.409 72.5449C221.385 72.5727 221.365 72.6059 221.352 72.6425C221.339 72.6792 221.332 72.7186 221.332 72.7583C221.332 72.7981 221.339 72.8375 221.352 72.8741C221.365 72.9108 221.385 72.944 221.409 72.9717C221.447 73.0125 221.495 73.0379 221.547 73.0442Z" fill="#263238"/>
<path d="M229.208 70.3874C229.257 70.3647 229.3 70.3255 229.331 70.2746C229.345 70.2376 229.352 70.1979 229.353 70.1576C229.353 70.1173 229.347 70.0773 229.334 70.0399C229.321 70.0025 229.302 69.9684 229.278 69.9396C229.254 69.9108 229.225 69.8878 229.194 69.872C228.81 69.6694 228.391 69.5775 227.97 69.6041C227.55 69.6307 227.142 69.7751 226.779 70.025C226.75 70.0477 226.726 70.0767 226.707 70.1104C226.688 70.1442 226.675 70.182 226.669 70.2216C226.662 70.2613 226.663 70.3021 226.67 70.3416C226.677 70.3811 226.691 70.4185 226.71 70.4518C226.729 70.4852 226.754 70.5138 226.783 70.536C226.812 70.5582 226.844 70.5734 226.878 70.5809C226.912 70.5884 226.947 70.5879 226.981 70.5796C227.014 70.5713 227.046 70.5552 227.075 70.5323C227.366 70.346 227.69 70.241 228.022 70.2256C228.354 70.2103 228.684 70.2849 228.987 70.4437C229.025 70.4548 229.065 70.4554 229.103 70.4456C229.141 70.4359 229.177 70.4159 229.208 70.3874Z" fill="#263238"/>
<path d="M230.445 62.0683L230.782 64.9108C231.23 65.0108 231.629 65.3039 231.9 65.7319C232.172 66.16 232.296 66.6917 232.248 67.2218C232.014 69.7744 233.947 73.0196 235.791 73.9859C235.791 73.9859 235.612 72.9632 236.39 72.9793C237.167 72.9954 238.151 78.2858 237.305 81.2169C237.305 81.2169 238.928 78.3019 238.894 72.4398C238.86 67.0125 238.041 62.7367 236.706 61.0537L230.445 62.0683Z" fill="#263238"/>
<path d="M240.062 72.5285C239.855 74.1369 239.113 75.5842 237.998 76.5547C236.512 77.819 235.122 76.442 234.991 74.4047C234.888 72.5849 235.521 69.686 237.282 69.2432C239.043 68.8003 240.296 70.5477 240.062 72.5285Z" fill="#E4897B"/>
<path d="M228.429 82.2398C228.388 82.24 228.348 82.2219 228.317 82.189C228.287 82.1562 228.268 82.1111 228.264 82.0627C228.26 82.0365 228.261 82.0096 228.267 81.9838C228.273 81.9581 228.283 81.934 228.297 81.9134C228.312 81.8928 228.33 81.876 228.35 81.8642C228.37 81.8525 228.393 81.846 228.416 81.8453C228.91 81.7803 229.363 81.4908 229.677 81.039C229.991 80.5873 230.141 80.0093 230.094 79.4295C230.092 79.4031 230.095 79.3765 230.102 79.3512C230.109 79.3259 230.12 79.3025 230.135 79.2823C230.149 79.2621 230.167 79.2455 230.188 79.2335C230.208 79.2214 230.23 79.2142 230.252 79.2121C230.298 79.2097 230.342 79.2275 230.377 79.2619C230.411 79.2963 230.433 79.3447 230.438 79.3973C230.438 79.3973 230.555 81.9983 228.45 82.2479L228.429 82.2398Z" fill="#263238"/>
<path d="M237.372 62.1973C237.372 62.1973 237.103 58.4046 231.592 57.1484C226.082 55.8922 221.52 60.8203 217.709 59.4434C213.897 58.0664 216.133 68.0675 223.323 66.9562C228.162 66.0868 232.884 64.4872 237.372 62.1973Z" fill="#263238"/>
<path opacity="0.2" d="M249.138 97.5801C249.138 97.5801 246.516 111.543 245.581 115.843C243.702 124.548 234.676 133.615 234.676 133.615C234.676 133.615 240.304 132.077 246.22 130.901C253.548 129.451 260.414 117.631 256.307 101.912L249.138 97.5801Z" fill="black"/>
<path d="M248.919 110.955C248.919 110.955 248.919 118.669 246.855 121.665C244.791 124.66 233.934 130.901 233.934 130.901H226.924C226.332 130.901 224.688 134.339 224.688 134.339L227.44 138.14C227.44 138.14 235.427 136.328 234.698 133.615C234.698 133.615 245.314 128.783 248.307 126.327C251.299 123.871 253.57 112.992 253.57 112.992L248.919 110.955Z" fill="#E4897B"/>
<path d="M252.397 88.9639C249.191 87.595 247.375 113.314 247.375 113.314L255.631 116.688C255.631 116.688 258.603 91.6051 252.397 88.9639Z" fill="#407BFF"/>
<path opacity="0.4" d="M252.397 88.9639C249.191 87.595 247.375 113.314 247.375 113.314L255.631 116.688C255.631 116.688 258.603 91.6051 252.397 88.9639Z" fill="white"/>
<path d="M168.564 291.071C153.855 291.071 141.891 273.912 141.891 252.814C141.891 231.717 153.855 214.565 168.564 214.565C183.274 214.565 195.231 231.725 195.231 252.814C195.231 273.904 183.239 291.071 168.564 291.071ZM168.564 218.6C155.754 218.6 145.331 233.956 145.331 252.822C145.331 271.689 155.754 287.053 168.564 287.053C181.375 287.053 191.764 271.689 191.764 252.847C191.764 234.004 181.347 218.592 168.564 218.592V218.6Z" fill="#2E353A"/>
<path d="M168.566 218.221C155.563 218.221 144.988 233.754 144.988 252.846C144.988 271.938 155.563 287.471 168.566 287.471C181.569 287.471 192.137 271.938 192.137 252.846C192.137 233.754 181.535 218.221 168.566 218.221ZM173.382 246.847L182.856 232.715C184.384 235.286 185.579 238.108 186.399 241.089L174.111 248.554C173.915 247.96 173.67 247.388 173.382 246.847ZM169.254 243.401V223.052C171.493 223.182 173.681 223.88 175.666 225.097L170.396 243.763C170.029 243.59 169.646 243.468 169.254 243.401ZM167.878 243.401C167.515 243.459 167.16 243.567 166.819 243.723L161.686 224.92C163.616 223.797 165.725 223.161 167.878 223.052V243.401ZM163.028 248.393L150.816 240.663C151.637 237.827 152.795 235.141 154.256 232.683L163.716 246.847C163.441 247.338 163.202 247.856 163 248.393H163.028ZM162.594 249.955C162.454 250.629 162.366 251.316 162.333 252.009H149.103C149.15 248.696 149.574 245.407 150.362 242.225L162.594 249.955ZM162.305 253.651C162.34 254.302 162.418 254.948 162.539 255.584L150.258 263.048C149.537 259.985 149.149 256.828 149.103 253.651H162.305ZM162.959 257.146C163.144 257.728 163.374 258.288 163.647 258.821L154.214 272.977C152.688 270.404 151.495 267.582 150.671 264.602L162.959 257.146ZM167.851 262.267V282.624C165.609 282.495 163.419 281.797 161.431 280.578L166.702 261.913C167.081 262.075 167.476 262.183 167.878 262.235L167.851 262.267ZM169.227 262.267C169.586 262.204 169.939 262.096 170.279 261.945L175.37 280.74C173.455 281.857 171.364 282.498 169.227 282.624V262.267ZM174.043 257.267L186.261 265.005C185.44 267.841 184.282 270.527 182.821 272.985L173.382 258.789C173.648 258.294 173.878 257.774 174.07 257.235L174.043 257.267ZM174.476 255.713C174.621 255.036 174.715 254.347 174.758 253.651H187.968C187.92 256.966 187.497 260.259 186.709 263.443L174.476 255.713ZM174.758 252.041C174.717 251.393 174.637 250.75 174.517 250.116L186.798 242.652C187.524 245.711 187.917 248.866 187.968 252.041H174.758ZM181.989 231.378L172.515 245.559C172.232 245.198 171.919 244.871 171.579 244.584L176.85 225.927C178.818 227.378 180.56 229.21 182.003 231.346L181.989 231.378ZM160.455 225.742L165.539 244.512C165.172 244.819 164.833 245.169 164.527 245.559L155.067 231.346C156.568 229.107 158.396 227.198 160.468 225.709L160.455 225.742ZM155.054 274.322L164.541 260.093C164.824 260.454 165.138 260.78 165.477 261.067L160.207 279.725C158.242 278.268 156.505 276.43 155.067 274.29L155.054 274.322ZM176.588 279.958L171.504 261.196C171.871 260.889 172.21 260.539 172.515 260.15L181.989 274.33C180.492 276.553 178.667 278.445 176.602 279.918L176.588 279.958Z" fill="#407BFF"/>
<g opacity="0.2">
<path d="M168.566 218.221C155.563 218.221 144.988 233.754 144.988 252.846C144.988 271.938 155.563 287.471 168.566 287.471C181.569 287.471 192.137 271.938 192.137 252.846C192.137 233.754 181.535 218.221 168.566 218.221ZM173.382 246.847L182.856 232.715C184.384 235.286 185.579 238.108 186.399 241.089L174.111 248.554C173.915 247.96 173.67 247.388 173.382 246.847ZM169.254 243.401V223.052C171.493 223.182 173.681 223.88 175.666 225.097L170.396 243.763C170.029 243.59 169.646 243.468 169.254 243.401ZM167.878 243.401C167.515 243.459 167.16 243.567 166.819 243.723L161.686 224.92C163.616 223.797 165.725 223.161 167.878 223.052V243.401ZM163.028 248.393L150.816 240.663C151.637 237.827 152.795 235.141 154.256 232.683L163.716 246.847C163.441 247.338 163.202 247.856 163 248.393H163.028ZM162.594 249.955C162.454 250.629 162.366 251.316 162.333 252.009H149.103C149.15 248.696 149.574 245.407 150.362 242.225L162.594 249.955ZM162.305 253.651C162.34 254.302 162.418 254.948 162.539 255.584L150.258 263.048C149.537 259.985 149.149 256.828 149.103 253.651H162.305ZM162.959 257.146C163.144 257.728 163.374 258.288 163.647 258.821L154.214 272.977C152.688 270.404 151.495 267.582 150.671 264.602L162.959 257.146ZM167.851 262.267V282.624C165.609 282.495 163.419 281.797 161.431 280.578L166.702 261.913C167.081 262.075 167.476 262.183 167.878 262.235L167.851 262.267ZM169.227 262.267C169.586 262.204 169.939 262.096 170.279 261.945L175.37 280.74C173.455 281.857 171.364 282.498 169.227 282.624V262.267ZM174.043 257.267L186.261 265.005C185.44 267.841 184.282 270.527 182.821 272.985L173.382 258.789C173.648 258.294 173.878 257.774 174.07 257.235L174.043 257.267ZM174.476 255.713C174.621 255.036 174.715 254.347 174.758 253.651H187.968C187.92 256.966 187.497 260.259 186.709 263.443L174.476 255.713ZM174.758 252.041C174.717 251.393 174.637 250.75 174.517 250.116L186.798 242.652C187.524 245.711 187.917 248.866 187.968 252.041H174.758ZM181.989 231.378L172.515 245.559C172.232 245.198 171.919 244.871 171.579 244.584L176.85 225.927C178.818 227.378 180.56 229.21 182.003 231.346L181.989 231.378ZM160.455 225.742L165.539 244.512C165.172 244.819 164.833 245.169 164.527 245.559L155.067 231.346C156.568 229.107 158.396 227.198 160.468 225.709L160.455 225.742ZM155.054 274.322L164.541 260.093C164.824 260.454 165.138 260.78 165.477 261.067L160.207 279.725C158.242 278.268 156.505 276.43 155.067 274.29L155.054 274.322ZM176.588 279.958L171.504 261.196C171.871 260.889 172.21 260.539 172.515 260.15L181.989 274.33C180.492 276.553 178.667 278.445 176.602 279.918L176.588 279.958Z" fill="black"/>
</g>
<path d="M186.45 215.064H159.708C158.201 215.067 156.757 215.768 155.692 217.015C154.626 218.262 154.027 219.952 154.025 221.716V273.718C154.025 274.508 153.757 275.266 153.279 275.825C152.802 276.384 152.155 276.697 151.479 276.697H143.106C142.742 276.697 142.392 276.867 142.133 277.169C141.875 277.471 141.73 277.881 141.73 278.308C141.73 278.735 141.875 279.145 142.133 279.447C142.392 279.749 142.742 279.918 143.106 279.918H151.452C152.856 279.914 154.201 279.26 155.194 278.098C156.187 276.936 156.746 275.361 156.75 273.718V254.457H186.45C186.815 254.457 187.165 254.287 187.423 253.985C187.681 253.683 187.826 253.273 187.826 252.846V216.675C187.826 216.248 187.681 215.838 187.423 215.536C187.165 215.234 186.815 215.064 186.45 215.064ZM185.074 251.236H156.777V221.716C156.777 220.806 157.086 219.933 157.635 219.29C158.185 218.647 158.931 218.285 159.708 218.285H185.074V251.236Z" fill="#2E353A"/>
<path opacity="0.3" d="M186.45 215.064H159.708C158.201 215.067 156.757 215.768 155.692 217.015C154.626 218.262 154.027 219.952 154.025 221.716V273.718C154.025 274.508 153.757 275.266 153.279 275.825C152.802 276.384 152.155 276.697 151.479 276.697H143.106C142.742 276.697 142.392 276.867 142.133 277.169C141.875 277.471 141.73 277.881 141.73 278.308C141.73 278.735 141.875 279.145 142.133 279.447C142.392 279.749 142.742 279.918 143.106 279.918H151.452C152.856 279.914 154.201 279.26 155.194 278.098C156.187 276.936 156.746 275.361 156.75 273.718V254.457H186.45C186.815 254.457 187.165 254.287 187.423 253.985C187.681 253.683 187.826 253.273 187.826 252.846V216.675C187.826 216.248 187.681 215.838 187.423 215.536C187.165 215.234 186.815 215.064 186.45 215.064ZM185.074 251.236H156.777V221.716C156.777 220.806 157.086 219.933 157.635 219.29C158.185 218.647 158.931 218.285 159.708 218.285H185.074V251.236Z" fill="white"/>
<path d="M189.637 145.201V197.075H157.343C155.972 197.075 154.658 197.712 153.689 198.846C152.72 199.98 152.176 201.518 152.176 203.122V230.041H186.879C188.538 230.039 190.128 229.266 191.301 227.892C192.474 226.518 193.132 224.656 193.132 222.714V145.201H189.637Z" fill="#2E353A"/>
<path opacity="0.3" d="M189.637 145.201V197.075H157.343C155.972 197.075 154.658 197.712 153.689 198.846C152.72 199.98 152.176 201.518 152.176 203.122V230.041H186.879C188.538 230.039 190.128 229.266 191.301 227.892C192.474 226.518 193.132 224.656 193.132 222.714V145.201H189.637Z" fill="white"/>
<path d="M156.73 216.61H209.238V228.399H151.508V222.762C151.503 221.956 151.635 221.157 151.896 220.411C152.156 219.665 152.54 218.986 153.025 218.415C153.511 217.843 154.088 217.389 154.724 217.079C155.359 216.77 156.041 216.61 156.73 216.61Z" fill="#2E353A"/>
<path d="M214.416 226.684H151.415C151.227 226.684 151.041 226.727 150.868 226.811C150.694 226.895 150.536 227.019 150.404 227.174C150.271 227.33 150.165 227.514 150.093 227.718C150.021 227.921 149.984 228.139 149.984 228.358C149.984 228.803 150.135 229.23 150.403 229.546C150.671 229.861 151.035 230.039 151.415 230.041H214.416C214.786 230.042 215.142 229.874 215.408 229.574C215.675 229.274 215.832 228.864 215.847 228.431C215.855 228.205 215.824 227.979 215.756 227.768C215.688 227.556 215.584 227.363 215.45 227.2C215.316 227.036 215.156 226.906 214.978 226.818C214.8 226.729 214.609 226.683 214.416 226.684Z" fill="#2E353A"/>
<path opacity="0.3" d="M214.416 226.684H151.415C151.227 226.684 151.041 226.727 150.868 226.811C150.694 226.895 150.536 227.019 150.404 227.174C150.271 227.33 150.165 227.514 150.093 227.718C150.021 227.921 149.984 228.139 149.984 228.358C149.984 228.803 150.135 229.23 150.403 229.546C150.671 229.861 151.035 230.039 151.415 230.041H214.416C214.786 230.042 215.142 229.874 215.408 229.574C215.675 229.274 215.832 228.864 215.847 228.431C215.855 228.205 215.824 227.979 215.756 227.768C215.688 227.556 215.584 227.363 215.45 227.2C215.316 227.036 215.156 226.906 214.978 226.818C214.8 226.729 214.609 226.683 214.416 226.684Z" fill="white"/>
<path d="M190.867 146.739H220.203V216.062C220.203 218.881 219.247 221.585 217.544 223.578C215.84 225.572 213.53 226.691 211.122 226.691H190.867V146.739Z" fill="#2E353A"/>
<path d="M158.629 273.976H141.663C140.721 273.976 139.957 274.87 139.957 275.973V277.1C139.957 278.203 140.721 279.097 141.663 279.097H158.629C159.572 279.097 160.336 278.203 160.336 277.1V275.973C160.336 274.87 159.572 273.976 158.629 273.976Z" fill="#2E353A"/>
<path opacity="0.2" d="M158.629 273.976H141.663C140.721 273.976 139.957 274.87 139.957 275.973V277.1C139.957 278.203 140.721 279.097 141.663 279.097H158.629C159.572 279.097 160.336 278.203 160.336 277.1V275.973C160.336 274.87 159.572 273.976 158.629 273.976Z" fill="white"/>
<path d="M214.289 251.679L187.656 240.591L214.289 229.494C214.417 229.441 214.534 229.36 214.635 229.254C214.736 229.147 214.818 229.019 214.876 228.876C214.935 228.733 214.969 228.577 214.976 228.419C214.983 228.261 214.963 228.102 214.918 227.952C214.873 227.803 214.803 227.665 214.712 227.547C214.622 227.429 214.512 227.333 214.39 227.265C214.268 227.196 214.135 227.157 213.999 227.148C213.864 227.14 213.729 227.163 213.601 227.216L184.588 239.294L155.568 227.216C155.44 227.163 155.305 227.14 155.169 227.148C155.034 227.157 154.901 227.196 154.779 227.265C154.656 227.333 154.547 227.429 154.456 227.547C154.365 227.665 154.296 227.803 154.25 227.952C154.205 228.102 154.186 228.261 154.193 228.419C154.2 228.577 154.234 228.733 154.292 228.876C154.351 229.019 154.433 229.147 154.534 229.254C154.634 229.36 154.752 229.441 154.88 229.494L181.506 240.582L154.88 251.671C154.752 251.724 154.634 251.806 154.533 251.913C154.433 252.019 154.351 252.148 154.293 252.292C154.235 252.435 154.201 252.591 154.194 252.75C154.188 252.908 154.208 253.067 154.254 253.217C154.323 253.453 154.454 253.658 154.628 253.802C154.802 253.947 155.011 254.024 155.224 254.022C155.341 254.025 155.457 254.003 155.568 253.958L184.588 241.879L213.601 253.958C213.729 254.01 213.864 254.033 213.999 254.025C214.135 254.016 214.268 253.977 214.39 253.909C214.512 253.84 214.622 253.744 214.712 253.626C214.803 253.508 214.873 253.37 214.918 253.221C214.963 253.071 214.983 252.913 214.976 252.754C214.969 252.596 214.935 252.44 214.876 252.297C214.818 252.154 214.736 252.026 214.635 251.92C214.534 251.813 214.417 251.732 214.289 251.679Z" fill="#2E353A"/>
<path opacity="0.3" d="M214.289 251.679L187.656 240.591L214.289 229.494C214.417 229.441 214.534 229.36 214.635 229.254C214.736 229.147 214.818 229.019 214.876 228.876C214.935 228.733 214.969 228.577 214.976 228.419C214.983 228.261 214.963 228.102 214.918 227.952C214.873 227.803 214.803 227.665 214.712 227.547C214.622 227.429 214.512 227.333 214.39 227.265C214.268 227.196 214.135 227.157 213.999 227.148C213.864 227.14 213.729 227.163 213.601 227.216L184.588 239.294L155.568 227.216C155.44 227.163 155.305 227.14 155.169 227.148C155.034 227.157 154.901 227.196 154.779 227.265C154.656 227.333 154.547 227.429 154.456 227.547C154.365 227.665 154.296 227.803 154.25 227.952C154.205 228.102 154.186 228.261 154.193 228.419C154.2 228.577 154.234 228.733 154.292 228.876C154.351 229.019 154.433 229.147 154.534 229.254C154.634 229.36 154.752 229.441 154.88 229.494L181.506 240.582L154.88 251.671C154.752 251.724 154.634 251.806 154.533 251.913C154.433 252.019 154.351 252.148 154.293 252.292C154.235 252.435 154.201 252.591 154.194 252.75C154.188 252.908 154.208 253.067 154.254 253.217C154.323 253.453 154.454 253.658 154.628 253.802C154.802 253.947 155.011 254.024 155.224 254.022C155.341 254.025 155.457 254.003 155.568 253.958L184.588 241.879L213.601 253.958C213.729 254.01 213.864 254.033 213.999 254.025C214.135 254.016 214.268 253.977 214.39 253.909C214.512 253.84 214.622 253.744 214.712 253.626C214.803 253.508 214.873 253.37 214.918 253.221C214.963 253.071 214.983 252.913 214.976 252.754C214.969 252.596 214.935 252.44 214.876 252.297C214.818 252.154 214.736 252.026 214.635 251.92C214.534 251.813 214.417 251.732 214.289 251.679Z" fill="white"/>
<path d="M191.302 152.859C191.028 152.859 190.765 152.732 190.572 152.506C190.378 152.279 190.27 151.972 190.27 151.652V142.399C190.27 140.627 190.853 138.923 191.898 137.641C192.944 136.359 194.371 135.597 195.884 135.515L202.543 135.136C202.817 135.121 203.085 135.234 203.287 135.45C203.49 135.666 203.611 135.967 203.624 136.288C203.636 136.608 203.54 136.921 203.355 137.158C203.171 137.395 202.913 137.537 202.64 137.552L195.98 137.93C194.997 137.984 194.069 138.48 193.39 139.313C192.711 140.147 192.332 141.255 192.334 142.407V151.66C192.332 151.979 192.222 152.284 192.029 152.508C191.836 152.733 191.574 152.859 191.302 152.859Z" fill="#263238"/>
<path d="M157.552 270.787L164.164 268.363L163.311 260.729L162.52 253.724L154.395 255.6L156.06 263.644L157.552 270.787Z" fill="#EBB376"/>
<path opacity="0.2" d="M156.106 263.805L163.343 260.866L162.532 253.796L154.406 255.632L156.106 263.805Z" fill="black"/>
<path d="M164.725 266.591C164.725 265.987 156.648 266.792 156.648 266.792C156.648 266.792 151.832 271.624 147.016 272.856C142.2 274.088 145.007 276.624 150.387 276.399L163.7 275.843C167.553 275.682 165.076 272.799 164.725 266.591Z" fill="#2E353A"/>
<path d="M144.987 202.841C149.803 193.178 175.376 191.358 192.315 189.997L198.094 207.463C198.094 207.463 172.81 205.852 165.51 215.467C159.71 223.133 163.659 257.565 163.659 257.565L152.782 258.483C152.782 258.483 136.477 219.976 144.987 202.841Z" fill="#2E353A"/>
<path opacity="0.2" d="M144.987 202.841C149.803 193.178 175.376 191.358 192.315 189.997L198.094 207.463C198.094 207.463 172.81 205.852 165.51 215.467C159.71 223.133 163.659 257.565 163.659 257.565L152.782 258.483C152.782 258.483 136.477 219.976 144.987 202.841Z" fill="black"/>
<path d="M171.31 270.787L177.922 268.363L177.069 260.729L176.271 253.724L168.152 255.6L169.817 263.644L171.31 270.787Z" fill="#EBB376"/>
<path opacity="0.2" d="M169.867 263.805L177.112 260.866L176.293 253.796L168.168 255.632L169.867 263.805Z" fill="black"/>
<path d="M193.417 140.29C196.857 138.357 206.008 140.032 208.216 142.488C210.425 144.944 201.412 152.151 196.575 151.12C191.739 150.09 190.727 141.796 193.417 140.29Z" fill="#407BFF"/>
<path opacity="0.2" d="M193.417 140.29C196.857 138.357 206.008 140.032 208.216 142.488C210.425 144.944 201.412 152.151 196.575 151.12C191.739 150.09 190.727 141.796 193.417 140.29Z" fill="black"/>
<path d="M176.027 189.828C176.027 189.828 182.019 176.268 182.329 175.213C183.925 169.754 212.903 174.674 212.903 174.674C212.903 174.674 220.891 203.091 210.943 211.248C202.294 218.342 181.359 215.145 177.802 216.426C174.513 217.609 172.903 221.74 177.905 260.239L167.124 260.714C167.124 260.714 151.341 214.815 151.513 206.537C151.685 198.259 150.447 194.491 176.027 189.828Z" fill="#2E353A"/>
<path d="M176.387 187.831C176.387 187.831 184.828 152.996 187.828 143.994C188.936 140.66 215.5 143.889 215.5 143.889V186.051C215.5 186.051 195.63 194.281 189.823 190.883C187.98 189.796 186.012 182.331 186.012 182.331C186.012 182.331 182.297 190.432 179.999 190.496C178.685 190.52 176.387 187.831 176.387 187.831Z" fill="#407BFF"/>
<path opacity="0.6" d="M215.493 143.889V186.052C215.493 186.052 195.623 194.281 189.816 190.883C187.973 189.796 186.005 182.331 186.005 182.331C186.005 182.331 182.297 190.432 179.992 190.497C178.685 190.537 176.387 187.847 176.387 187.847C176.387 187.847 176.497 187.38 176.71 186.535C177.852 181.84 181.863 165.478 184.966 153.939C186.101 149.719 187.113 146.144 187.821 144.01C188.929 140.66 215.493 143.889 215.493 143.889Z" fill="white"/>
<path opacity="0.2" d="M192.69 160.767C193.093 160.767 193.419 160.385 193.419 159.913C193.419 159.442 193.093 159.06 192.69 159.06C192.287 159.06 191.961 159.442 191.961 159.913C191.961 160.385 192.287 160.767 192.69 160.767Z" fill="black"/>
<path opacity="0.2" d="M190.182 169.254C190.585 169.254 190.912 168.872 190.912 168.4C190.912 167.929 190.585 167.547 190.182 167.547C189.78 167.547 189.453 167.929 189.453 168.4C189.453 168.872 189.78 169.254 190.182 169.254Z" fill="black"/>
<path opacity="0.2" d="M187.366 178.708C187.769 178.708 188.095 178.326 188.095 177.855C188.095 177.383 187.769 177.001 187.366 177.001C186.963 177.001 186.637 177.383 186.637 177.855C186.637 178.326 186.963 178.708 187.366 178.708Z" fill="black"/>
<path opacity="0.2" d="M215.491 161.894V185.488C194.349 193.862 188.48 186.615 188.48 186.615C188.48 186.615 200.066 178.917 204.875 176.05C209.685 173.184 210.613 158.206 210.613 158.206C212.293 159.335 213.921 160.566 215.491 161.894Z" fill="black"/>
<path opacity="0.2" d="M182.101 174.882C182.177 179.802 182.844 181.405 183.037 183.587C183.202 185.568 182.706 190.093 176.707 186.518C177.849 181.823 181.86 165.461 184.963 153.922C185.221 154.05 185.454 154.236 185.651 154.469C185.651 154.469 182.012 168.803 182.101 174.882Z" fill="black"/>
<path d="M207.595 144.034C207.595 144.034 204.327 147.214 201.265 147.375C198.203 147.536 195.293 152.795 195.293 152.795C195.293 152.795 194.536 147.537 194.736 147.061C194.672 146.419 194.519 145.793 194.282 145.209C193.924 143.937 193.649 142.504 194.736 142.504C196.573 142.504 195.293 138.147 195.293 138.147L205.675 134.806C205.383 135.943 205.187 137.11 205.09 138.292C204.904 140.708 205.214 143.583 207.595 144.034Z" fill="#EBB376"/>
<path opacity="0.2" d="M205.675 134.798C205.383 135.935 205.187 137.103 205.09 138.285C203.026 141.159 199.394 144.831 194.282 145.202C193.924 143.929 193.649 142.496 194.736 142.496C196.573 142.496 195.293 138.14 195.293 138.14L205.675 134.798Z" fill="black"/>
<path d="M206.401 144.75C206.401 144.75 201.001 155.894 199.852 165.139C201.711 164.92 203.585 164.92 205.445 165.139C207.557 165.533 206.037 152.867 211.025 143.8L206.401 144.75Z" fill="#407BFF"/>
<path opacity="0.2" d="M206.401 144.75C206.401 144.75 201.001 155.894 199.852 165.139C201.711 164.92 203.585 164.92 205.445 165.139C207.557 165.533 206.037 152.867 211.025 143.8L206.401 144.75Z" fill="black"/>
<path d="M193.419 145.234C193.419 148.866 197.134 151.837 202.707 146.426C208.28 141.015 209.766 139.758 211.142 141.659C211.142 141.659 213.006 141.82 213.302 143.64C211.654 144.399 210.138 145.504 208.83 146.901C207.096 148.97 199.57 156.612 194.712 155.976C189.855 155.34 188.672 147.118 191.437 143.801C191.437 143.801 191.541 138.639 195.744 140.684C195.772 140.684 193.419 141.087 193.419 145.234Z" fill="#407BFF"/>
<path d="M199.827 165.14C199.827 165.14 199.139 168.619 199.297 168.772C199.455 168.925 199.717 165.325 200.253 165.591C200.79 165.857 199.806 168.892 200.253 168.812C200.701 168.731 200.219 165.728 200.776 165.672C201.334 165.615 200.701 168.772 201.113 168.812C201.526 168.852 201.113 165.672 201.65 165.672C202.187 165.672 201.478 168.892 201.925 168.812C202.372 168.731 202.022 165.519 202.517 165.519C203.012 165.519 202.249 168.667 202.744 168.82C203.239 168.973 202.703 165.672 203.336 165.672C203.969 165.672 203.198 168.892 203.514 168.82C203.831 168.748 203.336 165.519 203.969 165.672C204.602 165.825 203.927 168.941 204.285 168.82C204.643 168.699 203.969 165.672 204.602 165.833C205.235 165.994 205.014 169.054 205.193 168.828C205.372 168.603 205.296 166.098 205.675 166.042C206.053 165.986 205.675 168.272 206.239 168.458C206.803 168.643 205.675 165.172 205.675 165.172C205.675 165.172 202.09 164.27 199.827 165.14Z" fill="#407BFF"/>
<path d="M201.485 117.921C195.692 116.85 193.339 120.135 191.976 127.044C191.935 127.221 191.873 127.575 191.873 127.575C188.268 131.312 190.38 141.659 198.581 141.659C208.777 141.659 211.11 119.692 201.485 117.921Z" fill="#EBB376"/>
<path d="M195.771 127.357C195.171 128.284 194.478 129.122 193.707 129.854C193.839 130.165 194.042 130.427 194.293 130.612C194.544 130.797 194.834 130.897 195.131 130.9L195.771 127.357Z" fill="#D58745"/>
<path d="M199.39 127.454C199.3 128.009 199.486 128.517 199.802 128.581C200.119 128.646 200.442 128.251 200.532 127.695C200.621 127.14 200.429 126.64 200.112 126.568C199.796 126.496 199.472 126.898 199.39 127.454Z" fill="#263238"/>
<path d="M200.245 126.624L199.289 125.932C199.289 125.932 199.647 127.059 200.245 126.624Z" fill="#263238"/>
<path d="M193.519 126.085C193.429 126.64 193.615 127.148 193.931 127.212C194.248 127.276 194.571 126.882 194.661 126.326C194.75 125.771 194.557 125.271 194.241 125.199C193.924 125.126 193.601 125.529 193.519 126.085Z" fill="#263238"/>
<path d="M194.37 125.255L193.414 124.562C193.414 124.562 193.765 125.69 194.37 125.255Z" fill="#263238"/>
<path d="M202.452 124.564C202.409 124.566 202.365 124.554 202.327 124.528C202.29 124.502 202.259 124.464 202.239 124.419C201.988 124.018 201.662 123.689 201.287 123.456C200.912 123.223 200.496 123.093 200.072 123.074C200.006 123.074 199.943 123.043 199.897 122.989C199.85 122.935 199.824 122.861 199.824 122.784C199.824 122.707 199.85 122.633 199.897 122.579C199.943 122.525 200.006 122.494 200.072 122.494C200.579 122.509 201.077 122.662 201.525 122.942C201.973 123.222 202.359 123.62 202.652 124.105C202.684 124.171 202.693 124.25 202.677 124.323C202.66 124.397 202.619 124.461 202.562 124.499C202.53 124.53 202.493 124.552 202.452 124.564Z" fill="#263238"/>
<path d="M193.525 122.139C193.477 122.14 193.43 122.125 193.39 122.095C193.349 122.065 193.317 122.021 193.298 121.97C193.272 121.899 193.27 121.819 193.294 121.747C193.317 121.675 193.363 121.616 193.422 121.583C193.821 121.334 194.262 121.194 194.714 121.173C195.165 121.152 195.615 121.251 196.029 121.462C196.088 121.5 196.131 121.563 196.15 121.638C196.169 121.712 196.161 121.793 196.129 121.861C196.097 121.929 196.043 121.98 195.98 122.002C195.916 122.024 195.847 122.015 195.789 121.978C195.443 121.807 195.069 121.73 194.695 121.754C194.321 121.777 193.956 121.901 193.628 122.115L193.525 122.139Z" fill="#263238"/>
<path d="M216.642 125.191C215.589 124.112 213.587 124.724 212.142 125.401C212.142 125.328 212.142 125.264 212.142 125.191C212.179 123.949 211.959 122.714 211.5 121.592C211.041 120.47 210.358 119.495 209.507 118.749C209.507 116.044 207.718 114.852 205.751 114.135C203.783 113.419 202.07 114.772 199.758 113.499C199.382 113.245 198.965 113.082 198.534 113.02C198.102 112.958 197.664 112.999 197.247 113.141C196.829 113.282 196.44 113.521 196.103 113.843C195.766 114.164 195.488 114.563 195.286 115.013C194.688 116.285 194.949 118.129 193.023 118.194C191.096 118.258 191.564 120.368 191.936 121.495C192.307 122.623 192.204 122.301 191.592 123.549C191.172 124.402 191.798 124.942 192.245 125.159C192.17 125.755 192.156 126.125 192.156 126.125C192.211 125.803 192.273 125.497 192.342 125.208C195.094 112.944 205.303 120.199 205.303 120.199C204.313 124.426 206.267 130.498 206.267 130.498C207.127 133.195 205.861 135.917 205.063 137.262C204.888 137.563 204.697 137.851 204.492 138.124C204.846 137.873 205.18 137.585 205.489 137.262C209.617 137.093 209.425 134.468 209.418 133.598C209.503 133.191 209.66 132.81 209.879 132.479C210.567 134.041 212.018 136.102 214.598 135.434C218.616 134.419 218.41 127.011 216.642 125.191Z" fill="#263238"/>
<path d="M196.623 134.629C196.127 134.624 195.639 134.492 195.191 134.243C195.132 134.21 195.086 134.151 195.063 134.079C195.04 134.007 195.042 133.927 195.068 133.856C195.08 133.821 195.099 133.788 195.123 133.761C195.147 133.734 195.175 133.713 195.206 133.7C195.237 133.686 195.27 133.68 195.303 133.682C195.336 133.684 195.368 133.694 195.398 133.711C195.959 134.049 196.606 134.135 197.218 133.954C197.829 133.773 198.364 133.338 198.721 132.729C198.739 132.697 198.762 132.67 198.789 132.649C198.816 132.628 198.847 132.613 198.879 132.605C198.911 132.598 198.943 132.598 198.975 132.605C199.007 132.613 199.038 132.627 199.065 132.649C199.092 132.67 199.115 132.697 199.134 132.729C199.152 132.76 199.164 132.796 199.171 132.833C199.177 132.871 199.177 132.909 199.171 132.946C199.164 132.984 199.152 133.019 199.134 133.051C198.847 133.522 198.471 133.91 198.035 134.183C197.6 134.457 197.117 134.61 196.623 134.629Z" fill="#263238"/>
<path d="M200.368 130.289C200.196 130.298 200.024 130.267 199.863 130.198C199.701 130.129 199.552 130.023 199.426 129.886C199.257 129.646 199.132 129.368 199.061 129.068C198.99 128.768 198.974 128.454 199.013 128.147C199.02 128.094 199.044 128.046 199.079 128.013C199.115 127.981 199.16 127.965 199.206 127.97C199.252 127.978 199.294 128.006 199.322 128.05C199.35 128.094 199.363 128.149 199.357 128.203C199.298 128.7 199.409 129.204 199.667 129.604C199.813 129.74 199.985 129.834 200.168 129.876C200.351 129.918 200.54 129.907 200.719 129.846C200.742 129.841 200.765 129.842 200.788 129.848C200.81 129.854 200.831 129.865 200.85 129.881C200.868 129.897 200.884 129.917 200.896 129.94C200.908 129.963 200.916 129.988 200.919 130.015C200.927 130.067 200.917 130.121 200.891 130.165C200.865 130.209 200.826 130.239 200.781 130.248C200.645 130.273 200.507 130.287 200.368 130.289Z" fill="#D58745"/>
<path d="M193.454 128.63C193.138 128.616 192.829 128.523 192.546 128.356C192.506 128.33 192.476 128.288 192.462 128.237C192.448 128.186 192.451 128.13 192.471 128.082C192.491 128.036 192.526 128.001 192.569 127.984C192.611 127.968 192.657 127.971 192.698 127.994C192.854 128.126 193.035 128.21 193.226 128.24C193.417 128.27 193.611 128.244 193.791 128.164C193.971 128.084 194.131 127.953 194.258 127.783C194.384 127.613 194.472 127.408 194.514 127.188C194.529 127.142 194.559 127.104 194.597 127.081C194.635 127.059 194.678 127.054 194.719 127.067C194.76 127.08 194.796 127.11 194.819 127.152C194.842 127.194 194.851 127.244 194.844 127.293C194.782 127.552 194.677 127.793 194.534 128.004C194.391 128.214 194.213 128.388 194.012 128.517C193.835 128.599 193.645 128.638 193.454 128.63Z" fill="#D58745"/>
<path d="M200.247 134.541C200.209 134.54 200.172 134.525 200.142 134.497C200.112 134.469 200.091 134.431 200.082 134.388C199.628 132.052 197.419 131.102 197.399 131.094C197.356 131.076 197.321 131.039 197.301 130.99C197.282 130.942 197.28 130.887 197.295 130.836C197.302 130.811 197.314 130.787 197.329 130.767C197.344 130.747 197.362 130.731 197.383 130.719C197.403 130.708 197.426 130.702 197.449 130.701C197.472 130.701 197.494 130.705 197.516 130.716C197.612 130.716 199.924 131.754 200.412 134.299C200.422 134.35 200.415 134.404 200.392 134.449C200.369 134.494 200.332 134.527 200.288 134.541H200.247Z" fill="#D58745"/>
<path opacity="0.4" d="M216.642 125.191C215.589 124.112 213.587 124.724 212.142 125.401C212.142 125.328 212.142 125.264 212.142 125.191C212.179 123.949 211.959 122.714 211.5 121.592C211.041 120.47 210.358 119.495 209.507 118.749C209.507 116.044 207.718 114.852 205.751 114.135C203.783 113.419 202.07 114.772 199.758 113.499C199.382 113.245 198.965 113.082 198.534 113.02C198.102 112.958 197.664 112.999 197.247 113.141C196.829 113.282 196.44 113.521 196.103 113.843C195.766 114.164 195.488 114.563 195.286 115.013C194.688 116.285 194.949 118.129 193.023 118.194C191.096 118.258 191.564 120.368 191.936 121.495C192.307 122.623 192.204 122.301 191.592 123.549C191.172 124.402 191.798 124.942 192.245 125.159C192.17 125.755 192.156 126.125 192.156 126.125C192.211 125.803 192.273 125.497 192.342 125.208C195.094 112.944 205.303 120.199 205.303 120.199C204.313 124.426 206.267 130.498 206.267 130.498C207.127 133.195 205.861 135.917 205.063 137.262C204.888 137.563 204.697 137.851 204.492 138.124C204.846 137.873 205.18 137.585 205.489 137.262C209.617 137.093 209.425 134.468 209.418 133.598C209.503 133.191 209.66 132.81 209.879 132.479C210.567 134.041 212.018 136.102 214.598 135.434C218.616 134.419 218.41 127.011 216.642 125.191Z" fill="white"/>
<path d="M205.137 131.77C205.299 130.995 205.716 130.327 206.298 129.912C206.879 129.497 207.578 129.369 208.24 129.556C210.002 130.119 210.304 134.588 205.674 134.798C205.027 134.83 204.752 134.033 205.137 131.77Z" fill="#EBB376"/>
<g opacity="0.2">
<path d="M202.452 124.564C202.409 124.566 202.365 124.554 202.327 124.528C202.29 124.502 202.259 124.464 202.239 124.419C201.988 124.018 201.662 123.689 201.287 123.456C200.912 123.223 200.496 123.093 200.072 123.074C200.006 123.074 199.943 123.043 199.897 122.989C199.85 122.935 199.824 122.861 199.824 122.784C199.824 122.707 199.85 122.633 199.897 122.579C199.943 122.525 200.006 122.494 200.072 122.494C200.579 122.509 201.077 122.662 201.525 122.942C201.973 123.222 202.359 123.62 202.652 124.105C202.684 124.171 202.693 124.25 202.677 124.323C202.66 124.397 202.619 124.461 202.562 124.499C202.53 124.53 202.493 124.552 202.452 124.564Z" fill="white"/>
</g>
<g opacity="0.2">
<path d="M193.521 122.139C193.473 122.14 193.426 122.125 193.386 122.095C193.345 122.065 193.313 122.021 193.294 121.97C193.268 121.899 193.267 121.819 193.29 121.747C193.313 121.675 193.359 121.616 193.418 121.583C193.817 121.334 194.258 121.194 194.71 121.173C195.162 121.152 195.611 121.251 196.026 121.462C196.084 121.5 196.127 121.563 196.146 121.638C196.165 121.712 196.157 121.793 196.125 121.861C196.093 121.929 196.04 121.98 195.976 122.002C195.912 122.024 195.843 122.015 195.785 121.978C195.44 121.807 195.065 121.73 194.691 121.754C194.317 121.777 193.952 121.901 193.624 122.115L193.521 122.139Z" fill="white"/>
</g>
<path d="M139.289 230.678C139.289 230.678 139.42 206.311 144.594 200.079C149.767 193.846 168.976 190.038 168.976 190.038C168.976 190.038 186.864 187.855 193.373 191.688C199.881 195.521 199.964 215.403 199.964 215.403C199.964 215.403 182.564 213.108 180.259 222.247C178.811 228.096 177.748 234.067 177.081 240.107L139.289 230.678Z" fill="#407BFF"/>
<path opacity="0.2" d="M164.725 266.591C164.725 265.987 156.648 266.792 156.648 266.792C156.648 266.792 151.832 271.624 147.016 272.856C142.2 274.088 145.007 276.624 150.387 276.399L163.7 275.843C167.553 275.682 165.076 272.799 164.725 266.591Z" fill="black"/>
<path d="M178.487 266.591C178.453 265.987 170.41 266.792 170.41 266.792C170.41 266.792 165.594 271.624 160.778 272.856C155.962 274.088 158.769 276.624 164.149 276.399L177.462 275.843C181.315 275.682 178.838 272.799 178.487 266.591Z" fill="#2E353A"/>
<path d="M198.411 181.984L192.687 185.463C191.617 185.203 190.51 185.239 189.453 185.568C187.905 186.123 184.94 189.207 185.092 190.568C185.243 191.929 189.736 191.003 190.534 191.245C191.332 191.486 192.976 190.278 193.416 190.037C193.857 189.795 193.967 188.193 193.967 188.193L198.411 186.405V181.984Z" fill="#EBB376"/>
<path d="M215.493 143.889C219.621 145.201 221.974 170.421 217.846 177.854C213.718 185.286 196.236 188.153 196.236 188.153L194.516 183.047C194.516 183.047 207.987 176.509 209.425 173.32C210.863 170.131 211.544 163.77 210.319 156.016C209.094 148.261 215.493 143.889 215.493 143.889Z" fill="#407BFF"/>
<path opacity="0.6" d="M215.493 143.889C219.621 145.201 221.974 170.421 217.846 177.854C213.718 185.286 196.236 188.153 196.236 188.153L194.516 183.047C194.516 183.047 207.987 176.509 209.425 173.32C210.863 170.131 211.544 163.77 210.319 156.016C209.094 148.261 215.493 143.889 215.493 143.889Z" fill="white"/>
<path d="M180.382 180.431L181.634 185.528C182.277 186.262 182.767 187.161 183.065 188.153C183.354 189.345 182.92 190.569 182.377 190.77C181.001 191.285 178.043 192.042 177.836 191.173C177.63 190.303 177.224 186.542 178.448 186.712L177.492 182.581L180.382 180.431Z" fill="#EBB376"/>
<path d="M187.827 143.993C183.108 145.467 173.469 163.625 174.955 173.658C176.441 183.691 177.941 185.527 177.941 185.527L181.814 183.112C181.814 183.112 179.702 172.869 181.002 169.229C187.366 151.385 187.827 143.993 187.827 143.993Z" fill="#407BFF"/>
<path opacity="0.6" d="M187.827 143.993C183.108 145.467 173.469 163.625 174.955 173.658C176.441 183.691 177.941 185.527 177.941 185.527L181.814 183.112C181.814 183.112 179.702 172.869 181.002 169.229C187.366 151.385 187.827 143.993 187.827 143.993Z" fill="white"/>
<path d="M220.2 152.859C219.926 152.859 219.664 152.732 219.47 152.506C219.277 152.279 219.168 151.972 219.168 151.652V142.399C219.168 140.627 219.751 138.923 220.797 137.641C221.842 136.359 223.269 135.597 224.782 135.515L231.442 135.136C231.716 135.121 231.983 135.234 232.186 135.45C232.388 135.666 232.509 135.967 232.522 136.288C232.535 136.608 232.438 136.921 232.254 137.158C232.069 137.395 231.812 137.537 231.538 137.552L224.878 137.93C223.895 137.984 222.968 138.48 222.288 139.313C221.609 140.147 221.231 141.255 221.232 142.407V151.66C221.23 151.979 221.121 152.284 220.927 152.508C220.734 152.733 220.472 152.859 220.2 152.859Z" fill="#263238"/>
<path d="M218.536 147.246V197.075H186.241C184.871 197.075 183.557 197.712 182.588 198.846C181.619 199.98 181.074 201.518 181.074 203.122V230.041H215.777C217.436 230.039 219.027 229.266 220.2 227.892C221.372 226.518 222.031 224.656 222.031 222.714V147.246C222.031 146.704 221.847 146.184 221.519 145.8C221.191 145.417 220.747 145.201 220.283 145.201C219.82 145.201 219.375 145.417 219.048 145.8C218.72 146.184 218.536 146.704 218.536 147.246Z" fill="#2E353A"/>
<path opacity="0.4" d="M218.536 147.246V197.075H186.241C184.871 197.075 183.557 197.712 182.588 198.846C181.619 199.98 181.074 201.518 181.074 203.122V230.041H215.777C217.436 230.039 219.027 229.266 220.2 227.892C221.372 226.518 222.031 224.656 222.031 222.714V147.246C222.031 146.704 221.847 146.184 221.519 145.8C221.191 145.417 220.747 145.201 220.283 145.201C219.82 145.201 219.375 145.417 219.048 145.8C218.72 146.184 218.536 146.704 218.536 147.246Z" fill="white"/>
<path d="M213.977 215.064H187.235C185.728 215.067 184.284 215.768 183.218 217.015C182.153 218.262 181.554 219.952 181.552 221.716V273.718C181.552 274.508 181.284 275.266 180.806 275.825C180.329 276.384 179.682 276.697 179.006 276.697H165.817C165.452 276.697 165.102 276.867 164.844 277.169C164.586 277.471 164.441 277.881 164.441 278.308C164.441 278.735 164.586 279.145 164.844 279.447C165.102 279.749 165.452 279.918 165.817 279.918H178.979C180.383 279.914 181.728 279.26 182.721 278.098C183.714 276.936 184.273 275.361 184.276 273.718V254.457H213.977C214.342 254.457 214.692 254.287 214.95 253.985C215.208 253.683 215.353 253.273 215.353 252.846V216.675C215.353 216.248 215.208 215.838 214.95 215.536C214.692 215.234 214.342 215.064 213.977 215.064ZM212.601 251.236H184.304V221.716C184.304 220.806 184.613 219.933 185.162 219.29C185.712 218.647 186.458 218.285 187.235 218.285H212.601V251.236Z" fill="#2E353A"/>
<path opacity="0.6" d="M213.977 215.064H187.235C185.728 215.067 184.284 215.768 183.218 217.015C182.153 218.262 181.554 219.952 181.552 221.716V273.718C181.552 274.508 181.284 275.266 180.806 275.825C180.329 276.384 179.682 276.697 179.006 276.697H165.817C165.452 276.697 165.102 276.867 164.844 277.169C164.586 277.471 164.441 277.881 164.441 278.308C164.441 278.735 164.586 279.145 164.844 279.447C165.102 279.749 165.452 279.918 165.817 279.918H178.979C180.383 279.914 181.728 279.26 182.721 278.098C183.714 276.936 184.273 275.361 184.276 273.718V254.457H213.977C214.342 254.457 214.692 254.287 214.95 253.985C215.208 253.683 215.353 253.273 215.353 252.846V216.675C215.353 216.248 215.208 215.838 214.95 215.536C214.692 215.234 214.342 215.064 213.977 215.064ZM212.601 251.236H184.304V221.716C184.304 220.806 184.613 219.933 185.162 219.29C185.712 218.647 186.458 218.285 187.235 218.285H212.601V251.236Z" fill="white"/>
<path d="M177.895 273.976H156.112C155.17 273.976 154.406 274.87 154.406 275.973V277.1C154.406 278.203 155.17 279.097 156.112 279.097H177.895C178.837 279.097 179.601 278.203 179.601 277.1V275.973C179.601 274.87 178.837 273.976 177.895 273.976Z" fill="#2E353A"/>
<path opacity="0.4" d="M177.895 273.976H156.112C155.17 273.976 154.406 274.87 154.406 275.973V277.1C154.406 278.203 155.17 279.097 156.112 279.097H177.895C178.837 279.097 179.601 278.203 179.601 277.1V275.973C179.601 274.87 178.837 273.976 177.895 273.976Z" fill="white"/>
<path d="M213.971 291.071C199.261 291.071 187.297 273.912 187.297 252.814C187.297 231.717 199.261 214.565 213.971 214.565C228.68 214.565 240.638 231.725 240.638 252.814C240.638 273.904 228.646 291.071 213.971 291.071ZM213.971 218.6C201.16 218.6 190.737 233.956 190.737 252.822C190.737 271.689 201.16 287.053 213.971 287.053C226.781 287.053 237.17 271.689 237.17 252.847C237.17 234.004 226.754 218.592 213.971 218.592V218.6Z" fill="#2E353A"/>
<path d="M213.968 287.471C200.965 287.471 190.391 271.938 190.391 252.846C190.391 233.754 200.965 218.221 213.968 218.221C226.972 218.221 237.539 233.754 237.539 252.846C237.539 271.938 226.937 287.471 213.968 287.471ZM213.968 223.052C203.242 223.052 194.519 236.419 194.519 252.846C194.519 269.273 203.242 282.64 213.968 282.64C224.694 282.64 233.411 269.273 233.411 252.846C233.411 236.419 224.66 223.052 213.968 223.052Z" fill="#407BFF"/>
<path d="M213.94 262.291C217.398 262.291 220.201 258.048 220.201 252.814C220.201 247.579 217.398 243.336 213.94 243.336C210.483 243.336 207.68 247.579 207.68 252.814C207.68 258.048 210.483 262.291 213.94 262.291Z" fill="#407BFF"/>
<path d="M214.63 220.604H213.254V285.031H214.63V220.604Z" fill="#407BFF"/>
<path d="M235.453 252.009H192.426V253.619H235.453V252.009Z" fill="#407BFF"/>
<path d="M199.272 229.546L198.188 230.538L228.611 276.098L229.695 275.106L199.272 229.546Z" fill="#407BFF"/>
<path d="M228.61 229.522L198.18 275.076L199.264 276.068L229.694 230.514L228.61 229.522Z" fill="#407BFF"/>
<path d="M221.659 222.896L204.918 282.248L206.225 282.753L222.966 223.401L221.659 222.896Z" fill="#407BFF"/>
<path d="M194.452 239.565L193.797 240.981L233.428 266.072L234.082 264.655L194.452 239.565Z" fill="#407BFF"/>
<path d="M206.503 222.74L205.191 223.227L221.363 282.93L222.675 282.443L206.503 222.74Z" fill="#407BFF"/>
<path d="M233.553 239.991L193.688 264.218L194.322 265.647L234.187 241.42L233.553 239.991Z" fill="#407BFF"/>
<path d="M127.102 134L133.294 130.385C133.294 130.385 134.766 128.049 135.165 127.969C135.564 127.888 143.001 129.032 143.001 129.032C143.001 129.032 142.189 131.794 141.46 132.639C140.731 133.485 135.956 132.43 135.956 132.43L129.874 135.933L127.102 134Z" fill="#B97964"/>
<path d="M121.817 101.622C120.159 103.498 118.604 104.939 121.012 107.54C123.42 110.141 122.966 114.433 119.891 116.349C116.815 118.266 101.404 124.812 95.7007 117.267C89.9972 109.722 94.2422 104.561 97.0767 103.151C99.9113 101.742 97.1799 98.0382 96.9185 95.3487C96.657 92.6592 107.183 81.6596 112.096 80.9591C117.008 80.2585 120.352 85.2108 120.262 90.2354C120.173 95.2601 124.528 98.5616 121.817 101.622Z" fill="#263238"/>
<path d="M115.844 115.279C115.506 115.279 117.736 132.552 118.334 135.137C118.933 137.721 131.269 130.772 131.269 130.772L133.264 134.339C133.264 134.339 122.462 144.993 117.784 143.801C113.105 142.609 109.617 123.734 109.617 123.734L115.844 115.279Z" fill="#407BFF"/>
<path opacity="0.7" d="M133.264 134.339C133.264 134.339 122.462 144.992 117.784 143.792C115.912 143.309 114.227 139.975 112.878 136.151C111.559 132.223 110.492 128.186 109.686 124.072C109.645 123.822 109.617 123.694 109.617 123.694L110.305 122.776L112.816 119.361L115.844 115.263C115.61 115.931 117.763 132.567 118.348 135.096C118.933 137.624 131.282 130.731 131.282 130.731L133.264 134.339Z" fill="white"/>
<path opacity="0.2" d="M112.88 136.151C111.56 132.223 110.493 128.186 109.688 124.072C109.88 123.621 110.08 123.187 110.293 122.776C110.93 121.456 111.783 120.295 112.804 119.362L112.9 119.281C112.9 119.281 115.584 128.324 112.88 136.151Z" fill="black"/>
<path d="M84.457 173.868L103.384 177L106.762 119.853L87.8076 122.494L84.457 173.868Z" fill="#407BFF"/>
<path opacity="0.4" d="M84.457 173.868L103.384 177L106.762 119.853L87.8076 122.494L84.457 173.868Z" fill="white"/>
<path d="M93.8094 282.302H89.2617L90.6584 274.942L91.9449 268.186L97.6416 267.163L95.6188 275.175L93.8094 282.302Z" fill="#B97964"/>
<path opacity="0.2" d="M95.5708 275.336L90.6172 275.087L91.9244 268.258L97.6348 267.195L95.5708 275.336Z" fill="black"/>
<path d="M84.3875 282.302H79.8398L81.2365 274.942L82.523 268.186L88.2197 267.163L86.197 275.175L84.3875 282.302Z" fill="#B97964"/>
<path opacity="0.2" d="M86.1528 275.336L81.1992 275.087L82.5064 268.258L88.2168 267.195L86.1528 275.336Z" fill="black"/>
<path d="M76.1631 141.61C76.1631 141.61 75.9292 142.182 75.5645 143.221C73.8514 148.173 69.1593 163.819 70.9137 181.953C71.9525 192.679 82.0799 211.98 83.5866 222.497C85.341 234.744 80.7452 256.317 81.9285 272.156L89.1594 272.897L91.3404 271.286L97.5324 270.199C97.5324 270.199 113.673 227.231 113.356 212.375C113.129 200.707 97.5324 158.883 97.5324 158.883L99.0184 143.414" fill="#263238"/>
<path opacity="0.2" d="M92.4781 271.117L91.336 271.318L89.4853 272.687C90.6686 267.856 100.865 226.08 101.044 216.884C101.25 207.109 89.3477 172.435 89.3477 172.435L92.3955 165.993L91.9345 175.801C91.9345 175.801 103.176 202.76 104.064 216.868C104.938 230.412 93.4137 268.073 92.4781 271.117Z" fill="black"/>
<path d="M87.9794 282.068C87.9794 281.48 94.1714 281.939 94.1714 281.939C94.1714 281.939 97.9691 286.457 101.65 287.471C105.331 288.486 103.274 291.071 99.1594 291.071H88.9564C86.0324 291.071 87.8555 288.156 87.9794 282.068Z" fill="#263238"/>
<path d="M94.8402 282.873C94.821 282.862 94.8044 282.846 94.792 282.825V282.777C94.7881 282.756 94.7881 282.734 94.792 282.712C94.7887 282.688 94.7887 282.664 94.792 282.64C94.792 282.551 95.3355 280.884 96.168 280.474C96.2935 280.408 96.4295 280.374 96.567 280.374C96.7046 280.374 96.8405 280.408 96.9661 280.474C97.2482 280.635 97.3858 280.836 97.372 281.086C97.372 281.464 96.9179 281.843 96.4157 282.157C96.8796 282.068 97.3554 282.129 97.7917 282.334C97.8724 282.384 97.9431 282.454 97.9988 282.538C98.0546 282.623 98.0942 282.721 98.115 282.825C98.1607 282.955 98.1714 283.097 98.1456 283.234C98.1197 283.371 98.0586 283.495 97.9705 283.59C97.8109 283.717 97.6199 283.779 97.427 283.767C96.5273 283.645 95.6522 283.343 94.8402 282.873ZM95.4043 282.753C96.3125 283.204 97.4683 283.598 97.7366 283.324C97.7366 283.324 97.8398 283.22 97.7779 282.938C97.7639 282.884 97.7408 282.835 97.7101 282.792C97.6793 282.749 97.6416 282.714 97.599 282.688C97.3704 282.567 97.1204 282.512 96.8698 282.527C96.3759 282.543 95.8848 282.619 95.4043 282.753ZM96.2643 280.828C95.7768 281.195 95.4048 281.738 95.2048 282.374C96.1198 281.972 97.0005 281.408 97.0142 281.086C97.0142 280.989 96.8766 280.892 96.7941 280.844C96.7055 280.796 96.6097 280.768 96.512 280.764C96.4266 280.766 96.3424 280.788 96.2643 280.828Z" fill="#407BFF"/>
<path d="M89.1562 270.102L99.3731 268.468L98.5199 272.921L90.0851 274.161L89.1562 270.102Z" fill="#407BFF"/>
<path d="M78.5612 282.068C78.5612 281.48 84.7532 281.939 84.7532 281.939C84.7532 281.939 88.5441 286.457 92.2249 287.471C95.9057 288.486 93.8486 291.071 89.7343 291.071H79.5519C76.6142 291.071 78.4305 288.156 78.5612 282.068Z" fill="#263238"/>
<path d="M85.4309 282.873C85.4086 282.865 85.3893 282.848 85.3758 282.825V282.777C85.3719 282.756 85.3719 282.734 85.3758 282.712C85.3695 282.689 85.3695 282.663 85.3758 282.64C85.3758 282.551 85.9194 280.884 86.7518 280.474C86.8774 280.408 87.0134 280.374 87.1509 280.374C87.2884 280.374 87.4244 280.408 87.5499 280.474C87.832 280.635 87.9696 280.836 87.9558 281.086C87.9558 281.464 87.5018 281.843 86.9995 282.157C87.4634 282.068 87.9393 282.129 88.3755 282.334C88.4558 282.386 88.5263 282.456 88.583 282.54C88.6397 282.625 88.6815 282.722 88.7058 282.825C88.7497 282.956 88.7587 283.098 88.7317 283.235C88.7047 283.372 88.6428 283.495 88.5544 283.59C88.3952 283.718 88.2039 283.781 88.0109 283.767C87.1131 283.647 86.24 283.344 85.4309 282.873ZM85.995 282.753C86.9032 283.204 88.059 283.598 88.3205 283.324C88.3205 283.324 88.4237 283.22 88.3618 282.938C88.3477 282.884 88.3247 282.835 88.2939 282.792C88.2632 282.749 88.2254 282.714 88.1829 282.688C87.9673 282.573 87.7318 282.518 87.4949 282.527C86.9918 282.54 86.4914 282.616 86.0019 282.753H85.995ZM86.8482 280.828C86.3607 281.195 85.9887 281.738 85.7887 282.374C86.7037 281.972 87.5843 281.408 87.5981 281.086C87.5981 280.989 87.4605 280.892 87.3779 280.844C87.2899 280.794 87.1937 280.767 87.0958 280.764C87.0105 280.766 86.9263 280.788 86.8482 280.828Z" fill="#407BFF"/>
<path d="M80.4297 270.102L91.3345 268.468L90.4263 272.921L81.4204 274.161L80.4297 270.102Z" fill="#407BFF"/>
<path d="M77.4844 138.132L76.418 141.731L97.9386 148.391L99.2045 144.139L77.4844 138.132Z" fill="black"/>
<path d="M84.8693 139.436L83.8125 139.075L82.2406 145.383L83.2973 145.744L84.8693 139.436Z" fill="#263238"/>
<path d="M93.9788 142.982L89.2539 141.596L88.3557 145.79L93.0806 147.176L93.9788 142.982Z" fill="white"/>
<path d="M98.1583 143.017L97.1016 142.656L95.5287 148.964L96.5854 149.325L98.1583 143.017Z" fill="#263238"/>
<path d="M115.51 115.279C114.593 116.707 113.724 118.049 112.903 119.305C109.765 124.217 107.536 127.703 105.823 130.514C103.904 133.54 102.238 136.776 100.849 140.177C100.292 141.562 99.7412 143.067 99.1289 144.839L77.4844 138.083C81.5573 120.368 85.0524 111.091 86.793 106.461L86.8481 106.316C87.3853 104.93 88.3248 103.811 89.4998 103.158C90.6749 102.505 92.0095 102.36 93.2671 102.749C94.822 103.24 96.6383 103.86 98.3239 104.529C101.465 105.886 104.52 107.5 107.467 109.36C110.266 111.105 112.954 113.083 115.51 115.279Z" fill="#407BFF"/>
<path d="M93.268 102.798C90.4197 101.92 94.6096 113.644 101.084 115.931C107.558 118.218 111.452 115.408 111.459 113.234C111.466 111.06 101.861 105.487 93.268 102.798Z" fill="#B97964"/>
<path d="M95.1639 102.58C95.1639 102.58 97.338 114.063 95.1639 122.494C92.9898 130.925 75.2119 181.945 75.2119 181.945H65.7656C65.7656 181.945 68.6896 156.765 77.4616 135.136C77.4616 135.136 85.3461 106.075 85.525 104.795C85.7039 103.514 89.9007 101.461 95.1639 102.58Z" fill="#407BFF"/>
<path d="M107.555 108.708C107.555 108.708 107.837 120.473 104.115 130.9L103.379 175.35C103.379 175.35 106.434 152.513 107.782 135.136L115.839 115.279L107.555 108.708Z" fill="#407BFF"/>
<path opacity="0.8" d="M95.1639 122.494C92.9829 130.917 75.2119 181.945 75.2119 181.945H65.7656C65.7656 181.945 68.4419 158.923 76.3608 138.003C76.7255 137.045 77.097 136.086 77.4823 135.136C77.4823 135.136 78.2322 132.374 79.2711 128.509C81.6103 119.853 85.4218 105.681 85.5456 104.795C85.7245 103.523 89.9007 101.421 95.1776 102.58C95.1639 102.58 97.3379 114.063 95.1639 122.494Z" fill="white"/>
<path opacity="0.8" d="M107.555 108.708C107.555 108.708 107.837 120.473 104.115 130.9L103.379 175.35C103.379 175.35 106.434 152.513 107.782 135.136L115.839 115.279L107.555 108.708Z" fill="white"/>
<path d="M107.79 107.717C107.79 107.717 110.652 110.422 112.537 117.589L108.705 120.786L109.634 123.717L104.13 133.984C103.891 131.319 104.04 128.626 104.57 126.02C105.437 122.211 108.051 110.962 107.79 107.717Z" fill="#407BFF"/>
<path d="M96.1362 102.581C98.152 112.152 96.8902 122.267 92.6205 130.764C92.6205 130.764 92.4072 120.054 91.1688 116.149L94.1203 114.772L88.293 110.319C88.293 110.319 93.0195 101.26 96.1362 102.581Z" fill="#407BFF"/>
<path opacity="0.7" d="M107.79 107.717C107.79 107.717 110.652 110.422 112.537 117.589L108.705 120.786L109.634 123.717L104.13 133.984C103.891 131.319 104.04 128.626 104.57 126.02C105.437 122.211 108.051 110.962 107.79 107.717Z" fill="white"/>
<path opacity="0.7" d="M96.1362 102.581C98.152 112.152 96.8902 122.267 92.6205 130.764C92.6205 130.764 92.4072 120.054 91.1688 116.149L94.1203 114.772L88.293 110.319C88.293 110.319 93.0195 101.26 96.1362 102.581Z" fill="white"/>
<path opacity="0.2" d="M85.3692 142.029C83.1538 142.27 79.2873 140 76.3633 138.003C76.7279 137.044 77.0994 136.086 77.4847 135.136C77.4847 135.136 78.2346 132.374 79.2735 128.509C82.803 133.574 88.0662 141.723 85.3692 142.029Z" fill="black"/>
<path d="M86.9297 158.222C86.9297 158.222 89.0694 158.568 93.1905 153.954C97.3116 149.34 102.822 143.929 104.157 144.67L116.362 151.563L99.8985 165.252L86.9297 158.222Z" fill="#407BFF"/>
<path opacity="0.7" d="M86.9297 158.222C86.9297 158.222 89.0694 158.568 93.1905 153.954C97.3116 149.34 102.822 143.929 104.157 144.67L116.362 151.563L99.8985 165.252L86.9297 158.222Z" fill="white"/>
<path d="M87.2382 161.049L104.101 145.596C104.211 145.496 104.342 145.433 104.48 145.413C104.618 145.393 104.758 145.417 104.885 145.483L117.586 152.062C117.639 152.09 117.686 152.135 117.72 152.19C117.754 152.246 117.776 152.311 117.782 152.38C117.788 152.448 117.779 152.517 117.756 152.58C117.732 152.643 117.695 152.697 117.648 152.738L100.991 167.249C100.888 167.339 100.767 167.397 100.64 167.418C100.512 167.439 100.383 167.422 100.262 167.37L87.3276 161.693C87.2777 161.666 87.2343 161.625 87.2012 161.573C87.168 161.522 87.146 161.462 87.1372 161.398C87.1284 161.335 87.133 161.27 87.1506 161.209C87.1682 161.148 87.1982 161.093 87.2382 161.049Z" fill="#407BFF"/>
<path d="M112.179 148.794C112.33 148.528 112.523 147.988 112.076 147.755C111.859 147.681 111.631 147.666 111.409 147.713C111.187 147.759 110.977 147.864 110.796 148.021C110.142 147.666 109.53 147.328 109.096 147.103C109.051 147.079 109.001 147.073 108.952 147.083C108.903 147.093 108.857 147.119 108.821 147.159L107.762 148.294C107.715 148.345 107.681 148.408 107.66 148.478C107.64 148.548 107.635 148.623 107.646 148.696C107.657 148.769 107.684 148.837 107.723 148.895C107.762 148.953 107.814 148.998 107.872 149.027L112.199 151.193C112.353 151.268 112.521 151.292 112.686 151.264C112.851 151.235 113.006 151.155 113.135 151.032L113.995 150.187C114.022 150.162 114.043 150.13 114.056 150.094C114.07 150.057 114.075 150.018 114.072 149.978C114.068 149.939 114.056 149.901 114.037 149.868C114.017 149.836 113.991 149.809 113.961 149.792L112.179 148.794ZM111.89 148.182C112.027 148.286 111.924 148.463 111.821 148.592L111.312 148.31C111.504 148.165 111.759 148.077 111.89 148.165V148.182Z" fill="#263238"/>
<path d="M90.8187 144.888L93.6326 149.292C93.6326 149.292 96.3846 149.929 97.0726 150.774C98.3442 152.458 99.4754 154.281 100.451 156.217C100.719 157.063 96.6667 159.398 96.1507 159.084C95.6347 158.77 92.7451 153.987 92.3805 153.133C92.2751 152.863 92.2206 152.569 92.2206 152.272C92.2206 151.974 92.2751 151.681 92.3805 151.41L89.3945 147.384L90.8187 144.888Z" fill="#B97964"/>
<path d="M85.5491 104.795C88.0878 106.405 88.3011 112.799 88.3011 112.799C88.3011 112.799 82.4737 126.029 82.1091 128.099C81.7444 130.168 92.8831 146.965 92.8831 146.965L90.2687 149.816C90.2687 149.816 76.839 132.97 75.3873 128.88C73.9356 124.789 85.5491 104.795 85.5491 104.795Z" fill="#407BFF"/>
<path opacity="0.7" d="M85.5491 104.795C88.0878 106.405 88.3011 112.799 88.3011 112.799C88.3011 112.799 82.4737 126.029 82.1091 128.099C81.7444 130.168 92.8831 146.965 92.8831 146.965L90.2687 149.816C90.2687 149.816 76.839 132.97 75.3873 128.88C73.9356 124.789 85.5491 104.795 85.5491 104.795Z" fill="white"/>
<path d="M117.277 138.26C117.277 138.677 117.171 139.085 116.973 139.432C116.775 139.779 116.494 140.05 116.164 140.209C115.835 140.369 115.472 140.411 115.123 140.329C114.773 140.248 114.452 140.047 114.2 139.752C113.948 139.457 113.776 139.081 113.707 138.672C113.637 138.262 113.673 137.838 113.809 137.453C113.946 137.067 114.177 136.738 114.473 136.506C114.769 136.274 115.118 136.15 115.474 136.15C115.953 136.15 116.411 136.373 116.749 136.768C117.087 137.164 117.277 137.701 117.277 138.26Z" fill="#263238"/>
<g opacity="0.6">
<path d="M117.277 138.26C117.277 138.677 117.171 139.085 116.973 139.432C116.775 139.779 116.494 140.05 116.164 140.209C115.835 140.369 115.472 140.411 115.123 140.329C114.773 140.248 114.452 140.047 114.2 139.752C113.948 139.457 113.776 139.081 113.707 138.672C113.637 138.262 113.673 137.838 113.809 137.453C113.946 137.067 114.177 136.738 114.473 136.506C114.769 136.274 115.118 136.15 115.474 136.15C115.953 136.15 116.411 136.373 116.749 136.768C117.087 137.164 117.277 137.701 117.277 138.26Z" fill="white"/>
</g>
<path d="M108.613 120.867C108.665 119.564 108.792 118.268 108.991 116.985C109.638 112.202 110.367 106.775 104.258 103.683C102.414 102.749 100.777 102.765 99.3939 103.739C96.2635 105.946 95.4585 112.323 95.3003 113.99C94.7557 113.914 94.2035 113.987 93.6868 114.202C93.1701 114.417 92.7028 114.769 92.3212 115.23C90.0852 118.024 91.1035 124.458 91.1516 124.732C91.1599 124.783 91.1767 124.832 91.2013 124.876C91.2259 124.92 91.2577 124.958 91.2949 124.987C91.332 125.016 91.3738 125.036 91.4177 125.046C91.4616 125.057 91.5068 125.056 91.5507 125.046C91.6399 125.026 91.7189 124.966 91.7705 124.879C91.822 124.791 91.8419 124.683 91.8259 124.579C91.8259 124.514 90.8214 118.282 92.8166 115.786C93.1699 115.369 93.6069 115.062 94.0876 114.893C94.5683 114.724 95.0774 114.699 95.5686 114.819C96.0848 114.858 96.5856 115.041 97.0295 115.352C97.4735 115.663 97.8476 116.093 98.1211 116.607C99.8479 119.884 97.8871 126.415 97.8665 126.479C97.8377 126.581 97.8439 126.691 97.8837 126.788C97.9236 126.884 97.9939 126.958 98.0798 126.995C98.1184 127.003 98.1581 127.003 98.1967 126.995C98.267 126.992 98.3351 126.966 98.3926 126.919C98.4501 126.871 98.4945 126.805 98.5201 126.729C98.6027 126.447 100.584 119.772 98.7059 116.164C98.4068 115.599 98.0053 115.118 97.5297 114.755C97.0541 114.392 96.5162 114.155 95.9539 114.062C96.1121 112.508 96.8964 106.397 99.7172 104.4C100.901 103.594 102.325 103.594 103.955 104.4C109.576 107.242 108.923 112.122 108.283 116.832C108.078 118.163 107.95 119.508 107.898 120.859C107.815 127.301 109.583 137.696 114.702 137.914V137.108C109.955 136.891 108.544 126.077 108.613 120.867Z" fill="#263238"/>
<path opacity="0.2" d="M108.613 120.867C108.665 119.564 108.792 118.268 108.991 116.985C109.638 112.202 110.367 106.775 104.258 103.683C102.414 102.749 100.777 102.765 99.3939 103.739C96.2635 105.946 95.4585 112.323 95.3003 113.99C94.7557 113.914 94.2035 113.987 93.6868 114.202C93.1701 114.417 92.7028 114.769 92.3212 115.23C90.0852 118.024 91.1035 124.458 91.1516 124.732C91.1599 124.783 91.1767 124.832 91.2013 124.876C91.2259 124.92 91.2577 124.958 91.2949 124.987C91.332 125.016 91.3738 125.036 91.4177 125.046C91.4616 125.057 91.5068 125.056 91.5507 125.046C91.6399 125.026 91.7189 124.966 91.7705 124.879C91.822 124.791 91.8419 124.683 91.8259 124.579C91.8259 124.514 90.8214 118.282 92.8166 115.786C93.1699 115.369 93.6069 115.062 94.0876 114.893C94.5683 114.724 95.0774 114.699 95.5686 114.819C96.0848 114.858 96.5856 115.041 97.0295 115.352C97.4735 115.663 97.8476 116.093 98.1211 116.607C99.8479 119.884 97.8871 126.415 97.8665 126.479C97.8377 126.581 97.8439 126.691 97.8837 126.788C97.9236 126.884 97.9939 126.958 98.0798 126.995C98.1184 127.003 98.1581 127.003 98.1967 126.995C98.267 126.992 98.3351 126.966 98.3926 126.919C98.4501 126.871 98.4945 126.805 98.5201 126.729C98.6027 126.447 100.584 119.772 98.7059 116.164C98.4068 115.599 98.0053 115.118 97.5297 114.755C97.0541 114.392 96.5162 114.155 95.9539 114.062C96.1121 112.508 96.8964 106.397 99.7172 104.4C100.901 103.594 102.325 103.594 103.955 104.4C109.576 107.242 108.923 112.122 108.283 116.832C108.078 118.163 107.95 119.508 107.898 120.859C107.815 127.301 109.583 137.696 114.702 137.914V137.108C109.955 136.891 108.544 126.077 108.613 120.867Z" fill="white"/>
<path d="M98.5714 125.996L97.622 125.771C97.622 125.771 96.934 127.542 97.4912 127.856C98.0485 128.17 98.8879 126.922 98.5714 125.996Z" fill="#263238"/>
<g opacity="0.6">
<path d="M98.5636 125.997L97.6142 125.771C97.6142 125.771 96.9262 127.543 97.4834 127.857C98.0407 128.171 98.8801 126.923 98.5636 125.997Z" fill="white"/>
</g>
<path d="M91.3394 124.008H92.3026C92.3026 124.008 92.7154 125.916 92.0756 126.077C91.4358 126.238 90.8647 124.813 91.3394 124.008Z" fill="#263238"/>
<g opacity="0.6">
<path d="M91.3394 124.008H92.3026C92.3026 124.008 92.7154 125.916 92.0756 126.077C91.4358 126.238 90.8647 124.813 91.3394 124.008Z" fill="white"/>
</g>
<path d="M115.082 138.518C115.64 138.518 116.093 137.988 116.093 137.334C116.093 136.68 115.64 136.15 115.082 136.15C114.523 136.15 114.07 136.68 114.07 137.334C114.07 137.988 114.523 138.518 115.082 138.518Z" fill="#263238"/>
<g opacity="0.7">
<path d="M115.082 138.518C115.64 138.518 116.093 137.988 116.093 137.334C116.093 136.68 115.64 136.15 115.082 136.15C114.523 136.15 114.07 136.68 114.07 137.334C114.07 137.988 114.523 138.518 115.082 138.518Z" fill="white"/>
</g>
<path d="M101.532 114.345C97.8858 109.514 98.2022 106.172 98.2022 106.172C102.97 105.987 104.559 98.7637 104.559 98.7637L108.687 104.94C107.966 105.629 107.288 106.377 106.658 107.178C103.981 110.649 105.282 112.082 105.282 112.082C104.745 114.909 101.532 114.345 101.532 114.345Z" fill="#B97964"/>
<path opacity="0.2" d="M108.706 104.972C107.985 105.661 107.307 106.409 106.677 107.211C104.785 104.11 104.578 98.7959 104.578 98.7959L108.706 104.972Z" fill="black"/>
<path d="M113.188 82.1828C118.754 83.7933 119.827 87.7712 118.836 94.6077C117.598 103.151 114.763 108.667 108.172 104.891C99.2146 99.7531 103.934 79.5497 113.188 82.1828Z" fill="#B97964"/>
<path d="M115.31 93.2236C115.555 94.3238 115.911 95.3861 116.37 96.3882C116.15 96.6106 115.882 96.7577 115.596 96.8131C115.309 96.8685 115.015 96.8301 114.746 96.7023L115.31 93.2236Z" fill="#A24E3F"/>
<path d="M112.016 91.7181C111.913 92.2576 111.583 92.628 111.273 92.5233C110.964 92.4186 110.799 91.9435 110.902 91.404C111.005 90.8645 111.335 90.4941 111.638 90.5988C111.941 90.7035 112.147 91.1786 112.016 91.7181Z" fill="#263238"/>
<path d="M111.504 90.59L112.591 90.3887C112.591 90.3887 111.91 91.2422 111.504 90.59Z" fill="#263238"/>
<path d="M117.752 93.0706C117.655 93.6101 117.325 93.9805 117.016 93.8758C116.706 93.7712 116.541 93.2961 116.644 92.7566C116.747 92.2171 117.077 91.8466 117.38 91.9513C117.683 92.056 117.855 92.5311 117.752 93.0706Z" fill="#263238"/>
<path d="M117.25 91.9435L118.337 91.7422C118.337 91.7422 117.649 92.6038 117.25 91.9435Z" fill="#263238"/>
<path d="M110.268 87.7724C110.229 87.7728 110.191 87.762 110.156 87.7409C110.121 87.7199 110.091 87.6893 110.069 87.6517C110.03 87.5893 110.013 87.5115 110.022 87.4349C110.031 87.3583 110.065 87.2887 110.117 87.241C110.539 86.9289 111.018 86.7365 111.515 86.6792C112.012 86.6219 112.513 86.7012 112.979 86.9108C113.036 86.9417 113.082 86.9969 113.105 87.0654C113.129 87.1338 113.129 87.2103 113.107 87.2791C113.084 87.348 113.039 87.404 112.982 87.4358C112.925 87.4676 112.86 87.4728 112.8 87.4503C112.412 87.281 111.997 87.2162 111.585 87.2608C111.173 87.3055 110.774 87.4583 110.42 87.708C110.376 87.7467 110.323 87.7691 110.268 87.7724Z" fill="#263238"/>
<path d="M119.109 89.5356C119.075 89.5357 119.041 89.5271 119.01 89.5104C118.979 89.4937 118.952 89.4693 118.93 89.439C118.702 89.1049 118.414 88.8352 118.085 88.6498C117.756 88.4644 117.396 88.3681 117.031 88.368C116.966 88.3729 116.902 88.3492 116.851 88.3016C116.8 88.2539 116.766 88.1857 116.756 88.1103C116.748 88.0346 116.766 87.9583 116.806 87.898C116.846 87.8377 116.904 87.7983 116.969 87.7882C117.413 87.7749 117.854 87.8813 118.257 88.0991C118.66 88.3169 119.015 88.6404 119.294 89.0444C119.339 89.0998 119.365 89.1733 119.365 89.2497C119.365 89.3262 119.339 89.3997 119.294 89.4551C119.27 89.4831 119.241 89.5048 119.209 89.5187C119.177 89.5326 119.143 89.5383 119.109 89.5356Z" fill="#263238"/>
<path d="M104.808 91.4357C104.808 91.4357 108.53 86.8217 108.998 82.5781C108.998 82.5781 121.134 80.4442 118.953 93.7145C118.953 93.7145 122.455 82.3768 112.926 79.3893C103.397 76.4019 100.033 92.8046 103.982 99.1016C103.961 99.1016 102.51 94.3265 104.808 91.4357Z" fill="#263238"/>
<path d="M105.431 93.0788C105.534 92.3127 105.376 91.5298 104.989 90.8997C104.603 90.2696 104.02 89.8432 103.367 89.7129C101.592 89.4391 99.9269 93.3525 103.993 95.575C104.571 95.8971 105.052 95.2851 105.431 93.0788Z" fill="#B97964"/>
<path d="M122.308 96.6295C120.863 95.0191 121.083 92.2812 122.218 89.5032C123.353 86.7251 120.416 84.6717 120.416 84.6717C120.416 84.6717 120.182 81.177 117.884 79.7759C117.471 79.5182 115.558 79.7759 115.558 79.7759C113.054 76.5549 109.029 73.9057 105.871 78.101C104.007 80.5811 102.156 78.0446 99.2045 83.1982C97.0717 86.9264 98.5578 90.2037 97.9386 91.4035C95.0765 96.9114 98.7986 98.4011 99.693 100.318C99.693 100.318 101.661 99.2224 101.496 98.5621C100.12 93.2878 102.493 89.8655 104.309 90.703C106.126 91.5404 107.419 91.323 108.733 89.3824C110.047 87.4418 109.132 85.3562 112.173 84.873C115.214 84.3899 115.524 82.3526 115.524 82.3526C115.573 83.2585 115.831 84.1317 116.271 84.8792C116.71 85.6266 117.316 86.2201 118.021 86.5963C120.56 88.1504 119.562 90.0266 119.205 92.6758C118.847 95.325 119.968 96.3477 121.957 98.2642C123.945 100.181 121.847 101.582 121.847 101.582C122.224 101.358 122.548 101.028 122.788 100.622C123.029 100.215 123.179 99.7439 123.225 99.252C123.271 98.76 123.211 98.2625 123.05 97.8046C122.89 97.3466 122.635 96.9427 122.308 96.6295Z" fill="#263238"/>
<path d="M114.326 99.6574C113.833 100.179 113.373 100.741 112.95 101.34L112.647 101.131C111.271 100.173 110.927 99.2065 110.934 98.4174C110.951 98.0358 111.043 97.6639 111.202 97.3303C111.289 97.1372 111.398 96.9585 111.525 96.7988C112.142 97.8272 112.94 98.6894 113.865 99.3273L114.326 99.6574Z" fill="#263238"/>
<path d="M113.866 99.3273L113.453 99.8104C112.173 98.9005 111.389 98.063 111.203 97.3303C111.29 97.1372 111.399 96.9585 111.526 96.7988C112.143 97.8272 112.941 98.6894 113.866 99.3273Z" fill="white"/>
<path d="M112.647 101.131C111.271 100.172 110.927 99.2061 110.934 98.417C111.447 98.7933 111.899 99.2731 112.268 99.8342C112.508 100.209 112.64 100.663 112.647 101.131Z" fill="#DE5753"/>
</svg>
