<svg width="310" height="354" viewBox="0 0 310 354" fill="none" xmlns="http://www.w3.org/2000/svg">
<path d="M45.3504 329.238C105.911 362.254 204.048 362.254 264.608 329.238C325.168 296.221 325.093 242.738 264.608 209.721C204.123 176.704 105.941 176.713 45.4109 209.721C-15.1193 242.729 -15.1344 296.238 45.3504 329.238Z" fill="#EBEBEB"/>
<path d="M240.477 83.8382L243.26 81.3903V74.3838C243.26 68.8392 247.123 62.395 251.327 59.6184C255.531 56.8418 258.941 59.0908 258.941 64.644V65.6561C259.824 64.0144 261.031 62.6312 262.464 61.6165C265.488 59.6184 267.945 61.2359 267.945 65.2322V65.6993L273.51 62.0231C275.498 60.7083 277.116 61.7722 277.116 64.4018C277.048 65.8331 276.686 67.2258 276.059 68.4672C275.433 69.7085 274.559 70.7635 273.51 71.5467L240.477 93.3618C238.489 94.6766 236.871 93.6127 236.871 90.9831C236.94 89.5518 237.302 88.1591 237.928 86.9177C238.555 85.6764 239.428 84.6214 240.477 83.8382Z" fill="#EBEBEB"/>
<path d="M40.8814 274.259C40.4883 274.181 40.0724 274.043 39.6037 273.905C38.0238 273.42 36.4668 272.842 34.9388 272.175C31.8911 270.909 29.0168 269.153 26.4029 266.959C24.9693 265.792 23.7429 264.325 22.7889 262.634C21.8354 260.922 21.4968 258.855 21.8438 256.864C22.0359 255.882 22.4697 254.982 23.094 254.273C23.7183 253.563 24.507 253.073 25.3671 252.859C26.176 252.712 27.0153 252.859 27.8243 252.695C28.2385 252.657 28.6313 252.469 28.9454 252.157C29.2596 251.846 29.4787 251.428 29.5707 250.965C29.574 250.434 29.4484 249.913 29.2078 249.46C27.7389 246.381 26.4752 243.18 25.4275 239.884C24.5506 236.943 24.4977 233.762 25.2763 230.785C25.9375 227.822 27.3533 225.152 29.3439 223.112C30.2512 222.247 31.5063 221.503 32.6026 222.048C32.9511 222.251 33.2572 222.538 33.5 222.889C33.7427 223.239 33.9163 223.646 34.0088 224.081C34.1781 224.95 34.2642 225.837 34.2659 226.728C34.3739 228.643 34.694 230.536 35.2185 232.359C35.4533 233.498 36.0249 234.509 36.8365 235.222C38.2428 236.225 40.1783 235.438 41.6753 236.251C43.1723 237.064 43.6864 238.933 43.7544 240.697C43.8225 242.462 43.5125 244.244 43.6864 246C43.7169 246.554 43.8704 247.09 44.1325 247.557C44.5487 248.067 45.0306 248.502 45.5614 248.846C46.2589 249.506 46.818 250.336 47.1974 251.277C47.5769 252.217 47.7671 253.242 47.754 254.278C47.7082 256.347 47.3633 258.393 46.7333 260.333C46.0392 263.045 45.5336 265.816 45.2212 268.619C44.9747 270.337 44.3386 271.951 43.3764 273.299C43.091 273.725 42.7013 274.043 42.2569 274.214C41.8125 274.385 41.3336 274.401 40.8814 274.259Z" fill="#BA68C8"/>
<path d="M43.3902 272.823C43.3457 272.822 43.302 272.808 43.2636 272.782C43.2251 272.756 43.1932 272.72 43.171 272.676C34.3477 255.652 31.5579 243.664 30.764 236.597C29.8945 228.898 31.1193 225.291 31.1723 225.144C31.1847 225.108 31.2032 225.075 31.2269 225.046C31.2505 225.018 31.2787 224.996 31.31 224.98C31.3412 224.964 31.3748 224.956 31.4089 224.955C31.443 224.954 31.4769 224.961 31.5087 224.975C31.5405 224.99 31.5695 225.011 31.5941 225.038C31.6187 225.065 31.6384 225.097 31.6521 225.133C31.6658 225.169 31.6732 225.207 31.6739 225.246C31.6746 225.285 31.6686 225.324 31.6561 225.36C31.6561 225.421 30.4313 229.045 31.2857 236.605C32.0417 243.603 34.8694 255.488 43.617 272.381C43.6347 272.415 43.6464 272.452 43.6514 272.491C43.6564 272.529 43.6546 272.569 43.6462 272.606C43.6377 272.644 43.6228 272.68 43.6022 272.711C43.5816 272.742 43.5558 272.768 43.5263 272.788C43.4838 272.811 43.4373 272.823 43.3902 272.823Z" fill="white"/>
<path d="M38.6737 262.953C27.9226 261.604 24.8832 257.564 24.7547 257.391C24.7066 257.336 24.6797 257.262 24.6797 257.184C24.6797 257.106 24.7066 257.031 24.7547 256.976C24.778 256.948 24.8061 256.925 24.8373 256.91C24.8685 256.895 24.9021 256.887 24.9361 256.887C24.9701 256.887 25.0037 256.895 25.0349 256.91C25.0661 256.925 25.0942 256.948 25.1176 256.976C25.1176 257.019 28.1872 261.007 38.6889 262.331C38.7504 262.343 38.8063 262.379 38.8465 262.434C38.8868 262.488 38.9089 262.558 38.9089 262.629C38.9089 262.7 38.8868 262.77 38.8465 262.824C38.8063 262.879 38.7504 262.915 38.6889 262.927L38.6737 262.953Z" fill="white"/>
<path d="M35.6421 255.29C35.5848 255.29 35.5291 255.268 35.4833 255.229C35.4563 255.205 35.4337 255.176 35.4168 255.142C35.3999 255.108 35.389 255.071 35.3848 255.032C35.3806 254.994 35.3831 254.955 35.3922 254.917C35.4013 254.88 35.4169 254.844 35.4379 254.814C38.8478 249.685 39.067 241.277 39.0746 241.19C39.0745 241.151 39.0814 241.113 39.0949 241.077C39.1084 241.041 39.1281 241.009 39.1529 240.982C39.1777 240.955 39.207 240.935 39.2391 240.921C39.2711 240.908 39.3052 240.902 39.3392 240.905C39.3733 240.905 39.407 240.913 39.4383 240.928C39.4696 240.943 39.4978 240.966 39.5212 240.994C39.5446 241.023 39.5626 241.056 39.5742 241.093C39.5858 241.13 39.5908 241.169 39.5887 241.208C39.5887 241.562 39.3619 249.858 35.8538 255.169C35.8291 255.206 35.7971 255.237 35.7604 255.258C35.7237 255.279 35.6831 255.29 35.6421 255.29Z" fill="white"/>
<path d="M255.987 221.685C257.031 213.64 257.046 203.823 251.882 189.481C246.718 175.139 248.321 167.623 253.855 165.573C259.389 163.523 271.653 174.413 271.199 192.725C270.753 210.405 260.312 225.006 260.312 225.006L255.987 221.685Z" fill="#BA68C8"/>
<path opacity="0.1" d="M255.987 221.685C257.031 213.64 257.046 203.823 251.882 189.481C246.718 175.139 248.321 167.623 253.855 165.573C259.389 163.523 271.653 174.413 271.199 192.725C270.753 210.405 260.312 225.006 260.312 225.006L255.987 221.685Z" fill="black"/>
<path d="M258.688 224.054C258.656 224.062 258.623 224.062 258.59 224.054C258.558 224.04 258.529 224.019 258.504 223.991C258.48 223.964 258.46 223.93 258.448 223.894C258.435 223.857 258.429 223.818 258.43 223.779C258.431 223.739 258.439 223.701 258.454 223.665C258.507 223.518 264.162 208.407 263.746 194.688C263.278 178.902 255.634 170.217 255.558 170.131C255.534 170.103 255.515 170.071 255.501 170.035C255.488 169.999 255.481 169.961 255.48 169.922C255.48 169.883 255.486 169.844 255.499 169.808C255.512 169.772 255.531 169.739 255.555 169.711C255.578 169.683 255.607 169.661 255.638 169.646C255.669 169.631 255.703 169.622 255.737 169.622C255.771 169.622 255.805 169.629 255.837 169.644C255.868 169.658 255.897 169.68 255.921 169.707C255.997 169.793 263.784 178.625 264.238 194.671C264.654 208.51 258.945 223.752 258.9 223.899C258.879 223.943 258.848 223.98 258.811 224.007C258.775 224.034 258.732 224.051 258.688 224.054Z" fill="white"/>
<path d="M256.289 228.821C256.289 228.821 259.207 209.376 269.565 198.2C279.924 187.024 297.192 184.897 302.605 190.865C308.019 196.833 304.548 202.638 296.92 204.653C288.301 206.928 283.016 210.907 288.301 213.952C293.208 216.772 292.656 222.887 287.545 225.819C279.379 230.508 264.636 226.044 261.082 235.265L256.289 228.821Z" fill="#BA68C8"/>
<path d="M258.482 232.938H258.399C258.335 232.91 258.282 232.855 258.252 232.784C258.223 232.713 258.218 232.632 258.24 232.557C260.628 224.953 264.308 217.965 269.067 211.996C272.798 207.38 277.165 203.497 281.996 200.501C286.795 197.47 292.02 195.421 297.435 194.446C297.504 194.438 297.572 194.462 297.626 194.512C297.68 194.563 297.714 194.635 297.722 194.714C297.726 194.752 297.724 194.792 297.714 194.829C297.705 194.867 297.69 194.902 297.669 194.932C297.647 194.963 297.621 194.988 297.592 195.007C297.562 195.026 297.529 195.038 297.495 195.042C292.135 196.027 286.966 198.076 282.223 201.097C274.662 205.794 264.402 215.11 258.709 232.799C258.684 232.842 258.651 232.877 258.611 232.901C258.571 232.925 258.527 232.938 258.482 232.938Z" fill="white"/>
<path d="M263.736 220.708C263.682 220.708 263.628 220.689 263.584 220.653C263.539 220.618 263.505 220.567 263.487 220.509C263.465 220.434 263.469 220.353 263.498 220.282C263.528 220.21 263.581 220.155 263.645 220.128C272.484 216.599 285.155 218.45 285.284 218.467C285.318 218.472 285.35 218.485 285.38 218.505C285.409 218.524 285.435 218.55 285.456 218.581C285.476 218.612 285.491 218.647 285.5 218.685C285.509 218.722 285.511 218.762 285.507 218.8C285.502 218.839 285.491 218.876 285.474 218.91C285.457 218.944 285.434 218.973 285.407 218.997C285.38 219.021 285.35 219.038 285.317 219.048C285.284 219.058 285.249 219.061 285.216 219.055C285.095 219.055 272.537 217.204 263.819 220.69C263.793 220.704 263.765 220.71 263.736 220.708Z" fill="white"/>
<path d="M51.7373 21.2993C51.674 19.9634 51.3365 18.6633 50.7519 17.5046C50.1673 16.3459 49.3523 15.3611 48.3728 14.6302L45.6283 12.8137C44.5857 12.2082 43.433 11.8926 42.2638 11.8926C41.0946 11.8926 39.9419 12.2082 38.8993 12.8137L17.1928 27.1467C16.1591 27.8899 15.3143 28.9309 14.7432 30.1655C14.2515 31.1464 13.9426 32.2332 13.8359 33.3573C13.8359 33.513 13.8359 33.6687 13.8359 33.8244V62.4903C13.9 63.827 14.2387 65.1276 14.8246 66.2864C15.4105 67.4452 16.2271 68.4295 17.208 69.1594L19.9449 70.9759L20.2927 71.1835L20.4212 71.2441L20.6556 71.3565L20.8371 71.4344L21.0336 71.5122L21.2529 71.5814L21.4192 71.6333L21.6763 71.7025H21.8048L22.1148 71.7631H22.1753C23.7253 72.0538 25.3159 71.7656 26.7116 70.9413L48.3728 56.643C49.3538 55.9112 50.1703 54.9252 50.7562 53.7651C51.3421 52.6049 51.6807 51.3031 51.7448 49.9652L51.7373 21.2993Z" fill="#BA68C8"/>
<path opacity="0.4" d="M24.2837 36.2897C23.8949 37.0263 23.6044 37.8251 23.4218 38.6598C23.8731 36.4978 25.0346 34.6176 26.6653 33.4092L48.3718 19.0763C50.2317 17.848 51.7438 18.8427 51.7438 21.2993C51.6797 19.9626 51.341 18.6621 50.7551 17.5033C50.1692 16.3445 49.3526 15.3602 48.3718 14.6302L45.6273 12.8137C44.5847 12.2082 43.432 11.8926 42.2628 11.8926C41.0936 11.8926 39.9409 12.2082 38.8983 12.8137L17.1918 27.1467C16.1581 27.8899 15.3133 28.931 14.7422 30.1655L14.8102 30.0271L24.2837 36.2897Z" fill="white"/>
<path opacity="0.1" d="M25.9707 71.3395L25.8119 71.3914L25.5398 71.4519H25.2827H25.0181C24.7054 71.4256 24.4061 71.2964 24.1562 71.08L24.0352 70.9502L23.9672 70.881L23.8764 70.7513L23.8008 70.6388L23.7252 70.5004L23.6572 70.362C23.6572 70.362 23.6572 70.2669 23.6042 70.215C23.5809 70.1618 23.5607 70.1069 23.5438 70.0506L23.4228 69.9122V69.7392C23.4228 69.6873 23.4228 69.6354 23.4228 69.5835C23.4186 69.5 23.4186 69.4162 23.4228 69.3327C23.4186 69.2867 23.4186 69.2403 23.4228 69.1943C23.4228 69.0645 23.4228 68.9261 23.4228 68.7791V40.0872C23.4232 39.7771 23.446 39.4675 23.4908 39.1617C23.4908 39.0492 23.4908 38.9281 23.5513 38.8157V38.6773C23.7245 37.8445 24.0048 37.0458 24.383 36.3072L14.8113 30.0273L14.7432 30.1657C14.2515 31.1466 13.9426 32.2334 13.8359 33.3576C13.8359 33.5133 13.8359 33.669 13.8359 33.8247V62.4906C13.9 63.8273 14.2387 65.1278 14.8246 66.2866C15.4105 67.4454 16.2271 68.4298 17.208 69.1597L19.9449 70.9762L20.2927 71.1838L20.4212 71.2443L20.6556 71.3568L20.8371 71.4346L21.0336 71.5125L21.2529 71.5817L21.4192 71.6336L21.6763 71.7028H21.8048L22.1148 71.7633H22.1753C23.4516 71.9852 24.756 71.8395 25.9707 71.3395Z" fill="black"/>
<path d="M42.255 47.5864C43.7048 43.8812 44.4471 39.8648 44.4325 35.8052C45.1408 34.548 45.7361 33.212 46.2092 31.8176C45.5988 32.6364 44.9117 33.3761 44.1603 34.0233C44.9229 32.8039 45.4558 31.4166 45.7253 29.9492C45.071 30.99 44.3095 31.9368 43.4571 32.7691C43.0802 32.4482 42.6228 32.2749 42.1529 32.2749C41.6831 32.2749 41.2257 32.4482 40.8487 32.7691C38.5806 34.2915 36.8567 38.6857 37.3784 41.7477C34.4147 43.4777 31.7836 43.0452 30.0295 40.8827C29.092 43.9448 29.5456 46.8512 31.1333 47.4135C30.6475 47.7472 30.0776 47.8843 29.5154 47.8027C29.5154 50.3977 30.657 51.9287 32.3733 51.3146C31.9183 51.8329 31.3682 52.2289 30.7629 52.4737C31.2165 54.3334 32.5321 55.0686 34.0971 54.0566C32.8788 56.5351 31.0339 58.5342 28.8047 59.7915C30.3773 60.2932 32.2523 59.9559 34.271 58.6238C37.7942 56.2969 40.5009 52.0844 42.2323 47.5259" fill="white"/>
<path d="M51.7375 125.678C51.6697 124.348 51.3299 123.055 50.7455 121.902C50.1612 120.75 49.3485 119.771 48.373 119.043L45.6285 117.227C44.586 116.621 43.4333 116.306 42.2641 116.306C41.0949 116.306 39.9421 116.621 38.8996 117.227L17.2007 131.56C16.1669 132.303 15.3221 133.344 14.751 134.579C14.2593 135.56 13.9504 136.646 13.8438 137.77C13.8438 137.926 13.8438 138.082 13.8438 138.238V166.903C13.9099 168.232 14.2474 169.524 14.829 170.676C15.4107 171.828 16.2204 172.809 17.1931 173.538L19.93 175.354L20.2778 175.553L20.4064 175.623L20.6407 175.735L20.8222 175.813L21.0188 175.891L21.238 175.96L21.4044 176.012L21.6614 176.081H21.7899L22.0999 176.142H22.1604C23.7145 176.419 25.3054 176.116 26.6968 175.277L48.373 161.021C49.3541 160.29 50.1706 159.304 50.7565 158.144C51.3423 156.983 51.681 155.682 51.7451 154.344L51.7375 125.678Z" fill="#BA68C8"/>
<path opacity="0.4" d="M24.2839 140.668C23.9057 141.407 23.6255 142.205 23.4523 143.038C23.8961 140.882 25.0463 139.003 26.6655 137.788L48.372 123.455C50.2319 122.226 51.744 123.221 51.744 125.678C51.6754 124.347 51.3344 123.053 50.7487 121.901C50.163 120.749 49.3489 119.77 48.372 119.043L45.6275 117.227C44.585 116.621 43.4323 116.306 42.263 116.306C41.0938 116.306 39.9411 116.621 38.8986 117.227L17.1996 131.56C16.1659 132.303 15.3211 133.344 14.75 134.579L14.818 134.44L24.2839 140.668Z" fill="white"/>
<path opacity="0.1" d="M25.9711 175.718L25.8123 175.77C25.7233 175.801 25.6323 175.824 25.5401 175.839H25.2831H25.0185C24.7058 175.812 24.4065 175.683 24.1565 175.467L24.0356 175.337L23.9675 175.268L23.8768 175.129L23.8012 175.026L23.7256 174.887L23.6575 174.749C23.6575 174.697 23.6575 174.654 23.6046 174.602C23.5799 174.546 23.5597 174.488 23.5441 174.429L23.4988 174.282L23.4534 174.074C23.4534 174.074 23.4534 173.979 23.4534 173.927C23.4492 173.844 23.4492 173.76 23.4534 173.676C23.4493 173.63 23.4493 173.584 23.4534 173.538C23.4534 173.408 23.4534 173.261 23.4534 173.114V144.465C23.4538 144.155 23.4766 143.846 23.5215 143.54C23.5215 143.419 23.5215 143.306 23.5819 143.194V143.055C23.7551 142.223 24.0354 141.424 24.4136 140.685L14.9402 134.423L14.8721 134.561C14.3804 135.542 14.0715 136.629 13.9648 137.753C13.9648 137.909 13.9648 138.064 13.9648 138.22V166.886C14.0151 168.205 14.3329 169.493 14.8932 170.648C15.4535 171.802 16.241 172.792 17.1932 173.538L19.9302 175.354L20.2779 175.553L20.4065 175.623L20.6409 175.735L20.8223 175.813L21.0189 175.891L21.2381 175.96L21.4045 176.012L21.6615 176.081H21.7901L22.1001 176.142H22.1605C23.4417 176.366 24.7517 176.221 25.9711 175.718Z" fill="black"/>
<path d="M37.5146 138.938C39.7374 137.468 40.0021 137.312 40.8791 136.793C41.3408 136.476 41.8563 136.276 42.3912 136.205C42.7331 136.165 43.075 136.28 43.3439 136.525C43.6461 136.787 43.8662 137.155 43.9714 137.572C44.1662 138.274 44.2631 139.006 44.2587 139.743C44.2965 141.049 44.3041 141.473 44.3041 144.838C44.3041 148.202 44.3041 148.626 44.2587 150.028C44.2454 150.885 44.1491 151.738 43.9714 152.571C43.8346 153.222 43.6236 153.85 43.3439 154.439C43.0931 155.015 42.7724 155.548 42.3912 156.022C41.9467 156.582 41.438 157.071 40.8791 157.475C40.0021 158.115 39.7374 158.34 37.5146 159.767C35.2918 161.195 35.0347 161.402 34.1577 161.921C33.6954 162.235 33.1799 162.433 32.6456 162.501C32.3013 162.541 31.9569 162.426 31.6854 162.181C31.3875 161.915 31.1705 161.549 31.0654 161.134C30.8711 160.435 30.7741 159.705 30.7781 158.972C30.7781 157.657 30.7252 157.242 30.7252 153.877C30.7252 150.512 30.7252 150.079 30.7781 148.687C30.7893 147.812 30.8857 146.942 31.0654 146.092C31.2043 145.442 31.4125 144.815 31.6854 144.223C31.9426 143.649 32.2655 143.117 32.6456 142.64C33.0884 142.078 33.5973 141.589 34.1577 141.187C35.0347 140.547 35.2994 140.322 37.5146 138.895M37.5146 136.611C35.2464 138.099 34.9743 138.341 34.0897 138.947C33.3428 139.481 32.6636 140.13 32.071 140.876C31.4704 141.601 30.9614 142.42 30.5589 143.307C30.1373 144.218 29.8148 145.186 29.5987 146.187C29.3634 147.28 29.2341 148.4 29.2131 149.526C29.2131 150.901 29.1602 151.342 29.1602 154.785C29.1602 158.228 29.1602 158.66 29.2131 159.975C29.2132 160.935 29.3433 161.889 29.5987 162.803C29.7662 163.44 30.1016 164.002 30.5589 164.412C30.9878 164.795 31.5301 164.972 32.071 164.905C32.7825 164.825 33.4708 164.571 34.0897 164.162C34.9743 163.634 35.254 163.461 37.5146 161.973C39.7753 160.485 40.055 160.243 40.9471 159.629C42.4333 158.577 43.6409 157.082 44.4401 155.304C44.8607 154.393 45.1807 153.425 45.3928 152.424C45.631 151.334 45.7629 150.217 45.7859 149.093C45.7859 147.709 45.8313 147.268 45.8313 143.826C45.8313 140.383 45.8313 139.959 45.7859 138.636C45.7849 137.678 45.6522 136.726 45.3928 135.816C45.2265 135.178 44.8941 134.614 44.4401 134.198C44.0108 133.817 43.468 133.643 42.928 133.714C42.2157 133.79 41.5267 134.044 40.9093 134.458C40.0172 134.977 39.7374 135.15 37.4768 136.646M37.4768 142.813C35.1179 144.37 33.2051 148.548 33.2051 152.147C33.2051 155.745 35.1179 157.397 37.4768 155.84C39.8357 154.283 41.7486 150.105 41.7486 146.507C41.7486 142.909 39.8357 141.256 37.4768 142.813ZM37.4768 153.557C35.9647 154.569 34.7096 153.496 34.7096 151.161C34.7096 148.825 35.9496 146.109 37.4768 145.106C39.0041 144.102 40.2516 145.166 40.2516 147.51C40.2516 149.855 39.0116 152.553 37.4768 153.565M42.9129 138.973C42.9129 138.108 42.4668 137.745 41.9149 138.108C41.6102 138.358 41.3611 138.686 41.1877 139.066C41.0143 139.446 40.9216 139.868 40.9169 140.296C40.9169 141.161 41.363 141.516 41.9149 141.161C42.2186 140.913 42.4671 140.586 42.6404 140.207C42.8137 139.829 42.9071 139.409 42.9129 138.982" fill="white"/>
<path d="M89.512 58.9352C89.4527 57.6021 89.12 56.3038 88.5408 55.1452C87.9615 53.9866 87.152 53.0003 86.1777 52.2661L83.4332 50.4496C82.3893 49.8439 81.2354 49.5283 80.065 49.5283C78.8945 49.5283 77.7406 49.8439 76.6967 50.4496L54.9978 64.7825C54.0801 65.479 53.3055 66.395 52.7272 67.4672C52.149 68.5394 51.7809 69.7424 51.6484 70.9932C51.6484 71.1489 51.6484 71.3046 51.6484 71.4603V100.126C51.711 101.462 52.0484 102.763 52.633 103.921C53.2176 105.08 54.033 106.065 55.0129 106.795L57.7574 108.612L58.1052 108.819L58.2337 108.88L58.4681 108.992L58.642 109.07L58.8461 109.148L59.0578 109.217L59.2317 109.269L59.4888 109.338H59.6173L59.9273 109.399H59.9878C61.5378 109.689 63.1283 109.401 64.5241 108.577L86.1777 94.2788C87.1578 93.5466 87.9732 92.5603 88.5577 91.4001C89.1423 90.2399 89.4796 88.9383 89.5422 87.6011L89.512 58.9352Z" fill="#BA68C8"/>
<path opacity="0.4" d="M62.0659 73.9255C61.6888 74.6657 61.4062 75.4638 61.2267 76.2956C61.6725 74.1378 62.8254 72.2583 64.4475 71.0451L86.1767 56.7121C88.0366 55.4838 89.5412 56.4786 89.5412 58.9352C89.4786 57.5991 89.1412 56.2988 88.5566 55.1399C87.972 53.9811 87.1566 52.9964 86.1767 52.2661L83.4322 50.4496C82.3883 49.8439 81.2344 49.5283 80.0639 49.5283C78.8935 49.5283 77.7396 49.8439 76.6957 50.4496L54.9968 64.7825C53.9669 65.5284 53.1251 66.569 52.5547 67.8014L52.6152 67.663L62.0659 73.9255Z" fill="white"/>
<path opacity="0.1" d="M63.7506 108.975L63.5842 109.027C63.4978 109.059 63.4093 109.082 63.3196 109.097H63.0701H62.7375C62.4273 109.069 62.1307 108.94 61.8831 108.725L61.7621 108.595L61.6941 108.526L61.5958 108.387L61.5278 108.283C61.4982 108.241 61.4728 108.194 61.4522 108.145L61.3841 108.007C61.3841 107.963 61.3841 107.912 61.3236 107.86L61.2707 107.695L61.2253 107.54C61.2253 107.476 61.2102 107.407 61.18 107.332C61.1757 107.283 61.1757 107.234 61.18 107.185C61.1758 107.101 61.1758 107.018 61.18 106.934C61.1758 106.888 61.1758 106.842 61.18 106.796C61.1723 106.657 61.1723 106.519 61.18 106.38V77.7232C61.1842 77.4133 61.2069 77.1041 61.248 76.7977C61.248 76.6766 61.248 76.5641 61.3009 76.4517C61.3039 76.4056 61.3039 76.3594 61.3009 76.3133C61.4804 75.4815 61.763 74.6834 62.1402 73.9432L52.6592 67.6807L52.5987 67.8191C52.1037 68.7983 51.7945 69.8859 51.6914 71.0109C51.6914 71.1666 51.6914 71.3223 51.6914 71.478V100.144C51.754 101.48 52.0913 102.78 52.676 103.939C53.2606 105.098 54.076 106.083 55.0559 106.813L57.8004 108.629L58.1482 108.837L58.2767 108.898L58.5111 109.01L58.685 109.088L58.8891 109.166L59.1008 109.235L59.2747 109.287L59.5318 109.356H59.6603L59.9703 109.417H60.0308C61.2836 109.618 62.5606 109.467 63.7506 108.975Z" fill="black"/>
<path d="M72.9524 98.5607L76.5739 96.1647V82.3248L79.0992 80.6553L79.3638 75.846L76.5739 77.6884V75.0502C76.5739 73.9603 76.7176 73.4326 77.4056 72.9828L79.3638 71.6853V66.876L76.8612 68.5368C75.623 69.2834 74.5972 70.4195 73.9047 71.811C73.2121 73.2026 72.8817 74.7916 72.9524 76.3909V80.119L71.0547 81.3387V86.0269L72.9373 84.79L72.9524 98.5607Z" fill="white"/>
<path d="M40.4781 279.068L127.221 336.348C128.24 336.941 129.367 337.249 130.51 337.249C131.653 337.249 132.78 336.941 133.799 336.348L269.073 247.003C270.888 245.8 270.888 243.863 269.073 242.678L182.33 185.363C181.313 184.771 180.187 184.462 179.045 184.462C177.903 184.462 176.778 184.771 175.76 185.363L40.4781 274.743C38.6636 275.919 38.6636 277.857 40.4781 279.068Z" fill="#E0E0E0"/>
<path d="M43.206 265.228L127.492 320.908C128.522 321.505 129.66 321.816 130.815 321.816C131.969 321.816 133.108 321.505 134.137 320.908L267.771 232.652C269.608 231.441 269.608 229.478 267.771 228.267L183.478 172.587C182.448 171.99 181.31 171.679 180.155 171.679C179 171.679 177.862 171.99 176.832 172.587L43.206 260.903C41.3688 262.071 41.3688 264.034 43.206 265.228Z" fill="#37474F"/>
<path d="M127.495 320.925L43.2095 265.228C41.5688 264.147 41.3949 262.46 42.6878 261.249C41.8663 261.994 41.1917 262.93 40.7083 263.994C40.2249 265.058 39.9436 266.228 39.8828 267.425V270.998C39.9457 272.318 40.2797 273.603 40.8577 274.748C41.4357 275.893 42.2414 276.866 43.2095 277.589L127.495 333.26C128.518 333.882 129.663 334.194 130.822 334.168V321.833C129.663 321.859 128.518 321.547 127.495 320.925Z" fill="#455A64"/>
<path d="M267.773 245.004C268.74 244.283 269.545 243.311 270.121 242.167C270.698 241.023 271.031 239.74 271.092 238.421V234.849C271.032 233.651 270.751 232.482 270.267 231.418C269.784 230.353 269.109 229.418 268.287 228.673C269.58 229.884 269.414 231.571 267.773 232.652L134.139 320.924C133.118 321.545 131.976 321.857 130.82 321.833V334.185C131.976 334.21 133.118 333.897 134.139 333.277L267.773 245.004Z" fill="#263238"/>
<path d="M88.4429 290.944C89.8729 291.776 91.4545 292.21 93.0587 292.21C94.6629 292.21 96.2445 291.776 97.6745 290.944C100.222 289.214 100.222 286.533 97.6745 284.846C96.2432 284.019 94.6622 283.588 93.0587 283.588C91.4552 283.588 89.8742 284.019 88.4429 284.846C85.9253 286.533 85.9253 289.266 88.4429 290.944Z" fill="#263238"/>
<path d="M140.611 309.109L59.9316 255.782C58.8353 255.055 58.8353 253.87 59.9316 253.143L165.024 183.702C165.642 183.344 166.324 183.157 167.016 183.157C167.708 183.157 168.391 183.344 169.008 183.702L249.688 237.029C250.792 237.755 250.792 238.932 249.688 239.624L144.595 309.074C143.98 309.437 143.299 309.63 142.607 309.636C141.914 309.642 141.231 309.461 140.611 309.109Z" fill="white"/>
<path d="M219.531 204.341C219.893 204.55 220.293 204.659 220.699 204.659C221.104 204.659 221.505 204.55 221.867 204.341C221.993 204.269 222.098 204.159 222.172 204.022C222.246 203.885 222.286 203.728 222.286 203.567C222.286 203.406 222.246 203.248 222.172 203.112C222.098 202.975 221.993 202.864 221.867 202.793C221.505 202.584 221.104 202.475 220.699 202.475C220.293 202.475 219.893 202.584 219.531 202.793C218.88 203.216 218.88 203.908 219.531 204.341Z" fill="#263238"/>
<path d="M223.263 216.468C223.987 216.886 224.787 217.104 225.599 217.104C226.41 217.104 227.211 216.886 227.935 216.468C229.228 215.603 229.228 214.227 227.935 213.38C227.212 212.957 226.411 212.737 225.599 212.737C224.787 212.737 223.986 212.957 223.263 213.38C221.97 214.193 221.97 215.611 223.263 216.468Z" fill="#263238"/>
<path d="M219.998 211.088C220.86 210.526 220.815 209.574 219.892 208.969L204.514 198.805C204.02 198.505 203.47 198.342 202.911 198.33C202.351 198.318 201.797 198.457 201.293 198.736C200.431 199.307 200.477 200.258 201.399 200.864L216.777 211.027C217.272 211.326 217.822 211.487 218.381 211.498C218.941 211.509 219.495 211.368 219.998 211.088Z" fill="#263238"/>
<path d="M163.664 198.043C162.56 198.77 162.56 199.946 163.664 200.638L225.132 241.25C225.75 241.608 226.434 241.795 227.128 241.795C227.821 241.795 228.505 241.608 229.124 241.25L242.733 232.28L177.273 189.03L163.664 198.043Z" fill="#EBEBEB"/>
<path d="M164.117 205.093L159.21 201.858C159.005 201.739 158.778 201.677 158.548 201.677C158.319 201.677 158.092 201.739 157.887 201.858L154.795 203.9C154.424 204.142 154.424 204.531 154.795 204.765L155.218 205.05L153.653 206.002C153.472 206.114 153.487 206.183 153.698 206.166L156.45 205.863L159.701 208.008C159.909 208.124 160.136 208.185 160.367 208.185C160.597 208.185 160.825 208.124 161.032 208.008L164.117 205.967C164.194 205.933 164.261 205.874 164.308 205.796C164.355 205.718 164.381 205.625 164.381 205.53C164.381 205.435 164.355 205.343 164.308 205.265C164.261 205.187 164.194 205.127 164.117 205.093Z" fill="#EBEBEB"/>
<path d="M165.56 213.535L165.198 212.67C164.729 211.537 164.442 209.998 165.802 209.107C166.318 208.808 166.888 208.652 167.466 208.652C168.044 208.652 168.614 208.808 169.129 209.107C169.84 209.574 169.999 210.274 169.605 210.837C170.488 210.56 171.429 210.671 172.244 211.148C172.446 211.223 172.622 211.369 172.747 211.566C172.872 211.763 172.939 211.999 172.939 212.242C172.939 212.485 172.872 212.722 172.747 212.919C172.622 213.115 172.446 213.261 172.244 213.337C170.913 214.201 168.585 214.046 166.868 213.743L165.56 213.535Z" fill="#EBEBEB"/>
<path d="M98.1951 243.914L159.67 284.526C160.289 284.884 160.973 285.07 161.666 285.07C162.36 285.07 163.044 284.884 163.662 284.526L211.536 252.893C212.632 252.166 212.632 250.99 211.536 250.298L150.061 209.652C149.442 209.294 148.758 209.107 148.065 209.107C147.371 209.107 146.688 209.294 146.069 209.652L98.1951 241.285C97.0912 242.011 97.0912 243.188 98.1951 243.914Z" fill="#EBEBEB"/>
<path d="M98.6629 248.334L93.7334 245.091C93.5263 244.974 93.2987 244.914 93.0681 244.914C92.8374 244.914 92.6099 244.974 92.4027 245.091L89.3105 247.132C89.2353 247.167 89.1711 247.227 89.1258 247.304C89.0806 247.381 89.0564 247.472 89.0564 247.564C89.0564 247.657 89.0806 247.748 89.1258 247.825C89.1711 247.902 89.2353 247.962 89.3105 247.997L89.7414 248.282L88.1764 249.225C87.9873 249.338 88.01 249.416 88.1764 249.39L90.9284 249.095L94.1795 251.241C94.3866 251.357 94.6142 251.417 94.8448 251.417C95.0755 251.417 95.303 251.357 95.5102 251.241L98.6024 249.191C98.681 249.165 98.751 249.113 98.8028 249.04C98.8547 248.968 98.886 248.88 98.8926 248.786C98.8992 248.693 98.8807 248.6 98.8396 248.519C98.7986 248.438 98.7369 248.374 98.6629 248.334Z" fill="#EBEBEB"/>
<path d="M100.072 256.768L99.7163 255.903C99.24 254.769 98.9602 253.23 100.321 252.33C100.835 252.032 101.404 251.876 101.981 251.876C102.557 251.876 103.126 252.032 103.64 252.33C104.396 252.806 104.517 253.507 104.117 254.06C105.002 253.794 105.943 253.904 106.763 254.372C106.964 254.449 107.139 254.597 107.262 254.794C107.386 254.991 107.453 255.227 107.453 255.47C107.453 255.713 107.386 255.949 107.262 256.146C107.139 256.344 106.964 256.491 106.763 256.569C105.432 257.434 103.103 257.278 101.38 256.975L100.072 256.768Z" fill="#EBEBEB"/>
<path d="M80.6178 252.893C81.2366 252.535 81.9203 252.349 82.6138 252.349C83.3072 252.349 83.9909 252.535 84.6098 252.893L146.077 293.496C147.181 294.223 147.181 295.408 146.077 296.134L133.534 304.421L68.0898 261.171L80.6178 252.893Z" fill="#EBEBEB"/>
<path d="M148.928 243.543L113.938 254.295L159.687 284.518C160.306 284.876 160.989 285.062 161.683 285.062C162.376 285.062 163.06 284.876 163.679 284.518L164.669 283.86L184.41 250.722L142.486 260.134L148.928 243.543Z" fill="#E0E0E0"/>
<path d="M166.157 220.291L150.06 209.652C149.442 209.294 148.758 209.107 148.064 209.107C147.371 209.107 146.687 209.294 146.068 209.652L128.074 221.546C128.898 223.336 130.599 225.006 133.178 226.45C140.738 230.585 153.047 230.585 160.63 226.45C163.806 224.72 165.643 222.54 166.157 220.291Z" fill="#E0E0E0"/>
<path opacity="0.2" d="M243.781 216.546L163.094 163.228C162.477 162.87 161.794 162.684 161.102 162.684C160.41 162.684 159.727 162.87 159.11 163.228L54.0175 232.67C52.9212 233.396 52.9212 234.573 54.0175 235.265L71.0743 246.51L134.727 288.574C135.344 288.932 136.027 289.119 136.719 289.119C137.411 289.119 138.094 288.932 138.711 288.574L233.31 226.044L243.774 219.124C244.885 218.458 244.885 217.273 243.781 216.546Z" fill="white"/>
<path d="M243.979 216.165L177.265 172.051L163.293 162.847C162.616 162.451 161.867 162.244 161.108 162.244C160.348 162.244 159.599 162.451 158.923 162.847L53.8302 232.289C53.5307 232.421 53.2731 232.653 53.0914 232.956C52.9098 233.258 52.8125 233.617 52.8125 233.984C52.8125 234.351 52.9098 234.71 53.0914 235.012C53.2731 235.315 53.5307 235.548 53.8302 235.68L70.8869 246.924L134.562 289.015C135.238 289.413 135.987 289.62 136.747 289.62C137.507 289.62 138.256 289.413 138.932 289.015L233.523 226.485L243.995 219.565C244.293 219.431 244.55 219.197 244.731 218.894C244.912 218.591 245.009 218.232 245.009 217.865C245.009 217.498 244.912 217.139 244.731 216.836C244.55 216.533 244.293 216.299 243.995 216.165H243.979ZM243.594 218.803L233.122 225.723L138.532 288.254C137.972 288.574 137.354 288.74 136.728 288.74C136.103 288.74 135.485 288.574 134.925 288.254L71.2725 246.198L54.2234 234.953C54.0412 234.9 53.8798 234.778 53.7645 234.608C53.6492 234.439 53.5866 234.23 53.5866 234.014C53.5866 233.799 53.6492 233.59 53.7645 233.42C53.8798 233.25 54.0412 233.129 54.2234 233.076L159.316 163.634C159.876 163.316 160.493 163.151 161.119 163.151C161.745 163.151 162.362 163.316 162.922 163.634L176.902 172.846L243.617 216.961C243.799 217.014 243.96 217.136 244.075 217.306C244.191 217.475 244.253 217.684 244.253 217.9C244.253 218.115 244.191 218.324 244.075 218.494C243.96 218.664 243.799 218.785 243.617 218.838L243.594 218.803Z" fill="white"/>
<path d="M207.579 0.314759C208.69 -0.420486 209.597 0.176357 209.597 1.64685V171.696C209.558 172.498 209.355 173.278 209.005 173.973C208.654 174.669 208.166 175.261 207.579 175.701L149.574 214.02L142.769 239.97C142.157 242.323 140.932 242.427 140.04 240.186L133.81 224.452L116.874 235.636C115.763 236.372 114.855 235.775 114.855 234.304V64.2551C114.893 63.4531 115.096 62.6725 115.446 61.9767C115.797 61.2808 116.286 60.6894 116.874 60.2502L207.579 0.314759Z" fill="#BA68C8"/>
<path d="M200.169 131.587C200.1 132.688 199.804 133.754 199.306 134.7C198.808 135.645 198.122 136.443 197.304 137.027L165.436 158.081C163.856 159.119 162.57 158.384 162.57 156.421C162.642 155.32 162.939 154.255 163.436 153.309C163.934 152.364 164.619 151.566 165.436 150.98L197.319 129.934C198.891 128.888 200.169 129.632 200.169 131.587Z" fill="white"/>
<path d="M194.295 152.614C194.224 153.714 193.927 154.78 193.429 155.726C192.932 156.671 192.246 157.469 191.429 158.055L164.959 175.562C163.379 176.609 162.102 175.865 162.102 173.901C162.171 172.803 162.466 171.738 162.963 170.794C163.459 169.85 164.143 169.054 164.959 168.469L191.459 150.962C193.04 149.915 194.295 150.659 194.295 152.614Z" fill="white"/>
<path d="M146.55 182.525L146.482 181.505C145.038 185.674 142.86 188.667 140.433 190.267C136.146 193.104 132.313 190.587 132.313 183.079C132.313 176.003 135.337 168.244 140.048 165.156C143.14 163.115 145.249 164.62 145.597 165.511V163.781C145.597 162.821 146.451 161.48 147.495 160.788C148.538 160.096 149.4 160.727 149.4 162.207V178.252C149.4 180.294 150.065 180.709 151.01 180.077C152.734 178.944 154.322 174.092 154.322 168.564C154.322 157.89 149.43 152.917 141.628 158.072C134.317 162.899 128.518 175.095 128.518 185.752C128.518 196.21 133.999 200.197 141.174 195.466C143.235 194.001 145.061 192.143 146.572 189.973C147.389 188.831 148.281 188.485 148.674 189.298C149.067 190.111 148.825 191.789 148.016 192.931C146.104 195.677 143.804 198.04 141.212 199.92C132.283 205.811 125.531 200.673 125.531 187.75C125.531 174.55 132.6 159.75 141.666 153.756C150.731 147.761 157.377 153.09 157.377 166.445C157.377 174.541 154.602 181.634 150.663 184.229C148.485 185.596 146.935 185.276 146.55 182.525ZM136.426 180.095C136.426 184.229 138.18 186.496 140.857 184.731C143.533 182.966 145.393 178.434 145.393 174.256C145.393 170.234 143.601 168.201 140.819 170.035C138.18 171.748 136.426 176.133 136.426 180.095Z" fill="white"/>
<path d="M162.208 55.0346C177.866 44.6547 190.553 53.0797 190.553 73.7618C190.553 94.4438 177.866 119.606 162.208 129.934C146.55 140.262 133.863 131.889 133.863 111.207C133.863 90.5253 146.55 65.4146 162.208 55.0346Z" fill="white"/>
<path d="M162.208 55.0346C177.866 44.6547 190.553 53.0797 190.553 73.7618C190.553 94.4438 177.866 119.606 162.208 129.934C146.55 140.262 133.863 131.889 133.863 111.207C133.863 90.5253 146.55 65.4146 162.208 55.0346Z" fill="#F5F5F5"/>
<path d="M151.874 82.499C150.575 82.7559 149.414 83.5811 148.638 84.7999C147.247 86.8499 147.534 89.7736 148.638 96.3562L152.94 95.6037L151.874 82.499Z" fill="#263238"/>
<path d="M176.945 72.8111C177.911 72.5158 178.823 72.0236 179.636 71.358C180.96 70.0864 181.3 71.7039 180.574 73.4166C180.093 74.6376 179.404 75.7371 178.549 76.6517C177.694 77.5664 176.689 78.2778 175.592 78.745C175.546 78.5374 174.352 75.285 174.352 75.285L176.945 72.8111Z" fill="#263238"/>
<path d="M154.345 116.45C154.345 116.45 146.331 122.366 144.592 124.451C142.853 126.536 142.135 133.032 141.492 140.981C141.492 140.981 150.618 145.384 164.93 137.279C179.242 129.174 180.535 122.764 180.535 122.764C180.535 122.764 178.683 113.137 177.995 110.464C177.125 107.082 175.447 104.643 165.686 109.711L154.345 116.45Z" fill="#263238"/>
<path d="M153.891 95.3183C153.249 95.9498 152.341 94.8253 151.555 94.1246C150.769 93.424 148.198 92.9223 146.913 96.4082C145.628 99.8941 148.576 103.233 150.315 104.089C150.91 104.376 151.565 104.458 152.2 104.326C152.835 104.194 153.422 103.853 153.891 103.345L154.345 116.45C154.345 116.45 156.613 120.939 162.813 120.005C169.012 119.071 167.72 111.944 165.693 109.712V107.013C165.693 107.013 168.892 106.771 170.396 105.854C171.205 105.361 173.125 102.109 174.365 98.7523C176.922 92.57 177.505 85.5584 176.014 78.9353C173.798 68.8322 163.675 71.6088 157.641 77.8022C151.608 83.9955 153.891 95.3183 153.891 95.3183Z" fill="#FFA8A7"/>
<path d="M178.689 62.673C178.145 60.6317 177.812 60.9949 173.434 64.5155C170.091 67.2087 166.36 69.2084 162.411 70.4234C159.326 71.496 155.107 72.3437 152.938 75.6133C152.004 77.0195 151.528 78.7538 151.592 80.5179C151.408 80.3228 151.184 80.183 150.942 80.1113C149.876 79.7826 148.568 80.6736 148.016 82.1095L151.796 83.2599C151.501 85.7511 150.654 93.4409 151.577 94.1156C152.371 94.6951 153.588 96.6413 153.913 96.5375C154.994 96.1829 155.425 90.6988 156.015 87.3773C156.657 83.5972 156.907 82.1873 158.094 82.0316C161.949 81.3362 165.744 80.2567 169.435 78.8052C173.518 76.98 174.689 75.4317 174.689 75.4317L176.867 73.8488C177.839 72.2364 178.503 70.4081 178.817 68.4827C179.131 66.5573 179.087 64.5779 178.689 62.673Z" fill="#263238"/>
<path d="M165.678 107.012C165.678 107.012 159.955 107.454 157.959 106.848C156.809 106.535 155.814 105.714 155.191 104.564C155.474 105.767 156.015 106.87 156.764 107.774C158.223 109.504 165.678 108.76 165.678 108.76V107.012Z" fill="#F28F8F"/>
<path d="M164.218 99.4092L166.834 99.7292C166.726 100.173 166.494 100.564 166.173 100.843C165.852 101.121 165.46 101.271 165.057 101.269C164.332 101.182 163.961 100.352 164.218 99.4092Z" fill="#F28F8F"/>
<path d="M168 87.7324L168.378 95.5087L171.984 93.0089L168 87.7324Z" fill="#F28F8F"/>
<path d="M164.305 90.5002C164.298 90.8892 164.183 91.2658 163.978 91.5763C163.774 91.8869 163.488 92.1157 163.163 92.2301C163.027 92.2834 162.882 92.2974 162.74 92.2707C162.598 92.2441 162.465 92.1777 162.351 92.0774C162.237 91.9772 162.147 91.8462 162.088 91.6963C162.029 91.5463 162.004 91.382 162.014 91.2181C162.023 90.8283 162.139 90.4516 162.345 90.1411C162.551 89.8307 162.837 89.6022 163.163 89.4881C163.299 89.4343 163.444 89.42 163.585 89.4466C163.727 89.4732 163.86 89.5397 163.974 89.6402C164.087 89.7407 164.177 89.872 164.235 90.0222C164.292 90.1723 164.317 90.3366 164.305 90.5002Z" fill="#263238"/>
<path d="M163.083 85.9065L160.633 88.2074C160.475 87.7904 160.445 87.3239 160.55 86.8851C160.654 86.4463 160.886 86.0614 161.208 85.794C161.328 85.6414 161.477 85.5214 161.643 85.4428C161.81 85.3642 161.989 85.329 162.169 85.3398C162.348 85.3506 162.524 85.407 162.682 85.505C162.84 85.6031 162.977 85.7402 163.083 85.9065Z" fill="#263238"/>
<path d="M174.534 83.4852L172.266 82.205C172.436 81.8046 172.728 81.4885 173.086 81.3152C173.445 81.1418 173.846 81.123 174.216 81.2621C174.371 81.3785 174.503 81.5303 174.603 81.7079C174.704 81.8855 174.771 82.0851 174.801 82.294C174.831 82.5029 174.823 82.7166 174.777 82.9216C174.731 83.1267 174.648 83.3185 174.534 83.4852Z" fill="#263238"/>
<path d="M173.883 87.1867C173.873 87.575 173.758 87.9504 173.554 88.2604C173.349 88.5705 173.065 88.7999 172.741 88.9167C172.605 88.97 172.46 88.9839 172.318 88.9573C172.177 88.9306 172.043 88.8642 171.929 88.7639C171.815 88.6637 171.725 88.5327 171.666 88.3828C171.607 88.2328 171.582 88.0685 171.592 87.9046C171.601 87.5148 171.717 87.1381 171.923 86.8276C172.129 86.5172 172.415 86.2888 172.741 86.1746C172.877 86.1208 173.022 86.1066 173.163 86.1331C173.305 86.1597 173.438 86.2262 173.552 86.3267C173.665 86.4272 173.755 86.5585 173.813 86.7087C173.87 86.8588 173.895 87.0231 173.883 87.1867Z" fill="#263238"/>
</svg>
