<svg width="56" height="60" viewBox="0 0 56 60" fill="none" xmlns="http://www.w3.org/2000/svg">
<g filter="url(#filter0_d_266_379)">
<ellipse cx="28" cy="26" rx="18" ry="20" fill="#020E1C"/>
<path d="M19.2893 28.5205H34.21L29.6432 34.3063C29.5374 34.4405 29.4578 34.5953 29.4088 34.7619C29.3598 34.9286 29.3424 35.1038 29.3576 35.2775C29.3882 35.6285 29.5498 35.9521 29.8067 36.1774C30.0637 36.4026 30.3949 36.511 30.7275 36.4786C31.0602 36.4463 31.3671 36.2759 31.5806 36.0049L37.8709 28.0427C37.9132 27.9794 37.9511 27.9129 37.9842 27.8437C37.9842 27.7773 38.0471 27.7375 38.0722 27.6712C38.1292 27.519 38.1591 27.357 38.1603 27.1934C38.1591 27.0298 38.1292 26.8679 38.0722 26.7157C38.0722 26.6494 38.0093 26.6096 37.9842 26.5432C37.9511 26.474 37.9132 26.4075 37.8709 26.3441L31.5806 18.382C31.4623 18.2322 31.3142 18.1118 31.1468 18.0292C30.9793 17.9466 30.7967 17.904 30.6119 17.9043C30.3179 17.9037 30.0331 18.0117 29.8067 18.2095C29.6793 18.3209 29.574 18.4577 29.4969 18.6121C29.4197 18.7665 29.3721 18.9355 29.3569 19.1093C29.3417 19.2831 29.3592 19.4583 29.4083 19.625C29.4574 19.7917 29.5373 19.9465 29.6432 20.0806L34.21 25.8664H19.2893C18.9557 25.8664 18.6357 26.0062 18.3997 26.2551C18.1638 26.504 18.0312 26.8415 18.0312 27.1934C18.0312 27.5454 18.1638 27.8829 18.3997 28.1318C18.6357 28.3807 18.9557 28.5205 19.2893 28.5205Z" fill="white"/>
</g>
<defs>
<filter id="filter0_d_266_379" x="0" y="0" width="56" height="60" filterUnits="userSpaceOnUse" color-interpolation-filters="sRGB">
<feFlood flood-opacity="0" result="BackgroundImageFix"/>
<feColorMatrix in="SourceAlpha" type="matrix" values="0 0 0 0 0 0 0 0 0 0 0 0 0 0 0 0 0 0 127 0" result="hardAlpha"/>
<feOffset dy="4"/>
<feGaussianBlur stdDeviation="5"/>
<feComposite in2="hardAlpha" operator="out"/>
<feColorMatrix type="matrix" values="0 0 0 0 0 0 0 0 0 0 0 0 0 0 0 0 0 0 0.25 0"/>
<feBlend mode="normal" in2="BackgroundImageFix" result="effect1_dropShadow_266_379"/>
<feBlend mode="normal" in="SourceGraphic" in2="effect1_dropShadow_266_379" result="shape"/>
</filter>
</defs>
</svg>
