<svg width="301" height="300" viewBox="0 0 301 300" fill="none" xmlns="http://www.w3.org/2000/svg">
<path d="M300.996 263.636H0.996094V263.837H300.996V263.636Z" fill="#EBEBEB"/>
<path d="M270.934 276.593H251.062V276.794H270.934V276.593Z" fill="#EBEBEB"/>
<path d="M199.726 278.782H194.512V278.984H199.726V278.782Z" fill="#EBEBEB"/>
<path d="M250.463 269.12H238.949V269.321H250.463V269.12Z" fill="#EBEBEB"/>
<path d="M58.3867 270.473H32.4727V270.674H58.3867V270.473Z" fill="#EBEBEB"/>
<path d="M67.5324 270.473H63.7344V270.674H67.5324V270.473Z" fill="#EBEBEB"/>
<path d="M136.087 273.871H79.8789V274.072H136.087V273.871Z" fill="#EBEBEB"/>
<path d="M143.196 227.722H27.3419C26.4343 227.72 25.5644 227.235 24.9232 226.373C24.282 225.511 23.9219 224.342 23.9219 223.124V4.55767C23.9298 3.3466 24.2934 2.18863 24.9337 1.33527C25.5741 0.481903 26.4395 0.00207461 27.3419 0H143.196C144.105 0 144.976 0.484424 145.618 1.3467C146.261 2.20898 146.622 3.37848 146.622 4.59793V223.124C146.622 224.344 146.261 225.513 145.618 226.376C144.976 227.238 144.105 227.722 143.196 227.722ZM27.3419 0.161049C26.4741 0.163182 25.6423 0.627336 25.0293 1.45163C24.4162 2.27593 24.0719 3.39301 24.0719 4.55767V223.124C24.0719 224.289 24.4162 225.406 25.0293 226.23C25.6423 227.055 26.4741 227.519 27.3419 227.521H143.196C144.064 227.519 144.897 227.055 145.511 226.231C146.125 225.407 146.47 224.29 146.472 223.124V4.55767C146.47 3.39227 146.125 2.2752 145.511 1.45114C144.897 0.627074 144.064 0.163178 143.196 0.161049H27.3419Z" fill="#EBEBEB"/>
<path d="M272.985 227.722H157.125C156.217 227.72 155.347 227.235 154.704 226.373C154.062 225.511 153.701 224.343 153.699 223.124V4.55767C153.709 3.34587 154.074 2.1879 154.715 1.33476C155.356 0.481622 156.222 0.00205199 157.125 0H272.985C273.887 0.00419088 274.75 0.484956 275.389 1.33809C276.029 2.19123 276.391 3.348 276.399 4.55767V223.124C276.399 224.341 276.04 225.508 275.4 226.37C274.76 227.232 273.892 227.718 272.985 227.722ZM157.125 0.161049C156.257 0.163178 155.425 0.627074 154.81 1.45114C154.196 2.2752 153.851 3.39227 153.849 4.55767V223.124C153.851 224.29 154.196 225.407 154.81 226.231C155.425 227.055 156.257 227.519 157.125 227.521H272.985C273.854 227.519 274.686 227.055 275.3 226.231C275.914 225.407 276.26 224.29 276.261 223.124V4.55767C276.26 3.39227 275.914 2.2752 275.3 1.45114C274.686 0.627074 273.854 0.163178 272.985 0.161049H157.125Z" fill="#EBEBEB"/>
<path d="M164.395 45.3105H47.0586V138.034H164.395V45.3105Z" fill="#EBEBEB"/>
<path d="M162.485 52.9287H48.9648V134.645H162.485V52.9287Z" fill="#E0E0E0"/>
<path d="M91.7495 61.4316H54.5195V63.783H91.7495V61.4316Z" fill="#F0F0F0"/>
<path d="M91.7495 66.3838H54.5195V68.7351H91.7495V66.3838Z" fill="#F0F0F0"/>
<path d="M91.7495 71.3369H54.5195V73.6882H91.7495V71.3369Z" fill="#F0F0F0"/>
<path d="M97.7495 76.2803H60.5195V78.6316H97.7495V76.2803Z" fill="#F0F0F0"/>
<path d="M97.7495 81.2334H60.5195V83.5847H97.7495V81.2334Z" fill="#F0F0F0"/>
<path d="M97.7495 86.1855H60.5195V88.5369H97.7495V86.1855Z" fill="#F0F0F0"/>
<path d="M103.757 91.1289H66.5273V93.4802H103.757V91.1289Z" fill="#F0F0F0"/>
<path d="M103.757 96.082H66.5273V98.4333H103.757V96.082Z" fill="#F0F0F0"/>
<path d="M97.7495 101.033H60.5195V103.385H97.7495V101.033Z" fill="#F0F0F0"/>
<path d="M103.757 105.986H66.5273V108.338H103.757V105.986Z" fill="#F0F0F0"/>
<path d="M103.757 110.93H66.5273V113.281H103.757V110.93Z" fill="#F0F0F0"/>
<path d="M91.7495 115.883H54.5195V118.234H91.7495V115.883Z" fill="#F0F0F0"/>
<path d="M91.7495 120.835H54.5195V123.186H91.7495V120.835Z" fill="#F0F0F0"/>
<path d="M91.7495 125.778H54.5195V128.13H91.7495V125.778Z" fill="#F0F0F0"/>
<path d="M260.875 173.095H184.219V233.673H260.875V173.095Z" fill="#EBEBEB"/>
<path d="M259.631 178.071H185.465V231.459H259.631V178.071Z" fill="#E0E0E0"/>
<path d="M213.422 183.628H189.098V185.166H213.422V183.628Z" fill="#F0F0F0"/>
<path d="M213.422 186.856H189.098V188.394H213.422V186.856Z" fill="#F0F0F0"/>
<path d="M213.422 190.094H189.098V191.632H213.422V190.094Z" fill="#F0F0F0"/>
<path d="M217.336 193.331H193.012V194.869H217.336V193.331Z" fill="#F0F0F0"/>
<path d="M217.336 196.56H193.012V198.098H217.336V196.56Z" fill="#F0F0F0"/>
<path d="M217.336 199.797H193.012V201.335H217.336V199.797Z" fill="#F0F0F0"/>
<path d="M221.265 203.025H196.941V204.563H221.265V203.025Z" fill="#F0F0F0"/>
<path d="M221.265 206.263H196.941V207.801H221.265V206.263Z" fill="#F0F0F0"/>
<path d="M217.336 209.5H193.012V211.038H217.336V209.5Z" fill="#F0F0F0"/>
<path d="M221.265 212.729H196.941V214.267H221.265V212.729Z" fill="#F0F0F0"/>
<path d="M221.265 215.966H196.941V217.504H221.265V215.966Z" fill="#F0F0F0"/>
<path d="M213.422 219.194H189.098V220.732H213.422V219.194Z" fill="#F0F0F0"/>
<path d="M213.422 222.432H189.098V223.97H213.422V222.432Z" fill="#F0F0F0"/>
<path d="M213.422 225.669H189.098V227.207H213.422V225.669Z" fill="#F0F0F0"/>
<path d="M241.199 102.226H216.875V103.764H241.199V102.226Z" fill="#F0F0F0"/>
<path d="M241.199 105.463H216.875V107.001H241.199V105.463Z" fill="#F0F0F0"/>
<path d="M241.199 108.7H216.875V110.238H241.199V108.7Z" fill="#F0F0F0"/>
<path d="M245.123 111.929H216.875V113.467H245.123V111.929Z" fill="#F0F0F0"/>
<path d="M245.123 115.166H216.875V116.704H245.123V115.166Z" fill="#F0F0F0"/>
<path d="M228.484 50.9072H204.16V52.4452H228.484V50.9072Z" fill="#F0F0F0"/>
<path d="M228.484 54.1445H204.16V55.6825H228.484V54.1445Z" fill="#F0F0F0"/>
<path d="M228.484 57.374H204.16V58.912H228.484V57.374Z" fill="#F0F0F0"/>
<path d="M232.408 60.6104H204.16V62.1484H232.408V60.6104Z" fill="#F0F0F0"/>
<path d="M232.408 63.8477H204.16V65.3857H232.408V63.8477Z" fill="#F0F0F0"/>
<path d="M245.123 118.395H216.875V119.933H245.123V118.395Z" fill="#F0F0F0"/>
<path d="M249.047 121.632H216.875V123.17H249.047V121.632Z" fill="#F0F0F0"/>
<path d="M249.047 124.869H216.875V126.407H249.047V124.869Z" fill="#F0F0F0"/>
<path d="M245.123 128.098H216.875V129.636H245.123V128.098Z" fill="#F0F0F0"/>
<path d="M249.047 131.335H216.875V132.873H249.047V131.335Z" fill="#F0F0F0"/>
<path d="M249.047 134.563H216.875V136.101H249.047V134.563Z" fill="#F0F0F0"/>
<path d="M241.199 137.801H216.875V139.339H241.199V137.801Z" fill="#F0F0F0"/>
<path d="M241.199 141.038H216.875V142.576H241.199V141.038Z" fill="#F0F0F0"/>
<path d="M241.199 144.267H216.875V145.805H241.199V144.267Z" fill="#F0F0F0"/>
<path d="M75.3066 171.936H47.0586V173.474H75.3066V171.936Z" fill="#F0F0F0"/>
<path d="M79.2306 175.172H47.0586V176.71H79.2306V175.172Z" fill="#F0F0F0"/>
<path d="M79.2306 178.41H47.0586V179.948H79.2306V178.41Z" fill="#F0F0F0"/>
<path d="M71.3826 181.639H47.0586V183.177H71.3826V181.639Z" fill="#F0F0F0"/>
<path d="M71.3826 184.876H47.0586V186.414H71.3826V184.876Z" fill="#F0F0F0"/>
<path d="M71.3826 188.104H47.0586V189.643H71.3826V188.104Z" fill="#F0F0F0"/>
<path d="M214.049 102.209H209.207V108.707H214.049V102.209Z" fill="#F0F0F0"/>
<path d="M129.547 204.467H105.223V206.005H129.547V204.467Z" fill="#F0F0F0"/>
<path d="M129.547 207.695H105.223V209.233H129.547V207.695Z" fill="#F0F0F0"/>
<path d="M129.547 210.933H105.223V212.471H129.547V210.933Z" fill="#F0F0F0"/>
<path d="M133.471 214.17H105.223V215.708H133.471V214.17Z" fill="#F0F0F0"/>
<path d="M133.471 217.399H105.223V218.937H133.471V217.399Z" fill="#F0F0F0"/>
<path d="M133.471 220.636H105.223V222.174H133.471V220.636Z" fill="#F0F0F0"/>
<path d="M137.395 223.865H105.223V225.403H137.395V223.865Z" fill="#F0F0F0"/>
<path d="M137.395 227.102H105.223V228.64H137.395V227.102Z" fill="#F0F0F0"/>
<path d="M133.471 230.339H105.223V231.877H133.471V230.339Z" fill="#F0F0F0"/>
<path d="M137.395 233.568H105.223V235.106H137.395V233.568Z" fill="#F0F0F0"/>
<path d="M137.395 236.806H105.223V238.344H137.395V236.806Z" fill="#F0F0F0"/>
<path d="M129.547 240.034H105.223V241.572H129.547V240.034Z" fill="#F0F0F0"/>
<path d="M129.547 243.271H105.223V244.809H129.547V243.271Z" fill="#F0F0F0"/>
<path d="M40.5977 174.737C40.5977 175.288 40.7194 175.827 40.9475 176.285C41.1756 176.743 41.4999 177.1 41.8792 177.311C42.2586 177.522 42.676 177.577 43.0787 177.47C43.4814 177.362 43.8513 177.097 44.1416 176.707C44.432 176.318 44.6297 175.821 44.7098 175.281C44.7899 174.74 44.7488 174.18 44.5916 173.671C44.4345 173.162 44.1684 172.727 43.827 172.421C43.4856 172.115 43.0843 171.951 42.6737 171.951C42.4008 171.95 42.1305 172.021 41.8783 172.161C41.626 172.301 41.3969 172.506 41.2039 172.765C41.011 173.024 40.8581 173.331 40.7541 173.67C40.65 174.008 40.5969 174.371 40.5977 174.737Z" fill="#F0F0F0"/>
<path d="M99.4149 205.038L97.1289 210.353H101.701L99.4149 205.038Z" fill="#F0F0F0"/>
<path d="M150.994 300C215.244 300 267.328 295.919 267.328 290.885C267.328 285.851 215.244 281.77 150.994 281.77C86.7447 281.77 34.6602 285.851 34.6602 290.885C34.6602 295.919 86.7447 300 150.994 300Z" fill="#F5F5F5"/>
<path d="M200.47 58.0732H183.232C181.824 58.0732 180.473 58.8241 179.477 60.1605C178.481 61.497 177.922 63.3096 177.922 65.1996V85.3307C177.922 87.2207 178.481 89.0333 179.477 90.3698C180.473 91.7062 181.824 92.4571 183.232 92.4571H188.266L184.066 103.642L191.866 92.4571H200.5C201.899 92.4443 203.237 91.6912 204.225 90.3614C205.213 89.0315 205.769 87.2323 205.774 85.3548V65.2238C205.777 64.2863 205.642 63.3572 205.377 62.4898C205.112 61.6225 204.722 60.8339 204.229 60.1695C203.736 59.5051 203.15 58.9779 202.505 58.6182C201.86 58.2584 201.168 58.0732 200.47 58.0732Z" fill="#407BFF"/>
<path opacity="0.7" d="M200.47 58.0732H183.232C181.824 58.0732 180.473 58.8241 179.477 60.1605C178.481 61.497 177.922 63.3096 177.922 65.1996V85.3307C177.922 87.2207 178.481 89.0333 179.477 90.3698C180.473 91.7062 181.824 92.4571 183.232 92.4571H188.266L184.066 103.642L191.866 92.4571H200.5C201.899 92.4443 203.237 91.6912 204.225 90.3614C205.213 89.0315 205.769 87.2323 205.774 85.3548V65.2238C205.777 64.2863 205.642 63.3572 205.377 62.4898C205.112 61.6225 204.722 60.8339 204.229 60.1695C203.736 59.5051 203.15 58.9779 202.505 58.6182C201.86 58.2584 201.168 58.0732 200.47 58.0732Z" fill="white"/>
<path d="M197.896 83.2982C201.237 78.8139 201.237 71.5435 197.896 67.0592C194.555 62.5749 189.137 62.5749 185.796 67.0592C182.455 71.5435 182.455 78.8139 185.796 83.2982C189.137 87.7825 194.555 87.7825 197.896 83.2982Z" fill="#407BFF"/>
<path d="M190.956 80.3066C190.842 80.307 190.729 80.2741 190.626 80.2101C190.522 80.1461 190.43 80.0527 190.356 79.9362L186.996 74.6297C186.861 74.4161 186.794 74.1392 186.811 73.8598C186.828 73.5805 186.927 73.3215 187.086 73.14C187.245 72.9585 187.452 72.8692 187.66 72.8919C187.868 72.9145 188.061 73.0472 188.196 73.2608L190.956 77.6171L195.51 70.4183C195.577 70.3125 195.659 70.2255 195.751 70.1622C195.843 70.0989 195.943 70.0606 196.046 70.0494C196.149 70.0381 196.253 70.0543 196.352 70.0969C196.45 70.1394 196.541 70.2076 196.62 70.2975C196.699 70.3874 196.764 70.4972 196.811 70.6207C196.858 70.7442 196.887 70.879 196.895 71.0173C196.903 71.1557 196.891 71.2948 196.86 71.4269C196.828 71.559 196.777 71.6814 196.71 71.7872L191.562 79.9362C191.487 80.0529 191.394 80.1464 191.289 80.2103C191.185 80.2743 191.071 80.3071 190.956 80.3066Z" fill="white"/>
<path d="M230.797 282.55H233.851C234.251 282.55 234.634 282.763 234.916 283.142C235.199 283.521 235.357 284.035 235.357 284.571V289.66H229.273V284.571C229.273 284.304 229.313 284.039 229.39 283.792C229.467 283.545 229.579 283.321 229.721 283.133C229.863 282.945 230.031 282.797 230.216 282.697C230.4 282.597 230.598 282.547 230.797 282.55Z" fill="#263238"/>
<path d="M231.024 285.272C231.024 284.934 230.01 251.218 220.788 216.142C212.334 183.997 195.03 144.065 160.602 136.423L160.998 133.202C176.736 136.705 190.35 146.932 201.456 163.584C210.3 176.838 217.572 194.183 223.056 215.119C232.386 250.655 233.4 284.797 233.406 285.175L231.024 285.272Z" fill="#263238"/>
<path d="M242.797 282.55H245.851C246.251 282.55 246.634 282.763 246.916 283.142C247.198 283.521 247.357 284.035 247.357 284.571V289.66H241.285V284.571C241.285 284.305 241.324 284.041 241.4 283.796C241.476 283.55 241.588 283.327 241.728 283.139C241.869 282.951 242.036 282.802 242.219 282.701C242.402 282.6 242.599 282.549 242.797 282.55Z" fill="#263238"/>
<path opacity="0.2" d="M230.797 282.55H233.851C234.251 282.55 234.634 282.763 234.916 283.142C235.199 283.521 235.357 284.035 235.357 284.571V289.66H229.273V284.571C229.273 284.304 229.313 284.039 229.39 283.792C229.467 283.545 229.579 283.321 229.721 283.133C229.863 282.945 230.031 282.797 230.216 282.697C230.4 282.597 230.598 282.547 230.797 282.55Z" fill="white"/>
<path opacity="0.2" d="M242.797 282.55H245.851C246.251 282.55 246.634 282.763 246.916 283.142C247.198 283.521 247.357 284.035 247.357 284.571V289.66H241.285V284.571C241.285 284.305 241.324 284.041 241.4 283.796C241.476 283.55 241.588 283.327 241.728 283.139C241.869 282.951 242.036 282.802 242.219 282.701C242.402 282.6 242.599 282.549 242.797 282.55Z" fill="white"/>
<path d="M243.119 286.222C242.467 278.69 240.726 271.4 237.995 264.762C231.995 250.429 222.335 242.32 209.285 240.766L209.495 237.545C226.835 239.598 235.715 252.675 240.095 263.313C242.999 270.318 244.835 278.029 245.495 285.996L243.119 286.222Z" fill="#263238"/>
<path d="M60.3359 289.66H54.2639V284.571C54.2639 284.035 54.4226 283.521 54.705 283.142C54.9875 282.763 55.3705 282.55 55.7699 282.55H58.8239C59.2234 282.55 59.6064 282.763 59.8888 283.142C60.1713 283.521 60.3299 284.035 60.3299 284.571V289.66H60.3359Z" fill="#263238"/>
<path d="M56.1992 285.215C56.1992 284.845 56.3792 247.546 75.5552 221.779C87.7472 205.4 104.823 197.09 126.321 197.09V200.311C98.2172 200.311 78.2852 214.539 67.0832 242.61C61.9517 255.8 59.0547 270.348 58.5992 285.215H56.1992Z" fill="#263238"/>
<path opacity="0.2" d="M60.3359 289.66H54.2639V284.571C54.2639 284.035 54.4226 283.521 54.705 283.142C54.9875 282.763 55.3705 282.55 55.7699 282.55H58.8239C59.2234 282.55 59.6064 282.763 59.8888 283.142C60.1713 283.521 60.3299 284.035 60.3299 284.571V289.66H60.3359Z" fill="white"/>
<path d="M133.359 197.259H130.035V200.198H133.359V197.259Z" fill="#263238"/>
<path opacity="0.7" d="M133.359 197.259H130.035V200.198H133.359V197.259Z" fill="white"/>
<path d="M130.638 196.1H124.728C124.274 196.1 123.906 196.594 123.906 197.203V200.255C123.906 200.864 124.274 201.358 124.728 201.358H130.638C131.092 201.358 131.46 200.864 131.46 200.255V197.203C131.46 196.594 131.092 196.1 130.638 196.1Z" fill="#263238"/>
<path opacity="0.2" d="M130.638 196.1H124.728C124.274 196.1 123.906 196.594 123.906 197.203V200.255C123.906 200.864 124.274 201.358 124.728 201.358H130.638C131.092 201.358 131.46 200.864 131.46 200.255V197.203C131.46 196.594 131.092 196.1 130.638 196.1Z" fill="white"/>
<path d="M153.293 136.174H156.617V133.235H153.293V136.174Z" fill="#263238"/>
<path opacity="0.7" d="M153.293 136.174H156.617V133.235H153.293V136.174Z" fill="white"/>
<path d="M156.018 137.333H161.928C162.382 137.333 162.75 136.839 162.75 136.23V133.178C162.75 132.569 162.382 132.075 161.928 132.075H156.018C155.564 132.075 155.196 132.569 155.196 133.178V136.23C155.196 136.839 155.564 137.333 156.018 137.333Z" fill="#263238"/>
<path opacity="0.2" d="M156.018 137.333H161.928C162.382 137.333 162.75 136.839 162.75 136.23V133.178C162.75 132.569 162.382 132.075 161.928 132.075H156.018C155.564 132.075 155.196 132.569 155.196 133.178V136.23C155.196 136.839 155.564 137.333 156.018 137.333Z" fill="white"/>
<path d="M201.242 240.646H204.566V237.706H201.242V240.646Z" fill="#263238"/>
<path opacity="0.7" d="M201.242 240.646H204.566V237.706H201.242V240.646Z" fill="white"/>
<path d="M203.967 241.805H209.877C210.331 241.805 210.699 241.311 210.699 240.702V237.65C210.699 237.04 210.331 236.546 209.877 236.546H203.967C203.513 236.546 203.145 237.04 203.145 237.65V240.702C203.145 241.311 203.513 241.805 203.967 241.805Z" fill="#263238"/>
<path opacity="0.2" d="M203.967 241.805H209.877C210.331 241.805 210.699 241.311 210.699 240.702V237.65C210.699 237.04 210.331 236.546 209.877 236.546H203.967C203.513 236.546 203.145 237.04 203.145 237.65V240.702C203.145 241.311 203.513 241.805 203.967 241.805Z" fill="white"/>
<path d="M98.0657 215.884L120.092 208.492C124.499 206.994 129.104 206.867 133.554 208.119C138.004 209.371 142.182 211.971 145.77 215.719C149.358 219.467 152.261 224.265 154.258 229.747C156.254 235.229 157.292 241.251 157.292 247.353V290.546H75.3438V254.794C75.3446 245.832 77.5833 237.13 81.7021 230.077C85.8209 223.024 91.5823 218.027 98.0657 215.884Z" fill="#407BFF"/>
<path opacity="0.2" d="M98.0657 215.884L120.092 208.492C124.499 206.994 129.104 206.867 133.554 208.119C138.004 209.371 142.182 211.971 145.77 215.719C149.358 219.467 152.261 224.265 154.258 229.747C156.254 235.229 157.292 241.251 157.292 247.353V290.546H75.3438V254.794C75.3446 245.832 77.5833 237.13 81.7021 230.077C85.8209 223.024 91.5823 218.027 98.0657 215.884Z" fill="white"/>
<path opacity="0.2" d="M157.25 290.547H97.538V247.354C97.538 236.727 100.684 226.535 106.283 219.021C111.882 211.506 119.476 207.285 127.394 207.285C135.312 207.285 142.906 211.506 148.505 219.021C154.104 226.535 157.25 236.727 157.25 247.354V290.547Z" fill="black"/>
<path d="M163.721 143.175L121.164 148.795L127.343 233.067L169.9 227.447L163.721 143.175Z" fill="#263238"/>
<path d="M164.988 152.198L121.231 157.976C120.413 158.084 119.815 159.062 119.896 160.159L120.059 162.387C120.14 163.485 120.868 164.287 121.686 164.179L165.442 158.4C166.26 158.292 166.858 157.315 166.777 156.217L166.614 153.989C166.534 152.892 165.805 152.09 164.988 152.198Z" fill="#263238"/>
<path opacity="0.1" d="M164.988 152.198L121.231 157.976C120.413 158.084 119.815 159.062 119.896 160.159L120.059 162.387C120.14 163.485 120.868 164.287 121.686 164.179L165.442 158.4C166.26 158.292 166.858 157.315 166.777 156.217L166.614 153.989C166.534 152.892 165.805 152.09 164.988 152.198Z" fill="white"/>
<path d="M165.812 163.501L122.055 169.28C121.237 169.388 120.639 170.365 120.72 171.463L120.883 173.691C120.964 174.788 121.692 175.591 122.51 175.483L166.267 169.704C167.084 169.596 167.682 168.619 167.602 167.521L167.438 165.293C167.358 164.196 166.63 163.393 165.812 163.501Z" fill="#263238"/>
<path opacity="0.1" d="M165.812 163.501L122.055 169.28C121.237 169.388 120.639 170.365 120.72 171.463L120.883 173.691C120.964 174.788 121.692 175.591 122.51 175.483L166.267 169.704C167.084 169.596 167.682 168.619 167.602 167.521L167.438 165.293C167.358 164.196 166.63 163.393 165.812 163.501Z" fill="white"/>
<path d="M167.788 175.402L123.82 181.303C122.998 181.414 122.399 182.397 122.481 183.5L122.648 185.739C122.73 186.841 123.463 187.646 124.284 187.536L168.252 181.635C169.074 181.525 169.674 180.541 169.592 179.438L169.425 177.2C169.343 176.097 168.61 175.292 167.788 175.402Z" fill="#263238"/>
<path opacity="0.1" d="M167.788 175.402L123.82 181.303C122.998 181.414 122.399 182.397 122.481 183.5L122.648 185.739C122.73 186.841 123.463 187.646 124.284 187.536L168.252 181.635C169.074 181.525 169.674 180.541 169.592 179.438L169.425 177.2C169.343 176.097 168.61 175.292 167.788 175.402Z" fill="white"/>
<path d="M167.472 186.092L123.715 191.871C122.897 191.979 122.3 192.956 122.38 194.054L122.543 196.282C122.624 197.379 123.352 198.181 124.17 198.073L167.927 192.295C168.745 192.187 169.342 191.209 169.262 190.112L169.098 187.884C169.018 186.786 168.29 185.984 167.472 186.092Z" fill="#263238"/>
<path opacity="0.1" d="M167.472 186.092L123.715 191.871C122.897 191.979 122.3 192.956 122.38 194.054L122.543 196.282C122.624 197.379 123.352 198.181 124.17 198.073L167.927 192.295C168.745 192.187 169.342 191.209 169.262 190.112L169.098 187.884C169.018 186.786 168.29 185.984 167.472 186.092Z" fill="white"/>
<path d="M168.3 197.379L124.543 203.158C123.725 203.266 123.128 204.243 123.208 205.341L123.372 207.569C123.452 208.666 124.18 209.469 124.998 209.361L168.755 203.582C169.573 203.474 170.17 202.497 170.09 201.399L169.927 199.171C169.846 198.073 169.118 197.271 168.3 197.379Z" fill="#263238"/>
<path opacity="0.1" d="M168.3 197.379L124.543 203.158C123.725 203.266 123.128 204.243 123.208 205.341L123.372 207.569C123.452 208.666 124.18 209.469 124.998 209.361L168.755 203.582C169.573 203.474 170.17 202.497 170.09 201.399L169.927 199.171C169.846 198.073 169.118 197.271 168.3 197.379Z" fill="white"/>
<path d="M169.132 208.683L125.375 214.462C124.558 214.57 123.96 215.547 124.04 216.645L124.204 218.872C124.284 219.97 125.012 220.772 125.83 220.664L169.587 214.886C170.405 214.778 171.002 213.8 170.922 212.703L170.759 210.475C170.678 209.377 169.95 208.575 169.132 208.683Z" fill="#263238"/>
<path opacity="0.1" d="M169.132 208.683L125.375 214.462C124.558 214.57 123.96 215.547 124.04 216.645L124.204 218.872C124.284 219.97 125.012 220.772 125.83 220.664L169.587 214.886C170.405 214.778 171.002 213.8 170.922 212.703L170.759 210.475C170.678 209.377 169.95 208.575 169.132 208.683Z" fill="white"/>
<path d="M125.538 227.077H176.676V245.211H121.344V232.714C121.344 231.22 121.785 229.788 122.572 228.731C123.358 227.674 124.425 227.079 125.538 227.077Z" fill="#263238"/>
<path opacity="0.2" d="M125.538 227.077H176.676V245.211H121.344V232.714C121.344 231.22 121.785 229.788 122.572 228.731C123.358 227.674 124.425 227.079 125.538 227.077Z" fill="white"/>
<path d="M147.521 236.12V290.546H97.5352V247.353C97.5332 243.551 97.9373 239.768 98.7352 236.12H147.521Z" fill="#407BFF"/>
<path d="M200.549 215.884L178.523 208.492C174.12 207.012 169.523 206.897 165.083 208.157C160.642 209.418 156.473 212.02 152.894 215.766C149.315 219.513 146.419 224.304 144.427 229.778C142.434 235.251 141.397 241.262 141.395 247.353V290.546H223.277V254.794C223.274 245.832 221.034 237.129 216.915 230.076C212.795 223.023 207.033 218.027 200.549 215.884Z" fill="#407BFF"/>
<path opacity="0.2" d="M200.549 215.884L178.523 208.492C174.12 207.012 169.523 206.897 165.083 208.157C160.642 209.418 156.473 212.02 152.894 215.766C149.315 219.513 146.419 224.304 144.427 229.778C142.434 235.251 141.397 241.262 141.395 247.353V290.546H223.277V254.794C223.274 245.832 221.034 237.129 216.915 230.076C212.795 223.023 207.033 218.027 200.549 215.884Z" fill="white"/>
<path opacity="0.2" d="M193.415 214.725C201.333 214.725 208.927 218.946 214.526 226.461C220.125 233.975 223.271 244.167 223.271 254.793V290.538H163.559V254.793C163.559 244.167 166.704 233.975 172.303 226.461C177.902 218.946 185.496 214.725 193.415 214.725Z" fill="black"/>
<path d="M89.6866 254.278H144.191C146.834 254.278 149.369 255.687 151.238 258.196C153.107 260.704 154.157 264.106 154.157 267.653V290.546H79.7266V267.645C79.7282 264.101 80.778 260.702 82.6455 258.196C84.5131 255.689 87.0455 254.28 89.6866 254.278Z" fill="#263238"/>
<path opacity="0.2" d="M89.6866 254.278H144.191C146.834 254.278 149.369 255.687 151.238 258.196C153.107 260.704 154.157 264.106 154.157 267.653V290.546H79.7266V267.645C79.7282 264.101 80.778 260.702 82.6455 258.196C84.5131 255.689 87.0455 254.28 89.6866 254.278Z" fill="white"/>
<path opacity="0.2" d="M87.6406 258.667H130.943C133.043 258.667 135.058 259.787 136.543 261.78C138.028 263.774 138.863 266.477 138.863 269.296V290.547H79.7266V269.296C79.7266 266.479 80.5602 263.776 82.0442 261.783C83.5281 259.79 85.5411 258.669 87.6406 258.667Z" fill="white"/>
<path opacity="0.4" d="M196.202 229.694C186.968 229.694 179.48 240.702 179.48 254.278C179.48 267.855 186.968 278.854 196.202 278.854C205.442 278.854 212.93 267.855 212.93 254.278C212.93 240.702 205.442 229.694 196.202 229.694Z" fill="black"/>
<path d="M195.399 230.838C186.597 230.838 179.457 241.306 179.457 254.278C179.457 267.219 186.597 277.711 195.399 277.711C204.207 277.711 211.341 267.243 211.341 254.278C211.365 241.33 204.231 230.838 195.399 230.838Z" fill="#263238"/>
<path d="M194.422 243.343H198.31C202.126 243.343 205.216 248.239 205.216 254.278C205.216 260.317 202.126 265.205 198.31 265.205H194.422C190.606 265.205 187.516 260.309 187.516 254.278C187.516 248.247 190.594 243.343 194.422 243.343Z" fill="#407BFF"/>
<path opacity="0.4" d="M194.422 243.343H198.31C202.126 243.343 205.216 248.239 205.216 254.278C205.216 260.317 202.126 265.205 198.31 265.205H194.422C190.606 265.205 187.516 260.309 187.516 254.278C187.516 248.247 190.594 243.343 194.422 243.343Z" fill="black"/>
<path d="M198.31 265.206C202.128 265.206 205.222 260.314 205.222 254.279C205.222 248.244 202.128 243.352 198.31 243.352C194.493 243.352 191.398 248.244 191.398 254.279C191.398 260.314 194.493 265.206 198.31 265.206Z" fill="#407BFF"/>
<path opacity="0.4" d="M198.313 263.474C201.313 263.474 203.833 259.263 203.833 254.278C203.833 249.294 201.301 245.074 198.313 245.074C195.325 245.074 192.793 249.294 192.793 254.278C192.793 259.263 195.319 263.474 198.313 263.474Z" fill="black"/>
<path d="M197.737 262.508C200.419 262.508 202.681 258.731 202.681 254.27C202.681 249.809 200.419 246.024 197.737 246.024C195.055 246.024 192.793 249.801 192.793 254.27C192.793 258.739 195.055 262.508 197.737 262.508Z" fill="#263238"/>
<path opacity="0.4" d="M113.399 274.723C113.399 276.97 112.199 278.75 110.753 278.75C109.307 278.75 108.113 276.938 108.113 274.723C108.113 272.509 109.313 270.697 110.753 270.697C112.193 270.697 113.399 272.485 113.399 274.723Z" fill="black"/>
<path d="M113.398 274.723C113.35 275.211 113.199 275.671 112.962 276.047C112.725 276.423 112.412 276.699 112.061 276.842C111.71 276.986 111.336 276.99 110.983 276.855C110.63 276.72 110.313 276.452 110.071 276.082C109.829 275.711 109.672 275.255 109.618 274.768C109.564 274.281 109.616 273.783 109.768 273.335C109.92 272.886 110.164 272.506 110.473 272.24C110.781 271.973 111.141 271.831 111.508 271.832C112.043 271.884 112.541 272.216 112.895 272.757C113.248 273.298 113.429 274.004 113.398 274.723Z" fill="#407BFF"/>
<path opacity="0.4" d="M121.288 274.723C121.288 276.97 120.088 278.75 118.648 278.75C117.208 278.75 116.008 276.938 116.008 274.723C116.008 272.509 117.208 270.697 118.648 270.697C120.088 270.697 121.288 272.485 121.288 274.723Z" fill="black"/>
<path d="M121.291 274.723C121.243 275.209 121.091 275.666 120.854 276.04C120.617 276.413 120.305 276.687 119.955 276.829C119.605 276.97 119.232 276.973 118.881 276.838C118.53 276.703 118.215 276.434 117.974 276.065C117.734 275.696 117.577 275.242 117.524 274.756C117.471 274.271 117.523 273.775 117.674 273.329C117.825 272.882 118.069 272.504 118.377 272.238C118.684 271.973 119.042 271.832 119.407 271.832C119.942 271.884 120.439 272.216 120.792 272.758C121.145 273.299 121.324 274.005 121.291 274.723Z" fill="#407BFF"/>
<path opacity="0.4" d="M129.186 274.723C129.186 276.97 127.986 278.75 126.546 278.75C125.106 278.75 123.906 276.938 123.906 274.723C123.906 272.509 125.106 270.697 126.546 270.697C127.986 270.697 129.186 272.485 129.186 274.723Z" fill="black"/>
<path d="M129.186 274.723C129.137 275.209 128.985 275.666 128.749 276.04C128.512 276.413 128.199 276.687 127.85 276.829C127.5 276.97 127.127 276.973 126.775 276.838C126.424 276.703 126.109 276.434 125.869 276.065C125.628 275.696 125.472 275.242 125.419 274.756C125.365 274.271 125.418 273.775 125.569 273.329C125.72 272.882 125.964 272.504 126.271 272.238C126.578 271.973 126.936 271.832 127.302 271.832C127.836 271.886 128.332 272.219 128.685 272.76C129.037 273.301 129.217 274.006 129.186 274.723Z" fill="#407BFF"/>
<path opacity="0.4" d="M90.062 270.673H87.38C86.6178 270.673 86 271.502 86 272.525V276.93C86 277.952 86.6178 278.782 87.38 278.782H90.062C90.8242 278.782 91.442 277.952 91.442 276.93V272.525C91.442 271.502 90.8242 270.673 90.062 270.673Z" fill="black"/>
<path d="M90.3369 271.486H88.3149C87.7052 271.486 87.2109 272.15 87.2109 272.968V276.487C87.2109 277.305 87.7052 277.969 88.3149 277.969H90.3369C90.9467 277.969 91.4409 277.305 91.4409 276.487V272.968C91.4409 272.15 90.9467 271.486 90.3369 271.486Z" fill="#407BFF"/>
<path d="M120.02 138.154H156.194V174.736C156.194 176.579 155.648 178.347 154.677 179.65C153.706 180.953 152.389 181.686 151.016 181.686H120.02V138.154Z" fill="#263238"/>
<path opacity="0.2" d="M120.02 138.154H156.194V174.736C156.194 176.579 155.648 178.347 154.677 179.65C153.706 180.953 152.389 181.686 151.016 181.686H120.02V138.154Z" fill="white"/>
<path d="M134.082 172.159C133.656 172.159 133.235 172.047 132.843 171.828C132.45 171.609 132.093 171.289 131.793 170.885C131.492 170.481 131.254 170.002 131.092 169.474C130.93 168.947 130.847 168.382 130.848 167.811V149.564C130.847 148.993 130.93 148.428 131.092 147.901C131.254 147.373 131.492 146.894 131.793 146.49C132.093 146.086 132.45 145.766 132.843 145.547C133.235 145.328 133.656 145.216 134.082 145.216C134.941 145.216 135.765 145.674 136.373 146.489C136.98 147.305 137.322 148.411 137.322 149.564V167.811C137.322 168.964 136.98 170.07 136.373 170.886C135.765 171.701 134.941 172.159 134.082 172.159Z" fill="#263238"/>
<path d="M170.616 100.066V136.085C170.616 138.953 169.767 141.704 168.256 143.732C166.745 145.76 164.695 146.899 162.558 146.899H142.026C138.918 146.899 130.848 150.281 130.848 154.452V168.947H95.7539V109.214C95.7531 105.06 96.3622 100.946 97.5463 97.1084C98.7304 93.2704 100.466 89.7831 102.655 86.8458C104.844 83.9085 107.442 81.5787 110.302 79.9895C113.162 78.4003 116.227 77.5829 119.322 77.584H153.864C158.307 77.584 162.568 79.9526 165.709 84.1689C168.851 88.3852 170.616 94.1036 170.616 100.066Z" fill="#407BFF"/>
<path opacity="0.2" d="M170.616 100.066V136.085C170.616 138.953 169.767 141.704 168.256 143.732C166.745 145.76 164.695 146.899 162.558 146.899H142.026C138.918 146.899 130.848 150.281 130.848 154.452V168.947H95.7539V109.214C95.7531 105.06 96.3622 100.946 97.5463 97.1084C98.7304 93.2704 100.466 89.7831 102.655 86.8458C104.844 83.9085 107.442 81.5787 110.302 79.9895C113.162 78.4003 116.227 77.5829 119.322 77.584H153.864C158.307 77.584 162.568 79.9526 165.709 84.1689C168.851 88.3852 170.616 94.1036 170.616 100.066Z" fill="white"/>
<path d="M123.325 115.294H119.443C115.627 115.294 112.531 120.19 112.531 126.229C112.531 132.268 115.627 137.156 119.443 137.156H123.325C127.141 137.156 130.237 132.26 130.237 126.229C130.237 120.198 127.141 115.294 123.325 115.294Z" fill="#407BFF"/>
<path opacity="0.3" d="M119.443 137.156C123.261 137.156 126.355 132.264 126.355 126.229C126.355 120.194 123.261 115.302 119.443 115.302C115.626 115.302 112.531 120.194 112.531 126.229C112.531 132.264 115.626 137.156 119.443 137.156Z" fill="white"/>
<path opacity="0.4" d="M119.442 135.425C116.442 135.425 113.922 131.214 113.922 126.229C113.922 121.245 116.448 117.025 119.442 117.025C122.436 117.025 124.962 121.237 124.962 126.229C124.962 131.222 122.436 135.425 119.442 135.425Z" fill="black"/>
<path d="M120.02 134.475C117.338 134.475 115.07 130.698 115.07 126.237C115.07 121.776 117.338 117.991 120.02 117.991C122.702 117.991 124.964 121.768 124.964 126.237C124.964 130.706 122.702 134.475 120.02 134.475Z" fill="#263238"/>
<path opacity="0.5" d="M117.996 125.463C117.216 125.463 116.562 124.368 116.562 123.048C116.562 121.727 117.216 120.632 117.996 120.632C118.776 120.632 119.43 121.727 119.43 123.048C119.43 124.368 118.782 125.463 117.996 125.463Z" fill="white"/>
<path d="M101.689 115.294H97.8065C93.9905 115.294 90.8945 120.19 90.8945 126.229C90.8945 132.268 93.9905 137.156 97.8065 137.156H101.689C105.505 137.156 108.595 132.26 108.595 126.229C108.595 120.198 105.505 115.294 101.689 115.294Z" fill="#407BFF"/>
<path opacity="0.3" d="M97.8065 137.156C101.624 137.156 104.719 132.264 104.719 126.229C104.719 120.194 101.624 115.302 97.8065 115.302C93.9891 115.302 90.8945 120.194 90.8945 126.229C90.8945 132.264 93.9891 137.156 97.8065 137.156Z" fill="white"/>
<path opacity="0.4" d="M97.8073 135.425C94.8073 135.425 92.2812 131.214 92.2812 126.229C92.2812 121.245 94.8133 117.025 97.8073 117.025C100.801 117.025 103.327 121.237 103.327 126.229C103.327 131.222 100.795 135.425 97.8073 135.425Z" fill="black"/>
<path d="M98.3737 134.475C95.6917 134.475 93.4297 130.698 93.4297 126.237C93.4297 121.776 95.6917 117.991 98.3737 117.991C101.056 117.991 103.324 121.768 103.324 126.237C103.324 130.706 101.056 134.475 98.3737 134.475Z" fill="#263238"/>
<path opacity="0.5" d="M96.3949 125.463C95.6209 125.463 94.9609 124.368 94.9609 123.048C94.9609 121.727 95.6209 120.632 96.3949 120.632C96.824 120.714 97.2166 121.001 97.5006 121.44C97.7846 121.88 97.941 122.442 97.941 123.023C97.941 123.605 97.7846 124.167 97.5006 124.607C97.2166 125.046 96.824 125.333 96.3949 125.415V125.463Z" fill="white"/>
<path d="M103.533 157.898H111.543V134.466H107.301L99.2969 157.898H103.533Z" fill="#263238"/>
<path opacity="0.2" d="M103.533 157.898H99.2969L107.301 134.466H111.543L103.533 157.898Z" fill="white"/>
<path d="M156.195 173.561V174.825C156.194 181.158 154.318 187.231 150.981 191.708C147.644 196.185 143.118 198.7 138.399 198.7H112.995C108.276 198.7 103.751 196.185 100.414 191.708C97.0764 187.231 95.2008 181.158 95.1992 174.825V164.703H130.293V172.256C130.295 174.259 130.888 176.179 131.943 177.595C132.998 179.011 134.429 179.807 135.921 179.809H151.521C152.134 179.812 152.741 179.652 153.308 179.339C153.874 179.026 154.389 178.566 154.823 177.985C155.257 177.405 155.602 176.716 155.837 175.956C156.073 175.197 156.194 174.383 156.195 173.561Z" fill="#263238"/>
<path opacity="0.2" d="M156.195 173.561V174.825C156.194 181.158 154.318 187.231 150.981 191.708C147.644 196.185 143.118 198.7 138.399 198.7H112.995C108.276 198.7 103.751 196.185 100.414 191.708C97.0764 187.231 95.2008 181.158 95.1992 174.825V164.703H130.293V172.256C130.295 174.259 130.888 176.179 131.943 177.595C132.998 179.011 134.429 179.807 135.921 179.809H151.521C152.134 179.812 152.741 179.652 153.308 179.339C153.874 179.026 154.389 178.566 154.823 177.985C155.257 177.405 155.602 176.716 155.837 175.956C156.073 175.197 156.194 174.383 156.195 173.561Z" fill="white"/>
<path opacity="0.2" d="M101.946 174.954C101.711 174.956 101.48 175.023 101.267 175.152C101.053 175.282 100.863 175.47 100.707 175.704C100.552 175.939 100.434 176.215 100.364 176.515C100.293 176.814 100.269 177.13 100.296 177.442C100.779 183.288 102.852 188.69 106.118 192.613C109.383 196.535 113.613 198.703 117.996 198.701H121.32C116.883 198.702 112.606 196.479 109.327 192.467C106.048 188.455 104.004 182.945 103.596 177.016C103.563 176.457 103.375 175.936 103.069 175.554C102.764 175.172 102.363 174.958 101.946 174.954Z" fill="black"/>
<path opacity="0.2" d="M110.266 174.954C110.032 174.956 109.801 175.023 109.587 175.152C109.374 175.282 109.183 175.47 109.027 175.704C108.872 175.939 108.755 176.215 108.684 176.515C108.613 176.814 108.59 177.13 108.616 177.442C109.099 183.287 111.171 188.688 114.436 192.61C117.7 196.532 121.928 198.701 126.31 198.701H129.634C125.198 198.698 120.924 196.473 117.646 192.462C114.369 188.451 112.325 182.943 111.916 177.016C111.883 176.457 111.695 175.936 111.39 175.554C111.084 175.172 110.683 174.958 110.266 174.954Z" fill="black"/>
<path opacity="0.2" d="M118.594 174.954C118.36 174.956 118.129 175.023 117.915 175.152C117.702 175.282 117.511 175.47 117.356 175.704C117.2 175.939 117.083 176.215 117.012 176.515C116.941 176.814 116.918 177.13 116.944 177.442C117.427 183.287 119.499 188.688 122.764 192.61C126.028 196.532 130.256 198.701 134.638 198.701H137.962C133.527 198.698 129.252 196.473 125.974 192.462C122.697 188.451 120.654 182.943 120.244 177.016C120.211 176.457 120.023 175.936 119.718 175.554C119.412 175.172 119.011 174.958 118.594 174.954Z" fill="black"/>
<path d="M130.524 168.915H95.3395C95.0675 168.916 94.798 168.845 94.5465 168.706C94.295 168.566 94.0664 168.362 93.8741 168.103C93.6817 167.845 93.5292 167.539 93.4255 167.201C93.3218 166.864 93.2687 166.502 93.2695 166.137C93.2688 165.771 93.3217 165.409 93.4254 165.071C93.5291 164.733 93.6814 164.426 93.8737 164.167C94.066 163.908 94.2945 163.703 94.546 163.563C94.7975 163.423 95.0672 163.351 95.3395 163.351H130.524C131.074 163.351 131.602 163.644 131.991 164.167C132.381 164.689 132.6 165.398 132.6 166.137C132.6 166.502 132.546 166.864 132.441 167.202C132.337 167.539 132.184 167.846 131.991 168.104C131.798 168.362 131.569 168.567 131.318 168.706C131.066 168.845 130.796 168.916 130.524 168.915Z" fill="#263238"/>
<path opacity="0.4" d="M132.604 166.137C132.6 166.874 132.381 167.58 131.992 168.102C131.603 168.624 131.077 168.919 130.528 168.923H95.3436C94.933 168.922 94.5316 168.758 94.1904 168.452C93.8491 168.145 93.5834 167.709 93.4266 167.2C93.2699 166.69 93.2293 166.13 93.3099 165.59C93.3906 165.049 93.5888 164.553 93.8796 164.164C94.0714 163.905 94.2997 163.701 94.5511 163.563C94.8025 163.425 95.0719 163.355 95.3436 163.359H130.528C131.077 163.359 131.604 163.651 131.993 164.172C132.383 164.692 132.602 165.399 132.604 166.137Z" fill="white"/>
<path opacity="0.2" d="M132.603 166.137C132.6 166.874 132.38 167.581 131.991 168.102C131.602 168.624 131.076 168.919 130.527 168.923H130.299C129.748 168.923 129.22 168.629 128.831 168.107C128.441 167.584 128.223 166.876 128.223 166.137C128.223 165.398 128.441 164.689 128.831 164.167C129.22 163.644 129.748 163.351 130.299 163.351H130.527C130.799 163.351 131.069 163.423 131.321 163.563C131.573 163.703 131.802 163.908 131.995 164.167C132.187 164.425 132.34 164.732 132.445 165.071C132.549 165.409 132.603 165.771 132.603 166.137Z" fill="black"/>
<path d="M165.995 125.294V138.718C165.995 139.198 165.924 139.674 165.787 140.118C165.65 140.563 165.448 140.966 165.195 141.305C164.941 141.645 164.64 141.914 164.309 142.097C163.978 142.281 163.623 142.374 163.265 142.373H153.275C152.552 142.373 151.859 141.988 151.349 141.303C150.838 140.617 150.551 139.687 150.551 138.718V125.294C150.552 124.326 150.84 123.398 151.351 122.714C151.861 122.031 152.553 121.646 153.275 121.646H163.271C163.992 121.646 164.684 122.031 165.195 122.714C165.706 123.398 165.993 124.326 165.995 125.294Z" fill="#407BFF"/>
<path opacity="0.2" d="M165.997 125.294V138.718C165.997 139.198 165.926 139.674 165.789 140.118C165.652 140.563 165.45 140.966 165.197 141.306C164.943 141.645 164.642 141.914 164.311 142.097C163.98 142.281 163.625 142.374 163.267 142.373H156.607C155.884 142.373 155.192 141.988 154.681 141.303C154.17 140.617 153.883 139.687 153.883 138.718V125.294C153.883 124.815 153.953 124.34 154.09 123.896C154.227 123.453 154.428 123.051 154.681 122.712C154.934 122.373 155.234 122.105 155.565 121.922C155.895 121.739 156.249 121.645 156.607 121.646H163.273C163.994 121.646 164.686 122.031 165.197 122.714C165.708 123.398 165.995 124.326 165.997 125.294Z" fill="black"/>
<path d="M164.015 127.268H157.049C156.959 127.269 156.869 127.246 156.786 127.2C156.702 127.155 156.626 127.087 156.562 127.002C156.498 126.917 156.447 126.815 156.412 126.703C156.377 126.591 156.359 126.471 156.359 126.35C156.359 126.228 156.376 126.107 156.41 125.994C156.445 125.881 156.495 125.779 156.56 125.693C156.624 125.606 156.7 125.538 156.784 125.492C156.868 125.446 156.959 125.423 157.049 125.424H164.015C164.106 125.424 164.195 125.448 164.279 125.495C164.362 125.541 164.438 125.609 164.501 125.696C164.565 125.782 164.615 125.884 164.649 125.996C164.683 126.108 164.7 126.229 164.699 126.35C164.699 126.593 164.627 126.827 164.499 126.999C164.371 127.171 164.197 127.268 164.015 127.268Z" fill="#263238"/>
<path d="M164.015 131.044H157.049C156.959 131.045 156.868 131.022 156.784 130.976C156.7 130.93 156.624 130.862 156.56 130.775C156.495 130.689 156.445 130.587 156.41 130.474C156.376 130.361 156.359 130.24 156.359 130.118C156.359 129.997 156.377 129.877 156.412 129.765C156.447 129.653 156.498 129.552 156.562 129.466C156.626 129.381 156.702 129.313 156.786 129.268C156.869 129.222 156.959 129.199 157.049 129.2H164.015C164.197 129.2 164.371 129.297 164.499 129.469C164.627 129.641 164.699 129.875 164.699 130.118C164.7 130.239 164.683 130.36 164.649 130.472C164.615 130.584 164.565 130.686 164.501 130.773C164.438 130.859 164.362 130.927 164.279 130.974C164.195 131.02 164.106 131.044 164.015 131.044Z" fill="#263238"/>
<path d="M164.015 134.821H157.049C156.866 134.821 156.691 134.723 156.561 134.549C156.432 134.376 156.359 134.14 156.359 133.895C156.359 133.773 156.377 133.653 156.412 133.541C156.447 133.43 156.498 133.328 156.562 133.243C156.626 133.157 156.702 133.09 156.786 133.044C156.869 132.998 156.959 132.976 157.049 132.977H164.015C164.197 132.977 164.371 133.073 164.499 133.245C164.627 133.418 164.699 133.651 164.699 133.895C164.699 134.139 164.628 134.373 164.499 134.547C164.371 134.72 164.197 134.818 164.015 134.821Z" fill="#263238"/>
<path d="M164.015 138.597H157.049C156.866 138.597 156.691 138.499 156.561 138.326C156.432 138.152 156.359 137.917 156.359 137.671C156.359 137.55 156.377 137.43 156.412 137.318C156.447 137.206 156.498 137.104 156.562 137.019C156.626 136.934 156.702 136.866 156.786 136.821C156.869 136.775 156.959 136.752 157.049 136.753H164.015C164.197 136.753 164.371 136.85 164.499 137.022C164.627 137.194 164.699 137.427 164.699 137.671C164.699 137.915 164.628 138.149 164.499 138.323C164.371 138.496 164.197 138.595 164.015 138.597Z" fill="#263238"/>
<path d="M172.833 105.075V108.707C172.833 109.497 172.599 110.255 172.183 110.813C171.767 111.372 171.202 111.686 170.613 111.686V103.006C170.613 96.8485 168.791 90.9436 165.547 86.59C162.303 82.2363 157.903 79.7904 153.315 79.7904H139.593C137.238 79.7904 134.906 80.4137 132.73 81.6245C130.554 82.8354 128.578 84.6101 126.914 86.8471C125.25 89.0841 123.931 91.7395 123.032 94.6614C122.134 97.5832 121.673 100.714 121.677 103.875C121.677 105.569 121.176 107.193 120.284 108.39C119.391 109.588 118.181 110.261 116.919 110.261H100.119C99.1018 110.259 98.1266 109.715 97.4077 108.748C96.6889 107.782 96.2852 106.473 96.2852 105.107C96.2867 96.7198 98.7705 88.6767 103.19 82.7467C107.61 76.8167 113.604 73.4854 119.853 73.4854H149.253C155.5 73.4832 161.492 76.8089 165.914 82.732C170.335 88.655 172.824 96.6911 172.833 105.075Z" fill="#407BFF"/>
<path opacity="0.4" d="M163.557 104.101C165.051 104.101 166.317 106.21 166.317 108.699C166.317 111.187 165.051 113.305 163.557 113.305C162.063 113.305 160.797 111.195 160.797 108.699C160.797 106.202 162.063 104.101 163.557 104.101Z" fill="black"/>
<path d="M163.269 104.584C164.607 104.584 165.741 106.468 165.741 108.699C165.741 110.929 164.607 112.822 163.269 112.822C161.931 112.822 160.797 110.937 160.797 108.699C160.797 106.46 161.931 104.584 163.269 104.584Z" fill="#263238"/>
<path opacity="0.4" d="M155.838 104.101C157.332 104.101 158.598 106.21 158.598 108.699C158.598 111.187 157.332 113.305 155.838 113.305C154.344 113.305 153.078 111.195 153.078 108.699C153.078 106.202 154.338 104.101 155.838 104.101Z" fill="black"/>
<path d="M155.55 104.584C156.888 104.584 158.022 106.468 158.022 108.699C158.022 110.929 156.888 112.822 155.55 112.822C154.212 112.822 153.078 110.937 153.078 108.699C153.078 106.46 154.206 104.584 155.55 104.584Z" fill="#263238"/>
<path opacity="0.4" d="M148.112 104.101C149.612 104.101 150.872 106.21 150.872 108.699C150.872 111.187 149.612 113.305 148.112 113.305C146.612 113.305 145.352 111.195 145.352 108.699C145.352 106.202 146.618 104.101 148.112 104.101Z" fill="black"/>
<path d="M147.824 104.584C149.168 104.584 150.302 106.468 150.302 108.699C150.302 110.929 149.168 112.822 147.824 112.822C146.48 112.822 145.352 110.937 145.352 108.699C145.352 106.46 146.486 104.584 147.824 104.584Z" fill="#263238"/>
<path opacity="0.4" d="M159.694 92.1914C161.194 92.1914 162.454 94.2931 162.454 96.7893C162.454 99.2856 161.194 101.387 159.694 101.387C158.194 101.387 156.934 99.2775 156.934 96.7893C156.934 94.3011 158.194 92.1914 159.694 92.1914Z" fill="black"/>
<path d="M159.394 92.666C160.738 92.666 161.872 94.5583 161.872 96.7888C161.872 99.0194 160.738 100.912 159.394 100.912C158.05 100.912 156.922 99.0194 156.922 96.7888C156.922 94.5583 158.068 92.666 159.394 92.666Z" fill="#263238"/>
<path opacity="0.4" d="M151.975 92.1914C153.469 92.1914 154.735 94.2931 154.735 96.7893C154.735 99.2856 153.469 101.387 151.975 101.387C150.481 101.387 149.215 99.2775 149.215 96.7893C149.215 94.3011 150.481 92.1914 151.975 92.1914Z" fill="black"/>
<path d="M151.685 92.666C153.023 92.666 154.157 94.5583 154.157 96.7888C154.157 99.0194 153.023 100.912 151.685 100.912C150.347 100.912 149.195 99.0435 149.195 96.7888C149.195 94.5342 150.347 92.666 151.685 92.666Z" fill="#263238"/>
</svg>
